<svg width="22" height="26" viewBox="0 0 22 26" fill="none" xmlns="http://www.w3.org/2000/svg">
<g clip-path="url(#clip0_406_176)">
<path d="M5.14955 7.11062C7.87766 11.4521 10.6058 15.7936 13.3339 20.135C13.7253 20.758 14.4539 21.0875 15.151 20.7177C15.7539 20.3978 16.1423 19.4804 15.7486 18.8539C13.0205 14.5124 10.2924 10.1709 7.56429 5.82947C7.17282 5.2065 6.44429 4.87696 5.74713 5.24684C5.14425 5.5667 4.75583 6.48408 5.14955 7.11062Z" fill="#56BE88"/>
<path d="M3.30741 18.2003C8.89234 15.289 14.4773 12.3777 20.0622 9.46645C21.6243 8.65216 20.4044 6.20589 18.8426 7.02003C13.2577 9.93132 7.67276 12.8426 2.08783 15.7539C0.52573 16.5682 1.7456 19.0145 3.30741 18.2003Z" fill="#56BE88"/>
<path d="M12.2874 3.18938C10.1987 9.28518 8.11009 15.381 6.02143 21.4768C5.44375 23.1628 8.01365 23.9866 8.59129 22.3008C10.6799 16.205 12.7686 10.1092 14.8573 4.01335C15.4349 2.32735 12.865 1.50354 12.2874 3.18938Z" fill="#56BE88"/>
</g>
<defs>
<clipPath id="clip0_406_176">
<rect width="16" height="22" fill="white" transform="translate(6.71704) rotate(17.7774)"/>
</clipPath>
</defs>
</svg>
