<svg width="173" height="159" viewBox="0 0 173 159" fill="none" xmlns="http://www.w3.org/2000/svg">
<path d="M17.0399 46.5929C18.2746 46.5929 19.2771 47.469 19.2771 48.548C19.2771 49.6271 18.2746 50.5032 17.0399 50.5032C15.8052 50.5032 14.8027 49.6271 14.8027 48.548C14.8027 47.469 15.8052 46.5929 17.0399 46.5929Z" fill="#FB775C"/>
<path d="M101.178 37.7258L101.048 40.1377L97.3635 42.4922L97.4939 40.0803L101.178 37.7258Z" fill="#F5B9B9"/>
<path d="M98.7882 92.7434L99.6156 95.6218L96.1643 96.9753L95.337 94.0968L98.7882 92.7434Z" fill="#F5B9B9"/>
<path d="M5.07701 131.369L5.79559 134.477L1.90147 136.197L1.18289 133.089L5.07701 131.369Z" fill="#FB775C"/>
<path d="M43.4918 38.698L44.394 41.2396L41.512 42.1801L40.6097 39.6386L43.4918 38.698Z" fill="#F5B9B9"/>
<path d="M137.029 72.0414L137.781 74.5196L134.847 75.6268L134.096 73.1486L137.029 72.0414Z" fill="#F5B9B9"/>
<path d="M48.2698 70.8298L48.9293 73.2414L46.0055 74.4251L45.3459 72.0135L48.2698 70.8298Z" fill="#F5B9B9"/>
<path d="M151.843 36.922L153.385 31.1811L157.605 35.5055L151.843 36.922Z" fill="#ADC3EC"/>
<path d="M32.8258 55.2112L35.6531 48.8507L39.2349 52.5209L32.8258 55.2112Z" fill="#ADC3EC"/>
<path d="M129.656 111.757L131.983 104.86L136.589 109.58L129.656 111.757Z" fill="#ADC3EC"/>
<path d="M171.961 132.321C171.908 133.865 170.836 135.084 169.569 135.039C168.303 134.995 167.318 133.705 167.372 132.16C167.426 130.615 168.498 129.397 169.764 129.441C171.031 129.485 172.015 130.776 171.961 132.321Z" fill="#8AD0DA"/>
<path d="M46.2684 1.20536L46.7955 4.97733L41.737 7.57622L41.2099 3.80425L46.2684 1.20536Z" fill="#FB775C"/>
<path d="M144.639 27.4029L145.747 31.2903L141.077 33.132L139.969 29.2447L144.639 27.4029Z" fill="#FAD36E"/>
<path d="M94.0456 151.417L95.1805 155.432L90.3474 157.349L89.2125 153.334L94.0456 151.417Z" fill="#FB775C"/>
<path d="M21.88 89.1797L22.7648 83.6283L27.4384 88.4173L21.88 89.1797Z" fill="#8AD0DA"/>
<path d="M127.024 156.432L128.442 151.534L131.942 155.121L127.024 156.432Z" fill="#064058"/>
<path d="M99.0442 27.6711L100.666 22.3431L104.396 26.1658L99.0442 27.6711Z" fill="#8AD0DA"/>
<path d="M51.295 134.75L53.1991 129.844L56.2325 132.953L51.295 134.75Z" fill="#ADC3EC"/>
<path d="M111.882 48.3181L114.293 43.1323L117.109 46.0182L111.882 48.3181Z" fill="#FB775C"/>
<path d="M137.276 24.5942C134.543 21.873 132.998 16.7969 132.421 11.0774" stroke="#8AD0DA" stroke-width="10.5924"/>
<path d="M85.5492 126.019C87.8639 128.576 91.8415 129.387 96.0989 129.949" stroke="#F5B9B9" stroke-width="14.4418"/>
<path d="M78.3468 21.4426C72.3591 19.4973 65.4342 20.9083 58.7878 21.6986" stroke="#F5B9B9" stroke-width="9.78693"/>
<path d="M107.472 94.3984C111.351 92.8377 113.824 89.5517 116.206 86.4958" stroke="#8AD0DA" stroke-width="6.20052"/>
<path d="M10.6196 23.0254C11.9801 16.4328 15.0544 13.2282 20.0384 17.6457C23.0613 20.325 24.708 22.7924 25.2763 25.0342" stroke="#8AD0DA" stroke-width="15.6253"/>
<path d="M83.6656 55.8431C90.289 59.952 101.91 62.805 101.395 54.7454" stroke="#8AD0DA" stroke-width="4.45391"/>
</svg>
