<svg width="197" height="124" viewBox="0 0 197 124" fill="none" xmlns="http://www.w3.org/2000/svg">
<g clip-path="url(#clip0_338_10076)">
<path d="M116.895 3.80412C131.077 -3.77042 149.077 0.200523 158.62 13.6312L158.295 13.8613C148.87 0.596365 131.09 -3.32458 117.083 4.15479C115.893 4.79037 114.744 5.50016 113.644 6.27996C99.2392 16.4781 95.8321 36.4726 106.049 50.8512L105.724 51.0812C95.3802 36.524 98.8296 16.2806 113.413 5.9557C114.528 5.16637 115.691 4.44777 116.895 3.80412Z" fill="#E6E6E6"/>
<path d="M192.026 36.1805L145.38 32.5581C144.656 32.5011 143.984 32.1597 143.512 31.6088C143.039 31.0579 142.805 30.3425 142.861 29.6196L144.883 6.99685C144.94 6.27406 145.282 5.60342 145.834 5.13205C146.386 4.66068 147.103 4.42707 147.827 4.48249L194.473 8.10481C195.197 8.16186 195.869 8.50329 196.341 9.05418C196.813 9.60508 197.047 10.3205 196.992 11.0434L194.969 33.6661C194.912 34.3889 194.57 35.0595 194.018 35.5309C193.466 36.0023 192.75 36.2359 192.026 36.1805Z" fill="#E6E6E6"/>
<path d="M181.007 31.0697C180.653 31.0697 180.298 31.0558 179.941 31.0282L149.796 28.6872C149.193 28.6404 148.605 28.4756 148.066 28.2021C147.527 27.9286 147.048 27.5519 146.655 27.0933C146.261 26.6348 145.963 26.1035 145.775 25.5297C145.588 24.9559 145.516 24.3509 145.563 23.7492L146.25 14.9288C146.346 13.7141 146.921 12.5871 147.848 11.795C148.776 11.0028 149.98 10.6102 151.197 10.7034L190.179 13.7305C191.396 13.8264 192.525 14.4002 193.318 15.3259C194.112 16.2517 194.505 17.4538 194.412 18.6686C194.149 22.0395 192.623 25.1877 190.139 27.486C187.655 29.7842 184.394 31.0638 181.007 31.0697Z" fill="white"/>
<path d="M189.246 20.7425L151.032 17.775C150.953 17.7688 150.875 17.747 150.804 17.7109C150.733 17.6748 150.669 17.625 150.617 17.5644C150.566 17.5039 150.526 17.4337 150.501 17.3579C150.477 17.2821 150.467 17.2022 150.473 17.1227C150.479 17.0433 150.501 16.9658 150.537 16.8947C150.574 16.8237 150.624 16.7604 150.684 16.7086C150.745 16.6568 150.815 16.6174 150.891 16.5927C150.967 16.568 151.047 16.5585 151.127 16.5646L189.341 19.5322C189.42 19.5384 189.498 19.5601 189.569 19.5963C189.64 19.6324 189.704 19.6822 189.756 19.7427C189.808 19.8033 189.847 19.8735 189.872 19.9493C189.896 20.025 189.906 20.105 189.9 20.1844C189.894 20.2639 189.872 20.3414 189.836 20.4124C189.799 20.4835 189.75 20.5467 189.689 20.5985C189.628 20.6504 189.558 20.6898 189.482 20.7145C189.406 20.7392 189.326 20.7487 189.246 20.7425Z" fill="#E6E6E6"/>
<path d="M173.379 21.916L150.846 20.1662C150.685 20.1536 150.536 20.0779 150.431 19.9556C150.327 19.8333 150.275 19.6744 150.287 19.514C150.3 19.3535 150.376 19.2046 150.498 19.1C150.62 18.9953 150.78 18.9435 150.94 18.9559L173.473 20.7057C173.553 20.7118 173.631 20.7336 173.702 20.7697C173.773 20.8058 173.836 20.8555 173.888 20.9161C173.94 20.9767 173.98 21.0469 174.005 21.1227C174.029 21.1985 174.039 21.2785 174.033 21.358C174.027 21.4375 174.005 21.515 173.968 21.5861C173.932 21.6571 173.882 21.7204 173.822 21.7722C173.761 21.8241 173.691 21.8634 173.615 21.8881C173.539 21.9128 173.459 21.9223 173.379 21.916Z" fill="#E6E6E6"/>
<path d="M178.343 24.7072L150.66 22.5575C150.58 22.5514 150.502 22.5296 150.431 22.4935C150.36 22.4574 150.297 22.4076 150.245 22.3471C150.193 22.2865 150.153 22.2163 150.128 22.1405C150.104 22.0647 150.094 21.9847 150.1 21.9052C150.106 21.8257 150.128 21.7482 150.164 21.6771C150.201 21.606 150.251 21.5428 150.311 21.491C150.372 21.4391 150.442 21.3997 150.518 21.3751C150.594 21.3504 150.674 21.3409 150.754 21.3471L178.437 23.4969C178.598 23.5095 178.747 23.5852 178.852 23.7075C178.956 23.8298 179.008 23.9887 178.996 24.1491C178.983 24.3096 178.907 24.4585 178.785 24.5631C178.663 24.6678 178.503 24.7196 178.343 24.7072Z" fill="#E6E6E6"/>
<path d="M188.904 66.8905L142.258 63.2682C141.534 63.2111 140.862 62.8697 140.39 62.3188C139.918 61.7679 139.684 61.0525 139.739 60.3296L141.762 37.7069C141.819 36.9841 142.161 36.3135 142.713 35.8421C143.265 35.3707 143.981 35.1371 144.705 35.1925L191.351 38.8148C192.075 38.8719 192.747 39.2133 193.22 39.7642C193.692 40.3151 193.926 41.0305 193.87 41.7534L191.848 64.3761C191.791 65.0989 191.449 65.7696 190.897 66.2409C190.345 66.7123 189.628 66.9459 188.904 66.8905Z" fill="#E6E6E6"/>
<path d="M177.874 61.7792C177.525 61.7792 177.174 61.7655 176.82 61.7382L146.674 59.3972C146.072 59.3505 145.484 59.1856 144.945 58.9121C144.406 58.6387 143.926 58.2619 143.533 57.8034C143.14 57.3448 142.841 56.8135 142.654 56.2397C142.467 55.6659 142.394 55.0609 142.441 54.4592L143.129 45.6389C143.176 45.0372 143.341 44.4506 143.615 43.9126C143.889 43.3746 144.266 42.8958 144.726 42.5034C145.185 42.1111 145.717 41.8129 146.292 41.6258C146.867 41.4388 147.473 41.3667 148.076 41.4135L187.058 44.4406C187.66 44.4874 188.248 44.6523 188.787 44.9258C189.326 45.1993 189.806 45.576 190.199 46.0346C190.592 46.4931 190.891 47.0245 191.078 47.5983C191.265 48.1721 191.338 48.7771 191.291 49.3787C191.024 52.7501 189.495 55.8977 187.009 58.1954C184.523 60.4931 181.262 61.7725 177.874 61.7792Z" fill="white"/>
<path d="M186.125 51.4525L147.911 48.485C147.831 48.4788 147.754 48.457 147.683 48.4209C147.611 48.3848 147.548 48.335 147.496 48.2745C147.444 48.2139 147.405 48.1437 147.38 48.0679C147.355 47.9921 147.346 47.9122 147.352 47.8328C147.358 47.7533 147.38 47.6758 147.416 47.6048C147.452 47.5337 147.502 47.4705 147.563 47.4186C147.624 47.3668 147.694 47.3274 147.77 47.3027C147.846 47.278 147.926 47.2685 148.005 47.2747L186.219 50.2422C186.299 50.2484 186.377 50.2702 186.448 50.3063C186.519 50.3424 186.582 50.3922 186.634 50.4528C186.686 50.5133 186.726 50.5835 186.75 50.6593C186.775 50.7351 186.785 50.815 186.778 50.8945C186.772 50.9739 186.75 51.0514 186.714 51.1225C186.678 51.1935 186.628 51.2568 186.568 51.3086C186.507 51.3604 186.437 51.3998 186.361 51.4245C186.285 51.4492 186.205 51.4587 186.125 51.4525Z" fill="#E6E6E6"/>
<path d="M170.258 52.6261L147.725 50.8763C147.645 50.8701 147.567 50.8484 147.496 50.8123C147.425 50.7762 147.361 50.7264 147.31 50.6658C147.258 50.6052 147.218 50.535 147.193 50.4592C147.169 50.3834 147.159 50.3035 147.165 50.224C147.171 50.1445 147.193 50.067 147.229 49.9959C147.266 49.9248 147.316 49.8615 147.376 49.8097C147.437 49.7579 147.507 49.7185 147.583 49.6938C147.659 49.6692 147.739 49.6597 147.819 49.6659L170.352 51.4157C170.513 51.4283 170.662 51.504 170.767 51.6264C170.871 51.7487 170.923 51.9075 170.911 52.0679C170.898 52.2284 170.822 52.3773 170.7 52.482C170.577 52.5866 170.418 52.6385 170.258 52.6261Z" fill="#E6E6E6"/>
<path d="M175.221 55.4173L147.538 53.2675C147.377 53.255 147.228 53.1793 147.123 53.057C147.019 52.9347 146.967 52.7758 146.979 52.6153C146.992 52.4548 147.068 52.3058 147.19 52.2011C147.313 52.0965 147.472 52.0447 147.633 52.0572L175.316 54.2069C175.476 54.2194 175.626 54.2951 175.73 54.4174C175.835 54.5398 175.887 54.6987 175.875 54.8592C175.862 55.0197 175.786 55.1686 175.664 55.2733C175.541 55.378 175.382 55.4298 175.221 55.4173Z" fill="#E6E6E6"/>
<path d="M70.2506 55.0707C69.6585 53.7313 69.3365 52.2886 69.303 50.825C69.2694 49.3614 69.525 47.9055 70.0551 46.5405C70.5853 45.1754 71.3796 43.928 72.3926 42.8694C73.4057 41.8108 74.6178 40.9617 75.9596 40.3707C77.3014 39.7796 78.7467 39.4582 80.213 39.4247C81.6792 39.3912 83.1377 39.6464 84.5052 40.1755C85.8727 40.7047 87.1224 41.4976 88.1829 42.5088C89.2434 43.5201 90.094 44.73 90.6861 46.0694L90.3217 46.2299C89.7507 44.9383 88.9305 43.7716 87.9078 42.7964C86.8851 41.8212 85.68 41.0566 84.3613 40.5463C83.0426 40.036 81.6361 39.79 80.2221 39.8223C78.8082 39.8546 77.4144 40.1645 76.1205 40.7345C74.8265 41.3044 73.6577 42.1232 72.6807 43.144C71.7038 44.1649 70.9378 45.3678 70.4266 46.6842C69.9154 48.0005 69.6689 49.4044 69.7012 50.8159C69.7336 52.2273 70.0441 53.6185 70.6151 54.9101L70.2506 55.0707Z" fill="#E6E6E6"/>
<path d="M186.015 117.242C190.575 115.085 193.972 110.746 193.442 105.977C189.351 109.283 183.781 111.13 178.031 111.086C175.792 111.068 173.284 110.841 171.656 112.095C170.644 112.876 170.187 114.115 170.129 115.35C170.071 116.586 170.371 117.836 170.67 119.07L170.579 119.362C175.933 119.702 181.455 119.399 186.015 117.242Z" fill="#F2F2F2"/>
<path d="M193.33 105.965C191.566 109.4 188.508 112.263 184.708 113.939C183.875 114.327 182.989 114.587 182.078 114.71C181.151 114.807 180.214 114.685 179.343 114.353C178.517 114.057 177.703 113.672 176.827 113.555C176.398 113.495 175.962 113.522 175.544 113.635C175.126 113.747 174.735 113.943 174.394 114.21C173.585 114.838 173.102 115.707 172.664 116.575C172.179 117.538 171.692 118.546 170.741 119.202C170.625 119.282 170.786 119.447 170.901 119.368C172.556 118.226 172.795 116.161 174.11 114.779C174.419 114.429 174.803 114.155 175.234 113.975C175.665 113.795 176.131 113.715 176.597 113.741C177.491 113.806 178.331 114.203 179.165 114.509C180.013 114.843 180.922 114.992 181.833 114.946C182.751 114.865 183.649 114.637 184.495 114.27C186.332 113.507 188.033 112.45 189.531 111.142C191.185 109.714 192.552 107.983 193.555 106.042C193.616 105.924 193.39 105.847 193.33 105.965Z" fill="white"/>
<path d="M185.981 113.455C186.461 114.02 187.106 114.422 187.825 114.605C188.545 114.787 189.303 114.741 189.996 114.473C190.128 114.418 190.02 114.223 189.887 114.279C189.243 114.53 188.537 114.572 187.867 114.401C187.197 114.23 186.598 113.854 186.154 113.325C186.061 113.212 185.888 113.342 185.981 113.455Z" fill="white"/>
<path d="M179.744 114.551C179.833 113.88 180.062 113.235 180.418 112.659C180.774 112.083 181.248 111.589 181.809 111.209C181.924 111.129 181.764 110.964 181.649 111.043C181.066 111.44 180.574 111.955 180.205 112.555C179.836 113.156 179.598 113.827 179.508 114.525C179.492 114.659 179.728 114.683 179.744 114.551Z" fill="white"/>
<path d="M190.915 109.568C190.696 109.4 190.523 109.178 190.413 108.925C190.304 108.671 190.261 108.394 190.289 108.119C190.307 107.987 190.071 107.962 190.053 108.094C190.024 108.398 190.071 108.704 190.192 108.984C190.312 109.264 190.501 109.509 190.742 109.697C190.763 109.719 190.792 109.732 190.822 109.735C190.852 109.739 190.883 109.732 190.908 109.715C190.92 109.707 190.929 109.696 190.935 109.683C190.942 109.671 190.945 109.657 190.946 109.643C190.947 109.629 190.944 109.615 190.939 109.602C190.933 109.589 190.925 109.577 190.915 109.568Z" fill="white"/>
<path d="M178.397 95.8929C178.383 95.9753 178.369 96.0576 178.353 96.1407C178.158 97.2453 177.86 98.3292 177.462 99.3784C177.433 99.4601 177.402 99.5423 177.37 99.6228C176.366 102.163 174.838 104.465 172.887 106.379C172.091 107.16 171.234 107.876 170.322 108.519C169.051 109.417 167.585 110.294 166.781 111.503C166.695 111.628 166.619 111.758 166.552 111.894L170.175 119.211C170.192 119.225 170.208 119.239 170.225 119.253L170.355 119.55C170.406 119.519 170.457 119.487 170.508 119.456C170.537 119.439 170.565 119.42 170.595 119.402C170.614 119.39 170.633 119.378 170.652 119.368C170.658 119.364 170.664 119.36 170.669 119.356C170.687 119.346 170.703 119.335 170.719 119.326C171.007 119.145 171.294 118.962 171.58 118.776C171.582 118.775 171.582 118.775 171.583 118.773C173.756 117.355 175.8 115.752 177.479 113.903C177.53 113.847 177.582 113.791 177.631 113.732C178.377 112.901 179.046 112.003 179.628 111.05C179.941 110.532 180.225 109.996 180.477 109.445C181.122 108.022 181.505 106.494 181.606 104.935C181.811 101.812 180.883 98.5825 178.575 96.0825C178.516 96.0186 178.458 95.9562 178.397 95.8929Z" fill="#F2F2F2"/>
<path d="M178.304 95.9428C179.313 99.8056 178.966 103.88 177.257 107.346C176.902 108.116 176.412 108.817 175.811 109.416C175.167 110.004 174.376 110.409 173.521 110.585C172.702 110.779 171.831 110.89 171.096 111.262C170.735 111.442 170.423 111.705 170.183 112.029C169.944 112.353 169.784 112.729 169.719 113.127C169.539 114.095 169.767 115.092 170.027 116.064C170.317 117.142 170.636 118.259 170.369 119.328C170.337 119.457 170.569 119.511 170.602 119.382C171.066 117.523 169.845 115.643 169.891 113.762C169.913 112.885 170.233 112.029 171.05 111.543C171.764 111.118 172.662 111.002 173.493 110.813C174.333 110.65 175.121 110.284 175.787 109.748C176.422 109.183 176.943 108.502 177.322 107.742C178.191 106.068 178.75 104.251 178.971 102.379C179.236 100.206 179.085 98.0031 178.526 95.8869C178.491 95.7535 178.27 95.8102 178.304 95.9428Z" fill="white"/>
<path d="M177.882 106.251C179.372 106.717 180.953 106.159 181.578 104.954C181.64 104.835 181.427 104.729 181.365 104.848C180.78 105.977 179.317 106.483 177.923 106.047C177.777 106.002 177.736 106.205 177.882 106.251Z" fill="white"/>
<path d="M173.956 110.537C173.574 109.962 173.313 109.316 173.19 108.638C173.066 107.959 173.081 107.263 173.235 106.591C173.267 106.461 173.035 106.407 173.003 106.537C172.844 107.237 172.83 107.962 172.96 108.667C173.091 109.373 173.363 110.045 173.762 110.642C173.84 110.764 174.033 110.658 173.956 110.537Z" fill="white"/>
<path d="M178.94 100.299C178.647 100.266 178.365 100.168 178.114 100.014C177.864 99.8602 177.65 99.6528 177.489 99.4068C177.412 99.2845 177.219 99.3907 177.295 99.5122C177.474 99.7833 177.71 100.012 177.987 100.183C178.264 100.354 178.575 100.463 178.898 100.502C178.962 100.509 179.022 100.487 179.035 100.427C179.038 100.398 179.03 100.368 179.013 100.344C178.995 100.32 178.969 100.304 178.94 100.299Z" fill="white"/>
<path d="M186.088 65.2893L183.316 50.5611L177.875 43.4124L173.843 46.0439C174.413 49.1287 178.723 54.8875 178.723 54.8875L182.543 66.2779C182.527 66.3371 182.513 66.3968 182.503 66.4583C182.442 66.8186 182.476 67.1885 182.6 67.5321C182.725 67.8757 182.936 68.1815 183.213 68.4199C183.491 68.6582 183.825 68.8211 184.184 68.8928C184.543 68.9645 184.915 68.9425 185.262 68.829C185.61 68.7156 185.923 68.5144 186.171 68.2451C186.418 67.9757 186.591 67.6472 186.674 67.2913C186.757 66.9354 186.747 66.5642 186.644 66.2135C186.541 65.8628 186.35 65.5444 186.088 65.2893Z" fill="#FFB8B8"/>
<path d="M173.951 47.6L178.516 43.9015L178.525 43.8819C179.379 41.9506 177.483 38.639 175.742 36.2011C175.168 35.3977 174.309 34.842 173.34 34.6465C172.37 34.4509 171.363 34.63 170.521 35.1477C169.902 35.5337 169.404 36.0847 169.083 36.7385C168.761 37.3923 168.63 38.1228 168.702 38.8474L169.086 42.5369L173.951 47.6Z" fill="#3F3D56"/>
<path d="M157.817 120.896L154.78 120.896L153.335 109.201L157.818 109.201L157.817 120.896Z" fill="#FFB8B8"/>
<path d="M158.592 119.906L157.737 119.906L154.399 118.551L152.61 119.906H152.61C151.599 119.906 150.629 120.307 149.914 121.021C149.2 121.734 148.798 122.702 148.798 123.711V123.835L158.592 123.835L158.592 119.906Z" fill="#2F2E41"/>
<path d="M171.295 120.896L168.257 120.896L166.812 109.201L171.295 109.201L171.295 120.896Z" fill="#FFB8B8"/>
<path d="M172.07 119.906L171.215 119.906L167.877 118.551L166.088 119.906H166.087C165.076 119.906 164.107 120.307 163.392 121.021C162.677 121.734 162.275 122.702 162.275 123.711V123.835L172.069 123.835L172.07 119.906Z" fill="#2F2E41"/>
<path d="M175.926 70.5228C175.926 70.5228 176.281 74.7712 175.394 78.8426C174.508 82.9141 174.508 94.3805 174.508 94.3805L172.557 116.725L166.705 116.194L165.109 78.8426L159.434 91.4109L159.966 93.1811L159.257 93.6237C159.257 93.6237 159.789 97.0755 159.434 97.0755C159.079 97.0755 158.193 97.6066 158.193 97.6066L158.902 115.839L152.872 115.662L150.744 89.9948L153.05 75.3023L153.227 72.47L154.025 72.5027L154.431 71.3194L155.178 69.2837L175.926 70.5228Z" fill="#2F2E41"/>
<path d="M176.233 71.4151L176.264 71.3709C177.952 69.0119 175.414 63.3433 175.031 62.5216L176.644 61.9992L176.28 58.9177L176.108 57.5439L177.341 56.3135L177.344 56.2828L178.054 50.0872L179.085 45.9721C179.474 44.4164 179.441 42.7856 178.989 41.2469C178.538 39.7083 177.684 38.3173 176.516 37.2167L174.132 34.9729L171.235 30.6936H166.563L164.961 33.7142C163.408 34.0725 162.03 34.9634 161.067 36.2316C160.104 37.4998 159.617 39.065 159.692 40.6545L160.055 48.5765L158.633 58.4401L158.633 60.2252L157.033 61.9997L157.382 63.743L156.165 64.2638L155.627 66.7676C155.405 67.0606 153.937 69.0149 153.937 69.5492C153.937 69.6294 153.996 69.7069 154.123 69.7929C155.124 70.4693 160.654 71.8482 163.102 70.8704C165.71 69.8298 176.075 71.3909 176.179 71.4068L176.233 71.4151Z" fill="#3F3D56"/>
<path d="M135.602 123.763C135.602 123.826 135.627 123.886 135.671 123.93C135.715 123.975 135.775 124 135.838 124H191.653C191.716 124 191.776 123.975 191.821 123.931C191.865 123.886 191.89 123.826 191.89 123.763C191.89 123.701 191.865 123.641 191.821 123.596C191.776 123.552 191.716 123.527 191.653 123.527H135.839C135.777 123.527 135.716 123.551 135.672 123.595C135.628 123.64 135.602 123.7 135.602 123.762V123.763Z" fill="#CCCCCC"/>
<path d="M168.295 29.3122C171.713 29.3122 174.483 26.5468 174.483 23.1355C174.483 19.7243 171.713 16.9589 168.295 16.9589C164.878 16.9589 162.107 19.7243 162.107 23.1355C162.107 26.5468 164.878 29.3122 168.295 29.3122Z" fill="#FFB8B8"/>
<path d="M167.702 29.4122C168.661 29.4025 169.616 29.311 170.559 29.1388C171.492 28.9242 173.552 27.3349 174.113 26.3959C174.53 25.6983 174.78 24.6193 174.916 23.8369C175.101 22.8016 175.065 21.7391 174.812 20.7184C174.559 19.6976 174.094 18.7413 173.447 17.9113C173.198 17.5636 172.859 17.2897 172.466 17.1185C172.432 17.1059 172.396 17.0949 172.36 17.0857C171.791 16.9518 171.275 16.6512 170.878 16.2226C170.801 16.1358 170.718 16.0546 170.629 15.9798C170.184 15.6241 169.662 15.3787 169.103 15.2635C168.202 15.0473 166.912 15.3182 165.269 16.0693C164.444 16.4467 163.529 16.3414 162.823 16.2075C162.783 16.2009 162.743 16.2048 162.705 16.2188C162.668 16.2327 162.634 16.2563 162.609 16.287C162.317 16.5746 161.928 16.7413 161.518 16.7539C161.267 16.7713 161.013 17.1248 160.707 17.5852C160.637 17.6897 160.556 17.8117 160.497 17.8861L160.486 17.7463L160.348 17.9061C160.131 18.1573 159.981 18.4591 159.913 18.7835C159.845 19.1079 159.86 19.4443 159.957 19.7613C160.053 20.0784 160.229 20.3658 160.467 20.5968C160.705 20.8279 160.998 20.995 161.319 21.0826C161.573 21.1431 161.832 21.1776 162.093 21.1855C162.252 21.1956 162.415 21.206 162.573 21.2291C163.078 21.3189 163.551 21.5378 163.946 21.8646C164.341 22.1914 164.644 22.6148 164.826 23.0936C164.869 23.2042 164.937 23.3035 165.025 23.3838C165.112 23.4641 165.217 23.5232 165.331 23.5567C165.445 23.5901 165.566 23.5969 165.683 23.5765C165.8 23.5562 165.911 23.5092 166.007 23.4393C166.167 23.3084 166.356 23.2179 166.558 23.1757C166.761 23.1335 166.97 23.1408 167.169 23.197C167.342 23.2872 167.479 23.4342 167.556 23.6131C167.65 23.8122 167.801 23.979 167.99 24.0922C168.634 24.403 168.715 25.8514 168.518 27.0656C168.328 28.236 167.915 29.0898 167.513 29.1419C167.204 29.1819 167.169 29.2048 167.148 29.2601L167.129 29.3096L167.165 29.3546C167.338 29.4122 167.521 29.4318 167.702 29.4122Z" fill="#2F2E41"/>
<path d="M99.6985 61.2496C106.494 61.2496 112.002 55.7508 112.002 48.9678C112.002 42.1847 106.494 36.6859 99.6985 36.6859C92.9032 36.6859 87.3945 42.1847 87.3945 48.9678C87.3945 55.7508 92.9032 61.2496 99.6985 61.2496Z" fill="#56BE88"/>
<path d="M166.277 47.14L162.219 44.5491C159.634 46.3335 156.141 52.6198 156.141 52.6198L147.302 60.7717C146.933 60.8348 146.588 60.9935 146.301 61.2321C146.014 61.4706 145.795 61.7805 145.665 62.1305C145.536 62.4805 145.502 62.8582 145.565 63.2257C145.629 63.5933 145.789 63.9376 146.028 64.224C146.267 64.5104 146.578 64.7289 146.929 64.8574C147.279 64.9858 147.658 65.0198 148.026 64.9559C148.394 64.8919 148.739 64.7323 149.026 64.4931C149.312 64.2538 149.531 63.9435 149.659 63.5932L161.979 55.0262L166.277 47.14Z" fill="#FFB8B8"/>
<path d="M165.89 48.1913L168.593 41.7154L167.616 38.1367C167.421 37.4348 167.034 36.8012 166.498 36.3076C165.961 35.8139 165.297 35.4797 164.581 35.343C163.608 35.164 162.604 35.3605 161.771 35.8925C160.938 36.4245 160.338 37.2524 160.093 38.2089C159.353 41.1102 158.784 44.8818 160.28 46.3745L160.295 46.3896L165.89 48.1913Z" fill="#3F3D56"/>
<path d="M8.47458 120.253C3.18333 117.542 -0.655585 112.303 0.147019 106.705C4.84265 110.752 11.3349 113.135 18.1101 113.298C20.749 113.361 23.7121 113.187 25.5824 114.725C26.7461 115.682 27.2378 117.159 27.2596 118.616C27.2813 120.074 26.8812 121.535 26.4836 122.978L26.5795 123.325C20.2595 123.527 13.7658 122.964 8.47458 120.253Z" fill="#F2F2F2"/>
<path d="M0.279651 106.695C2.22879 110.807 5.72384 114.294 10.1378 116.41C11.1042 116.898 12.1389 117.237 13.2068 117.417C14.2955 117.565 15.4038 117.456 16.4425 117.098C17.4265 116.78 18.3999 116.357 19.4362 116.251C19.9436 116.197 20.4568 116.245 20.9451 116.394C21.4334 116.542 21.8867 116.787 22.278 117.114C23.208 117.884 23.7442 118.926 24.2271 119.964C24.7633 121.117 25.2989 122.323 26.3948 123.131C26.5276 123.229 26.3324 123.418 26.1998 123.32C24.2931 121.914 24.089 119.472 22.5917 117.794C21.893 117.011 20.9073 116.428 19.7003 116.479C18.6448 116.523 17.6406 116.959 16.6468 117.288C15.6354 117.65 14.558 117.792 13.4873 117.703C12.409 117.574 11.3587 117.272 10.3769 116.808C8.24101 115.84 6.27685 114.533 4.56126 112.936C2.66527 111.191 1.12072 109.101 0.0107139 106.778C-0.0566154 106.636 0.21276 106.554 0.279651 106.695Z" fill="white"/>
<path d="M8.65629 115.792C7.49634 117.113 5.45482 117.559 3.88893 116.843C3.73466 116.772 3.8696 116.547 4.02407 116.618C4.77338 116.937 5.60404 117.014 6.39923 116.837C7.19441 116.66 7.91412 116.239 8.45713 115.633C8.57123 115.503 8.76974 115.663 8.65629 115.792Z" fill="white"/>
<path d="M15.9626 117.316C15.8836 116.522 15.6372 115.754 15.2394 115.062C14.8417 114.371 14.3017 113.771 13.6549 113.302C13.5226 113.204 13.7178 113.015 13.85 113.113C14.5219 113.602 15.0825 114.227 15.4947 114.948C15.9068 115.669 16.1613 116.469 16.2413 117.295C16.2556 117.452 15.9767 117.473 15.9626 117.316Z" fill="white"/>
<path d="M2.98976 111.029C3.25438 110.839 3.46599 110.585 3.60451 110.291C3.74304 109.996 3.80389 109.671 3.78129 109.346C3.76479 109.189 4.04364 109.169 4.06004 109.325C4.08339 109.684 4.01581 110.043 3.86355 110.368C3.7113 110.694 3.47927 110.976 3.18892 111.189C3.16257 111.213 3.12875 111.228 3.09297 111.23C3.05718 111.233 3.02153 111.224 2.99181 111.203C2.97897 111.193 2.9686 111.18 2.96141 111.165C2.95422 111.15 2.9504 111.133 2.9502 111.117C2.95001 111.1 2.95345 111.084 2.96028 111.069C2.96711 111.054 2.97717 111.04 2.98976 111.029Z" fill="white"/>
<path d="M18.2478 95.3866C18.2613 95.4842 18.2748 95.5817 18.2903 95.6802C18.4788 96.9887 18.7895 98.2767 19.2182 99.5275C19.2495 99.6247 19.283 99.7228 19.3175 99.8188C20.4058 102.849 22.1192 105.617 24.3469 107.944C25.2543 108.895 26.2378 109.771 27.2876 110.562C28.751 111.667 30.4458 112.754 31.3479 114.209C31.4437 114.359 31.5287 114.516 31.6024 114.678L27.0608 123.162C27.0399 123.178 27.021 123.194 27.0001 123.21L26.8357 123.555C26.7775 123.517 26.7181 123.477 26.66 123.439C26.6261 123.417 26.5932 123.394 26.5594 123.372C26.5371 123.357 26.5149 123.342 26.4937 123.329C26.4863 123.324 26.4789 123.319 26.4736 123.315C26.4524 123.303 26.4344 123.289 26.4154 123.277C26.0829 123.054 25.7518 122.827 25.422 122.598C25.4199 122.597 25.4199 122.597 25.4188 122.594C22.9119 120.842 20.5641 118.878 18.6552 116.637C18.5978 116.57 18.5382 116.501 18.4829 116.43C17.6347 115.423 16.8808 114.341 16.2306 113.197C15.8805 112.575 15.5667 111.933 15.2909 111.274C14.5833 109.574 14.1897 107.759 14.129 105.919C14.0048 102.232 15.2189 98.4624 18.0307 95.6033C18.1027 95.5302 18.1737 95.4589 18.2478 95.3866Z" fill="#F2F2F2"/>
<path d="M18.3551 95.4488C17.0217 99.9617 17.2789 104.774 19.1621 108.922C19.5519 109.842 20.1024 110.685 20.7878 111.413C21.5241 112.131 22.4411 112.636 23.4417 112.876C24.3993 113.135 25.4209 113.298 26.2731 113.764C26.6914 113.99 27.0501 114.311 27.3201 114.702C27.59 115.093 27.7635 115.542 27.8262 116.012C28.0019 117.16 27.6958 118.326 27.3525 119.46C26.9712 120.72 26.5531 122.024 26.8277 123.293C26.861 123.446 26.5853 123.501 26.5521 123.348C26.0743 121.14 27.5835 118.971 27.5989 116.754C27.6061 115.72 27.2607 114.7 26.3172 114.097C25.4922 113.569 24.4389 113.4 23.4662 113.146C22.4824 112.922 21.5683 112.462 20.8037 111.805C20.0773 111.116 19.4892 110.295 19.0708 109.386C18.1093 107.381 17.519 105.22 17.3286 103.006C17.0973 100.437 17.3578 97.8469 18.0961 95.3748C18.1421 95.2189 18.4008 95.2939 18.3551 95.4488Z" fill="white"/>
<path d="M18.4671 107.607C16.694 108.101 14.8522 107.385 14.1611 105.942C14.093 105.8 14.3477 105.683 14.4159 105.825C15.0633 107.177 16.768 107.828 18.4255 107.367C18.6 107.318 18.6406 107.559 18.4671 107.607Z" fill="white"/>
<path d="M22.9321 112.803C23.4031 112.14 23.7343 111.389 23.9055 110.594C24.0768 109.8 24.0845 108.979 23.9282 108.182C23.8956 108.028 24.1712 107.973 24.2038 108.127C24.3646 108.957 24.3547 109.811 24.1747 110.638C23.9946 111.464 23.6482 112.246 23.1564 112.934C23.0599 113.075 22.8361 112.943 22.9321 112.803Z" fill="white"/>
<path d="M17.4437 100.556C17.7897 100.528 18.1252 100.425 18.4264 100.252C18.7276 100.08 18.9871 99.8437 19.1863 99.56C19.2808 99.4187 19.5045 99.551 19.4106 99.6914C19.1892 100.004 18.9023 100.265 18.5699 100.456C18.2374 100.647 17.8674 100.763 17.4853 100.797C17.4095 100.804 17.3398 100.775 17.3267 100.704C17.3236 100.669 17.334 100.635 17.3558 100.607C17.3775 100.58 17.409 100.561 17.4437 100.556Z" fill="white"/>
<path d="M34.2551 52.8625L34.6538 56.5527L34.4192 61.3916L45.1566 60.1183L46.1656 52.8625L44.88 52.8751L34.2551 52.8625Z" fill="#FFB6B6"/>
<path d="M28.6858 119.859H31.0333L32.1506 110.821H28.6858V119.859Z" fill="#FFB6B6"/>
<path d="M27.9197 118.254L31.6701 118.031V119.635L35.2358 122.093C35.4119 122.214 35.5446 122.389 35.6144 122.591C35.6842 122.793 35.6875 123.012 35.6238 123.216C35.5601 123.42 35.4327 123.598 35.2603 123.725C35.0879 123.851 34.8795 123.919 34.6655 123.919H30.2004L29.4308 122.333L29.1303 123.919H27.4468L27.9197 118.254Z" fill="#2F2E41"/>
<path d="M41.8723 119.859H44.2198L45.337 110.821H41.8723V119.859Z" fill="#FFB6B6"/>
<path d="M41.1062 118.254L44.8567 118.031V119.635L48.4224 122.093C48.5985 122.214 48.7311 122.389 48.8009 122.591C48.8707 122.793 48.874 123.012 48.8103 123.216C48.7466 123.42 48.6193 123.598 48.4469 123.725C48.2745 123.851 48.066 123.919 47.852 123.919H43.3869L42.6173 122.333L42.3168 123.919H40.6333L41.1062 118.254Z" fill="#2F2E41"/>
<path d="M27.673 112.065H27.6985L28.15 97.3688C27.8579 96.8063 27.7096 96.1803 27.7184 95.5467C27.7272 94.9131 27.8928 94.2916 28.2005 93.7373L28.2652 93.6205L28.0976 92.8451C27.8823 91.8487 27.9811 90.8103 28.3804 89.8723L28.8015 76.1634C27.2968 66.4291 34.4679 60.0808 34.4679 60.0808H45.2102L47.5164 67.9902C49.041 82.8175 48.7644 97.2662 46.345 111.265L46.411 111.298C46.6485 111.38 46.7503 111.708 46.6386 112.031C46.5268 112.355 46.2436 112.55 46.0061 112.469L40.333 112.272C40.0955 112.19 39.9936 111.861 40.1054 111.538C40.2172 111.215 40.5003 111.019 40.7378 111.101L41.1236 111.296L40.3009 97.1144L40.3922 94.5241L40.2041 91.5854L39.3345 78.3674L36.043 94.6218L32.6808 112.229C32.7736 112.312 32.8387 112.422 32.8675 112.544C32.8964 112.665 32.8876 112.793 32.8425 112.909C32.7973 113.026 32.7178 113.126 32.6145 113.196C32.5112 113.266 32.3889 113.304 32.2638 113.304H27.673C27.5915 113.304 27.5107 113.288 27.4353 113.257C27.3599 113.226 27.2913 113.18 27.2336 113.123C27.1759 113.065 27.1301 112.997 27.0988 112.922C27.0676 112.846 27.0515 112.766 27.0515 112.684C27.0515 112.603 27.0676 112.522 27.0988 112.447C27.1301 112.372 27.1759 112.304 27.2336 112.246C27.2913 112.188 27.3599 112.143 27.4353 112.112C27.5107 112.081 27.5915 112.065 27.673 112.065Z" fill="#2F2E41"/>
<path d="M36.13 33.9793C39.3122 33.9793 41.8919 31.4043 41.8919 28.2278C41.8919 25.0514 39.3122 22.4763 36.13 22.4763C32.9478 22.4763 30.3682 25.0514 30.3682 28.2278C30.3682 31.4043 32.9478 33.9793 36.13 33.9793Z" fill="#FFB6B6"/>
<path d="M10.882 54.7995C11.6917 52.9229 12.8038 51.1913 14.1739 49.6732C13.0137 51.519 12.3506 53.6326 12.2489 55.8093C12.669 56.0712 13.1085 56.3007 13.5636 56.4957C14.9314 57.0683 16.3897 57.3953 17.8714 57.4617C18.67 54.8058 20.0484 52.3596 21.9074 50.2991C20.5676 52.4319 19.8939 54.9143 19.9719 57.4304C21.6246 57.2878 23.2529 56.9394 24.819 56.3935C27.1704 55.586 29.4528 54.3801 31.0789 52.5044C32.8388 50.4744 33.7062 47.7955 33.9863 45.1249C34.2664 42.4565 34.003 39.7629 33.7376 37.0924C33.6122 35.8197 34.674 34.355 34.5486 33.0824H34.465C33.9069 32.3187 33.3384 31.5363 33.0646 30.6309C32.7928 29.7275 32.8639 28.6613 33.4889 27.9499C33.839 27.5781 34.2809 27.3047 34.7701 27.157C34.8161 27.0986 34.8663 27.0423 34.9185 26.9859C35.8649 25.9825 36.9788 25.1509 38.2105 24.5282C37.3222 25.1979 36.7286 25.9553 36.4527 26.7377C37.2219 26.5687 37.991 26.4004 38.7602 26.2328C39.0172 25.9606 39.2879 25.7015 39.5712 25.4566C39.9829 25.0999 40.1188 25.0727 40.61 24.7368C40.2134 25.0851 39.906 25.5228 39.7133 26.0137C40.7019 25.7654 41.6906 25.392 42.2048 24.5428C43.0575 23.1387 42.0438 21.2442 40.6288 20.4055C39.5995 19.8251 38.4134 19.5823 37.2383 19.7115C36.0632 19.8406 34.9585 20.3352 34.0804 21.1253C32.0341 19.621 29.1205 19.6461 26.8443 20.7706C25.3417 21.5463 24.0472 22.6702 23.0695 24.0483C23.6367 23.9757 24.2075 23.936 24.7793 23.9294C23.9745 24.047 23.2081 24.3498 22.5407 24.814C22.2455 25.2716 21.9748 25.7445 21.7297 26.2307C21.5688 26.5499 21.4169 26.8733 21.2741 27.2008C20.3983 29.1912 19.8277 31.311 19.2362 33.4057C18.5465 35.8468 17.8066 38.3045 16.5149 40.489C14.5344 43.8106 11.4101 46.2988 7.72583 47.4888C7.41859 50.2491 8.7688 52.9488 10.882 54.7995Z" fill="#2F2E41"/>
<path d="M41.9325 37.8256L40.8142 37.4064L39.4041 35.1304L34.381 35.5401L33.1602 37.9805L30.219 40.2226L31.5052 46.9844L33.5035 55.198L46.8804 53.5289L46.8663 47.3458C46.8663 47.3458 49.2835 42.4609 45.3788 40.6304L41.9325 37.8256Z" fill="#56BE88"/>
<path d="M62.5516 59.2729C62.2919 59.3769 62.0126 59.4229 61.7332 59.4075C61.4538 59.3921 61.1812 59.3158 60.9345 59.1839C60.6879 59.0519 60.4732 58.8676 60.3057 58.6439C60.1381 58.4202 60.0217 58.1626 59.9647 57.8891L45.0496 48.8803L47.7758 45.7405L61.5796 55.5832C62.0462 55.518 62.5205 55.626 62.9127 55.8866C63.3048 56.1472 63.5876 56.5423 63.7074 56.9971C63.8272 57.4519 63.7757 57.9348 63.5627 58.3542C63.3497 58.7736 62.9899 59.1005 62.5516 59.2729Z" fill="#FFB6B6"/>
<path d="M40.0797 44.6083C40.0797 44.6083 39.3669 45.3242 41.1554 46.5013C42.5873 47.4437 48.9739 52.1007 51.2379 52.8373C51.2096 53.1693 51.2927 53.5012 51.4741 53.7808C51.6556 54.0604 51.9251 54.2718 52.2402 54.3817L54.29 49.8851C53.8463 48.8572 53.1366 49.0952 52.7631 49.3283L50.2874 47.4698L44.2081 41.4101L40.5857 44.0817L40.0797 44.6083Z" fill="#56BE88"/>
<path d="M34.1169 21.2818C33.4243 22.3019 32.9769 23.4678 32.8095 24.6887C32.6421 25.9096 32.7591 27.1526 33.1515 28.321" fill="#FD6584"/>
<path d="M4.88477 123.763C4.88467 123.795 4.89074 123.825 4.90262 123.854C4.91449 123.883 4.93195 123.909 4.95397 123.931C4.97599 123.953 5.00215 123.97 5.03095 123.982C5.05974 123.994 5.0906 124 5.12174 124H60.9355C60.9983 124 61.0586 123.975 61.103 123.931C61.1475 123.886 61.1724 123.826 61.1724 123.763C61.1724 123.701 61.1475 123.641 61.103 123.596C61.0586 123.552 60.9983 123.527 60.9355 123.527H5.12174C5.0906 123.527 5.05974 123.533 5.03095 123.545C5.00216 123.557 4.97599 123.574 4.95397 123.596C4.93195 123.618 4.91449 123.644 4.90262 123.673C4.89074 123.702 4.88467 123.732 4.88477 123.763Z" fill="#CCCCCC"/>
<path d="M26.15 70.0014C26.0109 70.0503 25.8969 70.1522 25.833 70.2849C25.7692 70.4176 25.7606 70.5701 25.8093 70.7091L33.5853 93.0807C33.6343 93.2196 33.7364 93.3334 33.8693 93.3971C34.0023 93.4609 34.1551 93.4694 34.2943 93.4208L79.5403 77.5745C79.6794 77.5256 79.7934 77.4236 79.8573 77.2909C79.9211 77.1582 79.9296 77.0057 79.881 76.8667L72.1049 54.495C72.0559 54.3562 71.9538 54.2424 71.8208 54.1786C71.6879 54.1149 71.5351 54.1064 71.3958 54.155L26.15 70.0014Z" fill="#E6E6E6"/>
<path d="M37.6022 90.192C36.7118 90.1918 35.8433 89.9163 35.116 89.4034C34.3888 88.8905 33.8385 88.1654 33.5408 87.3277L29.2704 75.2672C28.8901 74.193 28.9528 73.012 29.4447 71.984C29.9367 70.956 30.8176 70.1652 31.8937 69.7855L54.7615 61.7176C59.0422 60.2127 63.7461 60.4642 67.8413 62.4169C71.9364 64.3697 75.0883 67.8642 76.6055 72.1339C76.9859 73.208 76.9232 74.389 76.4312 75.417C75.9393 76.445 75.0583 77.2359 73.9822 77.6156L39.0322 89.9463C38.573 90.1087 38.0894 90.1918 37.6022 90.192Z" fill="white"/>
<path d="M67.9276 66.418L47.4515 73.5892C47.163 73.6903 46.8055 73.4203 46.6529 72.9862C46.5003 72.5521 46.6105 72.1183 46.899 72.0173L67.3751 64.8461C67.6636 64.745 68.0211 65.015 68.1737 65.4491C68.3263 65.8831 68.2162 66.3174 67.9276 66.418Z" fill="#E6E6E6"/>
<path d="M69.5113 70.924L49.0353 78.0953C48.7468 78.1963 48.3892 77.9263 48.2366 77.4922C48.0841 77.0582 48.1943 76.6244 48.4828 76.5233L68.9588 69.3521C69.2473 69.251 69.6048 69.521 69.7574 69.9551C69.91 70.3892 69.7998 70.823 69.5113 70.924Z" fill="#E6E6E6"/>
<path d="M44.681 76.0408C44.9008 76.6593 45.0077 77.3121 44.9964 77.9683C44.992 78.2685 44.9623 78.5678 44.9075 78.8631C44.7329 79.817 44.3092 80.708 43.679 81.446C43.0488 82.184 42.2346 82.7428 41.3187 83.066C40.4028 83.3891 39.4176 83.4651 38.4628 83.2863C37.508 83.1075 36.6175 82.6802 35.8812 82.0476C35.8068 81.9841 35.7345 81.9186 35.664 81.851C35.0627 81.2758 34.5997 80.5721 34.3097 79.7927C34.0197 79.0134 33.9103 78.1786 33.9897 77.351C34.0691 76.5234 34.3352 75.7245 34.768 75.0143C35.2009 74.304 35.7892 73.7008 36.489 73.2499C37.1887 72.799 37.9817 72.5122 38.8083 72.4108C39.635 72.3095 40.4739 72.3964 41.2621 72.6649C42.0503 72.9335 42.7674 73.3767 43.3595 73.9614C43.9516 74.546 44.4034 75.257 44.681 76.0408Z" fill="#E4E4E4"/>
<path d="M39.7099 78.7165C40.2923 78.7165 40.7644 78.2453 40.7644 77.664C40.7644 77.0827 40.2923 76.6115 39.7099 76.6115C39.1276 76.6115 38.6555 77.0827 38.6555 77.664C38.6555 78.2453 39.1276 78.7165 39.7099 78.7165Z" fill="#FD6584"/>
<path d="M35.6641 81.851C35.9348 81.2239 36.2547 80.2671 36.9958 80.6154C37.362 80.7739 38.0177 81.2553 38.2839 80.6954L40.3687 76.3392C40.4082 76.2579 40.4636 76.1854 40.5316 76.1258C40.5996 76.0663 40.6789 76.0208 40.7647 75.9923C40.8505 75.9637 40.9412 75.9526 41.0314 75.9595C41.1216 75.9664 41.2096 75.9912 41.29 76.0325L44.9964 77.9683C44.9921 78.2685 44.9623 78.5678 44.9075 78.8631L35.8812 82.0476L35.6641 81.851Z" fill="#3F3D56"/>
<path d="M36.7399 68.9861C36.4791 68.8849 36.2437 68.7278 36.0503 68.526C35.8569 68.3241 35.7101 68.0824 35.6205 67.8178C35.5308 67.5533 35.5003 67.2723 35.5311 66.9947C35.562 66.7171 35.6535 66.4496 35.7991 66.2111L31.0806 49.4589L35.2205 49.027L38.5568 65.6297C38.942 65.9004 39.2143 66.3028 39.3222 66.7606C39.43 67.2184 39.3658 67.6998 39.1419 68.1135C38.9179 68.5272 38.5497 68.8446 38.107 69.0054C37.6643 69.1662 37.1779 69.1594 36.7399 68.9861Z" fill="#FFB6B6"/>
<path d="M30.3826 40.2628C30.3826 40.2628 29.3721 40.2991 29.8716 42.3786C30.2715 44.0434 31.74 54.4871 32.8882 56.5694C32.6402 56.7924 32.4736 57.0914 32.4146 57.4193C32.3556 57.7472 32.4075 58.0854 32.5623 58.3805L37.1376 56.4969C37.5175 55.4438 37.2233 54.4877 36.7911 54.403L36.2566 51.3572L35.4688 41.1396L31.1126 40.2237L30.3826 40.2628Z" fill="#56BE88"/>
<path d="M71.5981 84.34L65.2705 84.6016C65.1353 84.6074 65.0005 84.5827 64.8763 84.5292C64.7521 84.4756 64.6416 84.3947 64.5532 84.2925C64.4659 84.1929 64.4023 84.0749 64.3672 83.9473C64.3322 83.8197 64.3265 83.6858 64.3507 83.5557C64.8363 80.9127 64.6947 78.1929 63.9375 75.6143C63.879 75.4171 63.8909 75.2058 63.9711 75.0163C64.0512 74.8269 64.1948 74.671 64.3771 74.5754C66.9689 73.2313 69.3974 73.1631 71.5947 74.3726C71.7099 74.435 71.81 74.5218 71.8881 74.6269C71.9662 74.7319 72.0205 74.8527 72.047 74.9808C72.619 77.7946 72.7561 80.6792 72.4536 83.5344C72.4327 83.7492 72.3345 83.9492 72.1772 84.0973C72.0199 84.2454 71.8142 84.3316 71.5981 84.34Z" fill="#56BE88"/>
<path d="M71.3304 80.206L66.4922 80.406C66.4326 80.4086 66.3731 80.3993 66.317 80.3789C66.2609 80.3584 66.2095 80.3271 66.1656 80.2868C66.1216 80.2465 66.0861 80.1979 66.061 80.1438C66.0359 80.0898 66.0217 80.0313 66.0192 79.9718C66.0167 79.9123 66.026 79.8528 66.0466 79.7969C66.0671 79.741 66.0985 79.6896 66.139 79.6458C66.1794 79.602 66.2281 79.5666 66.2823 79.5415C66.3364 79.5165 66.395 79.5024 66.4546 79.5L71.2928 79.3C71.3524 79.2975 71.4119 79.3068 71.4679 79.3273C71.5239 79.3478 71.5753 79.3791 71.6192 79.4194C71.6631 79.4597 71.6986 79.5083 71.7237 79.5623C71.7488 79.6163 71.763 79.6747 71.7654 79.7342C71.7679 79.7937 71.7586 79.8531 71.7381 79.909C71.7176 79.9649 71.6862 80.0163 71.6458 80.0601C71.6054 80.1039 71.5568 80.1393 71.5026 80.1644C71.4485 80.1894 71.39 80.2036 71.3304 80.206Z" fill="white"/>
<path d="M71.2643 78.6172L66.4262 78.8172C66.3058 78.8222 66.1884 78.7793 66.0997 78.6978C66.0111 78.6164 65.9585 78.5031 65.9535 78.383C65.9485 78.2628 65.9916 78.1456 66.0732 78.0572C66.1547 77.9687 66.2682 77.9162 66.3886 77.9112L71.2267 77.7112C71.3471 77.7062 71.4645 77.7491 71.5531 77.8306C71.6418 77.912 71.6944 78.0253 71.6994 78.1454C71.7043 78.2656 71.6613 78.3828 71.5797 78.4713C71.4981 78.5597 71.3847 78.6122 71.2643 78.6172Z" fill="white"/>
<path d="M187.323 34.9311L181.044 34.109C180.91 34.0917 180.781 34.0443 180.668 33.9704C180.555 33.8965 180.46 33.7979 180.39 33.6821C180.321 33.5691 180.279 33.442 180.266 33.3102C180.253 33.1785 180.271 33.0457 180.317 32.9216C181.248 30.4004 181.574 27.6964 181.27 25.0266C181.246 24.8223 181.294 24.6161 181.405 24.4431C181.517 24.2701 181.685 24.1411 181.881 24.078C184.665 23.196 187.069 23.5433 189.027 25.1099C189.13 25.1911 189.213 25.2937 189.272 25.4105C189.331 25.5273 189.364 25.6556 189.368 25.7864C189.45 28.6563 189.091 31.5218 188.304 34.2834C188.247 34.4915 188.116 34.6718 187.935 34.7909C187.755 34.9099 187.537 34.9598 187.323 34.9311Z" fill="#56BE88"/>
<path d="M187.767 30.8123L182.966 30.1837C182.907 30.176 182.85 30.1567 182.798 30.1269C182.746 30.0972 182.701 30.0576 182.665 30.0104C182.628 29.9631 182.602 29.9092 182.586 29.8517C182.571 29.7942 182.567 29.7342 182.575 29.6752C182.582 29.6162 182.602 29.5592 182.632 29.5076C182.661 29.4561 182.701 29.4108 182.748 29.3746C182.796 29.3383 182.85 29.3117 182.907 29.2963C182.965 29.2808 183.025 29.2769 183.084 29.2846L187.885 29.9132C188.005 29.9288 188.113 29.9912 188.186 30.0865C188.26 30.1819 188.292 30.3025 188.277 30.4217C188.261 30.5409 188.198 30.6491 188.103 30.7223C188.007 30.7956 187.887 30.8279 187.767 30.8123Z" fill="white"/>
<path d="M187.974 29.2357L183.173 28.6071C183.114 28.5994 183.057 28.5802 183.005 28.5505C182.953 28.5208 182.908 28.4812 182.871 28.4339C182.835 28.3867 182.808 28.3327 182.793 28.2752C182.777 28.2176 182.773 28.1575 182.781 28.0984C182.789 28.0393 182.808 27.9823 182.838 27.9307C182.868 27.8791 182.908 27.8338 182.955 27.7975C183.002 27.7613 183.056 27.7347 183.114 27.7193C183.172 27.7039 183.232 27.7001 183.291 27.7079L188.092 28.3365C188.152 28.3442 188.209 28.3634 188.261 28.3931C188.312 28.4228 188.358 28.4624 188.394 28.5097C188.431 28.5569 188.457 28.6109 188.473 28.6684C188.488 28.726 188.492 28.7861 188.485 28.8452C188.477 28.9043 188.458 28.9613 188.428 29.0129C188.398 29.0645 188.358 29.1098 188.311 29.1461C188.263 29.1823 188.209 29.2089 188.151 29.2243C188.094 29.2397 188.034 29.2435 187.974 29.2357Z" fill="white"/>
<path d="M103.681 47.0794H101.59V44.9924C101.59 44.4915 101.391 44.0112 101.036 43.6571C100.681 43.303 100.2 43.104 99.6985 43.104C99.1968 43.104 98.7156 43.303 98.3609 43.6571C98.0061 44.0112 97.8068 44.4915 97.8068 44.9924V47.0794H95.7159C95.2142 47.0794 94.7331 47.2784 94.3783 47.6325C94.0235 47.9866 93.8242 48.4669 93.8242 48.9678C93.8242 49.4686 94.0235 49.9489 94.3783 50.303C94.7331 50.6571 95.2142 50.8561 95.7159 50.8561H97.8068V52.9432C97.8068 53.444 98.0061 53.9243 98.3609 54.2784C98.7156 54.6325 99.1968 54.8315 99.6985 54.8315C100.2 54.8315 100.681 54.6325 101.036 54.2784C101.391 53.9243 101.59 53.444 101.59 52.9432V50.8561H103.681C104.183 50.8561 104.664 50.6571 105.019 50.303C105.373 49.9489 105.573 49.4686 105.573 48.9678C105.573 48.4669 105.373 47.9866 105.019 47.6325C104.664 47.2784 104.183 47.0794 103.681 47.0794Z" fill="white"/>
<path d="M171.392 8.45464C172.493 8.45464 173.385 7.5637 173.385 6.46466C173.385 5.36563 172.493 4.47469 171.392 4.47469C170.291 4.47469 169.398 5.36563 169.398 6.46466C169.398 7.5637 170.291 8.45464 171.392 8.45464Z" fill="#3F3D56"/>
<path d="M48.9276 64.7066C50.0287 64.7066 50.9212 63.8157 50.9212 62.7166C50.9212 61.6176 50.0287 60.7267 48.9276 60.7267C47.8266 60.7267 46.9341 61.6176 46.9341 62.7166C46.9341 63.8157 47.8266 64.7066 48.9276 64.7066Z" fill="#3F3D56"/>
</g>
<defs>
<clipPath id="clip0_338_10076">
<rect width="197" height="124" fill="white"/>
</clipPath>
</defs>
</svg>
