<svg width="39" height="31" viewBox="0 0 39 31" fill="none" xmlns="http://www.w3.org/2000/svg">
<g clip-path="url(#clip0_406_251)">
<path d="M3.30537 24.5922C5.28686 26.8588 8.7156 26.8873 11.0114 25.0852C13.4045 23.2067 14.2763 19.8376 13.5214 16.9413C13.1772 15.6206 12.3303 14.3661 10.9245 14.0614C9.70903 13.798 8.47269 14.4013 8.11206 15.6283C7.1841 18.7855 11.3777 20.645 13.6554 21.549C16.6124 22.7226 20.0235 22.6142 22.0706 19.8872C23.8914 17.4618 25.1094 13.8474 24.3391 10.8366C23.9876 9.46281 23.1552 8.01886 21.8333 7.3825C20.6171 6.79699 19.0801 7.10718 18.4302 8.35556C17.0079 11.0875 20.3846 14.0036 22.4839 15.1636C25.4972 16.8286 29.3236 16.8471 32.2135 14.888C34.8484 13.1019 36.2064 9.88298 35.5986 6.75721C35.4789 6.1415 34.5436 6.41322 34.6623 7.02381C35.5981 11.8362 31.2259 15.7244 26.5999 15.4139C24.245 15.2558 22.0161 14.0546 20.4388 12.3238C19.6287 11.4349 18.6485 10.0638 19.2866 8.81837C20.0668 7.29566 21.892 8.34588 22.6006 9.32929C24.1503 11.4802 23.6596 14.3601 22.7244 16.6487C21.7407 19.0561 20.2319 21.2236 17.401 21.321C15.001 21.4035 12.446 20.1567 10.5138 18.8129C9.56074 18.1501 8.55564 16.9557 9.11859 15.7222C9.77521 14.2834 11.5861 15.1502 12.1703 16.1544C13.4883 18.4201 12.797 21.9001 11.0544 23.7379C9.13841 25.7586 5.88727 26.0733 3.97284 23.8834C3.56136 23.4127 2.89547 24.1233 3.30537 24.5922Z" fill="#56BE88"/>
</g>
<defs>
<clipPath id="clip0_406_251">
<rect width="36.8996" height="13.0873" fill="white" transform="translate(0 19.1732) rotate(-31.3058)"/>
</clipPath>
</defs>
</svg>
