<svg width="28" height="28" viewBox="0 0 28 28" fill="none" xmlns="http://www.w3.org/2000/svg">
<path d="M14 27.1107C7.26551 27.1107 0 22.8866 0 13.6176C0 4.34865 7.26551 0.124512 14 0.124512C17.7414 0.124512 21.1931 1.35555 23.7517 3.60037C26.5276 6.06244 28 9.5383 28 13.6176C28 17.6969 26.5276 21.1486 23.7517 23.6107C21.1931 25.8555 17.7172 27.1107 14 27.1107Z" fill="url(#paint0_radial_299_1542)"/>
<path d="M14 27.1107C7.26551 27.1107 0 22.8866 0 13.6176C0 4.34865 7.26551 0.124512 14 0.124512C17.7414 0.124512 21.1931 1.35555 23.7517 3.60037C26.5276 6.06244 28 9.5383 28 13.6176C28 17.6969 26.5276 21.1486 23.7517 23.6107C21.1931 25.8555 17.7172 27.1107 14 27.1107Z" fill="url(#paint1_linear_299_1542)"/>
<path d="M25.5598 5.59668C26.8463 7.67254 27.5173 10.1443 27.5173 12.8936C27.5173 16.9729 26.0449 20.4246 23.2691 22.8867C20.7105 25.1315 17.2346 26.3867 13.5173 26.3867C9.15804 26.3867 4.58632 24.6125 1.8877 20.8494C4.48494 25.1122 9.37045 27.1108 14.0001 27.1108C17.7173 27.1108 21.1932 25.8556 23.7518 23.6108C26.5277 21.1487 28.0001 17.697 28.0001 13.6177C28.0001 10.5425 27.1625 7.81013 25.5598 5.59668Z" fill="#EB8F00"/>
<path opacity="0.66" d="M0.212402 16.5648C0.453782 15.9348 1.52068 15.9252 2.30999 16.3065C3.83792 17.0476 3.65688 18.6696 4.42206 18.9931C5.18723 19.3165 7.60343 17.3348 10.9996 17.021C11.381 16.9848 13.6331 16.7024 13.8552 17.6486C13.9421 18.0227 13.3048 18.0952 13.3048 18.0952C11.9241 18.6069 10.5193 19.1283 9.28343 19.9369C7.88102 20.8517 6.65481 22.1455 5.0255 22.5269C4.39068 22.6741 3.67378 22.6524 3.15723 22.2589C2.51516 21.7762 2.37275 20.8903 2.13861 20.1203C1.87068 19.2393 1.42895 18.4186 0.844816 17.7065" fill="url(#paint2_linear_299_1542)"/>
<path d="M0.183508 16.5623C-0.255802 17.0957 0.678336 18.5126 0.844887 19.2343C1.24558 20.9771 0.844887 21.4068 0.813508 22.9564C0.786956 24.6606 1.29627 26.0943 2.59489 27.0092C3.81627 27.8757 5.16075 27.9747 7.04351 27.4195C8.92626 26.8643 10.1983 26.5964 10.2949 25.6695C10.348 25.2857 10.1452 24.9092 9.79281 24.745C9.98109 24.6557 10.1307 24.5037 10.2152 24.313C10.6642 23.2412 9.76868 23.0143 9.76868 23.0143C9.89178 22.8671 9.99557 22.7054 10.0776 22.5316C10.3456 21.9981 10.3021 21.274 9.52971 21.0375C9.17488 20.9288 9.07833 20.9868 9.07833 20.9868C9.44523 20.6102 9.88454 20.3085 10.3697 20.1057C11.6683 19.5481 13.2083 19.2102 13.5921 18.8844C14.1497 18.4016 14.1835 17.4723 13.1987 17.1947C11.7842 16.7795 9.18213 17.745 7.59868 18.7516C6.01523 19.7581 4.56213 20.3012 4.07937 20.1178C3.59661 19.9344 3.2973 19.635 3.11385 18.9109C2.77351 17.564 2.5104 17.0426 1.93351 16.5381C1.45558 16.1278 0.521439 16.1519 0.183508 16.5623Z" fill="url(#paint3_radial_299_1542)"/>
<path d="M8.03317 21.7954C8.03317 21.7954 7.67834 21.554 9.09524 20.4219C10.0608 19.6471 10.6183 19.5071 11.7745 19.215C14.1111 18.6429 13.9639 17.9067 13.9639 17.9067C14.0894 18.9905 13.0176 19.2319 12.2332 19.4781C12.1511 19.5023 12.0739 19.5336 11.9918 19.5529C9.30524 20.2385 8.36627 22.0102 8.03317 21.7954Z" fill="url(#paint4_linear_299_1542)"/>
<path d="M10.2344 24.4818C10.4444 24.1342 10.5023 23.7118 10.3913 23.3208C10.3141 23.0915 10.1668 22.8911 9.96649 22.7535C9.99545 22.7149 10.0244 22.6787 10.051 22.6352C10.2658 22.2997 10.2972 21.8773 10.1355 21.5128C9.952 21.2256 9.65269 21.0349 9.31718 20.9915C9.54649 21.1025 9.71787 21.3077 9.78545 21.5539C9.82407 21.8508 9.78062 22.1549 9.66476 22.4301C9.51028 22.8066 9.16511 23.0697 8.762 23.1228C8.17787 23.2387 8.35649 23.4801 8.35649 23.4801C8.40718 23.6732 9.09752 23.4946 9.62131 23.1035C9.76856 23.1808 9.87959 23.3135 9.93269 23.4704C9.98821 23.7142 9.95442 23.9725 9.83856 24.1946C9.67683 24.5494 9.36304 24.8149 8.98649 24.9187C8.46752 25.0611 8.60994 25.2518 8.60994 25.2518C8.60994 25.2518 8.63407 25.6621 9.70097 24.9863C9.82649 25.2277 9.99304 25.7659 9.65993 26.1135C8.53028 27.3035 5.20166 27.7621 5.20166 27.7621C6.89131 27.7621 9.21338 27.1104 9.93269 26.5142C10.2127 26.2946 10.3768 25.9615 10.3792 25.6066C10.4106 25.2759 10.2875 24.9477 10.0486 24.7159C10.1161 24.6435 10.1789 24.5663 10.2344 24.4818Z" fill="url(#paint5_linear_299_1542)"/>
<path d="M17.203 15.6477C17.1257 15.6333 17.0533 15.6019 16.993 15.5512C15.9043 14.6774 14.6057 14.1077 13.2274 13.8953C11.8492 13.6564 10.4347 13.7867 9.124 14.2719C9.05159 14.3008 8.97435 14.3105 8.8971 14.2984C8.72814 14.2695 8.59055 14.1439 8.54469 13.9774C8.49883 13.8133 8.55435 13.6395 8.68469 13.5308C11.2433 11.4067 15.0378 11.7591 17.1619 14.3177C17.3357 14.5277 17.495 14.7498 17.6399 14.9791C17.7316 15.1215 17.7316 15.305 17.6399 15.4474C17.5457 15.5946 17.3743 15.6719 17.203 15.6477Z" fill="#422B0D"/>
<path d="M18.1443 5.94409C19.1557 5.94409 20.0753 6.79857 20.0753 8.21788C20.0753 9.63719 19.1557 10.4893 18.1443 10.4893C17.1329 10.4893 16.2133 9.63478 16.2133 8.21788C16.2133 6.80099 17.1329 5.94409 18.1443 5.94409Z" fill="#422B0D"/>
<path d="M9.7854 3.74524C8.77403 3.74524 7.85437 4.59972 7.85437 6.01662C7.85437 7.43351 8.77403 8.29041 9.7854 8.29041C10.7992 8.29041 11.7164 7.43593 11.7164 6.01662C11.7164 4.59731 10.7992 3.74524 9.7854 3.74524Z" fill="#422B0D"/>
<path d="M8.23823 1.00063C8.12961 0.822005 8.11513 0.599936 8.19961 0.409247C8.29134 0.218557 8.47237 0.088212 8.68237 0.0616603C9.99789 -0.143512 11.34 0.167867 12.431 0.928212C12.8389 1.20821 13.201 1.54614 13.5075 1.93476C13.5269 1.9589 13.5437 1.98545 13.5606 2.01442C13.7248 2.27028 13.6693 2.60821 13.4327 2.7989C13.1793 3.0089 12.8075 3.00166 12.5638 2.77959L12.6651 2.61545L12.542 2.76028C11.4848 1.87683 10.162 1.37235 8.78616 1.33132C8.55685 1.33132 8.34444 1.21063 8.22858 1.01269L8.23823 1.00063Z" fill="#422B0D"/>
<path d="M21.0965 5.31904C21.2751 5.22007 21.3958 5.03904 21.42 4.83628C21.4344 4.62628 21.3451 4.42352 21.1786 4.29559C20.1334 3.46283 18.8058 3.06456 17.4758 3.19007C16.9834 3.23111 16.5006 3.34697 16.042 3.53283L15.9551 3.57387C15.6872 3.71628 15.5689 4.03731 15.68 4.31973C15.7982 4.62628 16.1193 4.80007 16.4403 4.73007V4.53697L16.4741 4.72524C17.8258 4.47421 19.2234 4.68421 20.4424 5.32145C20.6427 5.4349 20.8865 5.4349 21.0869 5.32145L21.0965 5.31904Z" fill="#422B0D"/>
<defs>
<radialGradient id="paint0_radial_299_1542" cx="0" cy="0" r="1" gradientUnits="userSpaceOnUse" gradientTransform="translate(14 13.6176) scale(13.7489 13.7489)">
<stop offset="0.5" stop-color="#FDE030"/>
<stop offset="0.92" stop-color="#F7C02B"/>
<stop offset="1" stop-color="#F4A223"/>
</radialGradient>
<linearGradient id="paint1_linear_299_1542" x1="14" y1="27.1107" x2="14" y2="0.124512" gradientUnits="userSpaceOnUse">
<stop stop-color="#F4A223"/>
<stop offset="0.08" stop-color="#F7C02B"/>
<stop offset="0.54" stop-color="#FDE030" stop-opacity="0"/>
</linearGradient>
<linearGradient id="paint2_linear_299_1542" x1="7.09012" y1="24.12" x2="7.02977" y2="16.0627" gradientUnits="userSpaceOnUse">
<stop stop-color="#BF360C"/>
<stop offset="1" stop-color="#BF360C" stop-opacity="0.2"/>
</linearGradient>
<radialGradient id="paint3_radial_299_1542" cx="0" cy="0" r="1" gradientUnits="userSpaceOnUse" gradientTransform="translate(8.65351 18.5443) scale(14.2921 13.4345)">
<stop offset="0.27" stop-color="#FFF176"/>
<stop offset="1" stop-color="#FFC400"/>
</radialGradient>
<linearGradient id="paint4_linear_299_1542" x1="8.13003" y1="21.277" x2="14.2104" y2="18.2574" gradientUnits="userSpaceOnUse">
<stop offset="0.13" stop-color="#DA6727"/>
<stop offset="1" stop-color="#FFC400"/>
</linearGradient>
<linearGradient id="paint5_linear_299_1542" x1="7.81558" y1="27.2722" x2="7.86627" y2="18.107" gradientUnits="userSpaceOnUse">
<stop offset="0.13" stop-color="#DA6727"/>
<stop offset="1" stop-color="#FFC400"/>
</linearGradient>
</defs>
</svg>
