<svg width="381" height="416" viewBox="0 0 381 416" fill="none" xmlns="http://www.w3.org/2000/svg">
<path d="M17.0399 46.5929C18.2746 46.5929 19.2771 47.469 19.2771 48.548C19.2771 49.6271 18.2746 50.5032 17.0399 50.5032C15.8052 50.5032 14.8027 49.6271 14.8027 48.548C14.8027 47.469 15.8052 46.5929 17.0399 46.5929Z" fill="#FB775C"/>
<path d="M101.178 37.7258L101.048 40.1377L97.3635 42.4922L97.4939 40.0803L101.178 37.7258Z" fill="#F5B9B9"/>
<path d="M98.7882 92.7434L99.6156 95.6218L96.1643 96.9753L95.337 94.0968L98.7882 92.7434Z" fill="#F5B9B9"/>
<path d="M5.07701 131.369L5.79559 134.477L1.90147 136.197L1.18289 133.089L5.07701 131.369Z" fill="#FB775C"/>
<path d="M43.4918 38.698L44.394 41.2396L41.512 42.1801L40.6097 39.6386L43.4918 38.698Z" fill="#F5B9B9"/>
<path d="M137.029 72.0414L137.781 74.5196L134.847 75.6268L134.096 73.1486L137.029 72.0414Z" fill="#F5B9B9"/>
<path d="M48.2698 70.8298L48.9293 73.2414L46.0055 74.4251L45.3459 72.0135L48.2698 70.8298Z" fill="#F5B9B9"/>
<path d="M151.843 36.922L153.385 31.1811L157.605 35.5055L151.843 36.922Z" fill="#ADC3EC"/>
<path d="M32.8258 55.2112L35.6531 48.8507L39.2349 52.5209L32.8258 55.2112Z" fill="#ADC3EC"/>
<path d="M129.656 111.757L131.983 104.86L136.589 109.58L129.656 111.757Z" fill="#ADC3EC"/>
<path d="M171.961 132.321C171.908 133.865 170.836 135.084 169.569 135.039C168.303 134.995 167.318 133.705 167.372 132.16C167.426 130.615 168.498 129.397 169.764 129.441C171.031 129.485 172.015 130.776 171.961 132.321Z" fill="#8AD0DA"/>
<path d="M46.2684 1.20536L46.7955 4.97733L41.737 7.57622L41.2099 3.80425L46.2684 1.20536Z" fill="#FB775C"/>
<path d="M144.639 27.4029L145.747 31.2903L141.077 33.132L139.969 29.2447L144.639 27.4029Z" fill="#FAD36E"/>
<path d="M94.0456 151.417L95.1805 155.432L90.3474 157.349L89.2125 153.334L94.0456 151.417Z" fill="#FB775C"/>
<path d="M21.88 89.1797L22.7648 83.6283L27.4384 88.4173L21.88 89.1797Z" fill="#8AD0DA"/>
<path d="M127.024 156.432L128.442 151.534L131.942 155.121L127.024 156.432Z" fill="#064058"/>
<path d="M99.0442 27.6711L100.666 22.3431L104.396 26.1658L99.0442 27.6711Z" fill="#8AD0DA"/>
<path d="M51.295 134.75L53.1991 129.844L56.2325 132.953L51.295 134.75Z" fill="#ADC3EC"/>
<path d="M111.882 48.3181L114.293 43.1323L117.109 46.0182L111.882 48.3181Z" fill="#FB775C"/>
<path d="M137.276 24.5942C134.543 21.873 132.998 16.7969 132.421 11.0774" stroke="#8AD0DA" stroke-width="10.5924"/>
<path d="M85.5492 126.019C87.8639 128.576 91.8415 129.387 96.0989 129.949" stroke="#F5B9B9" stroke-width="14.4418"/>
<path d="M78.3468 21.4426C72.3591 19.4973 65.4342 20.9083 58.7878 21.6986" stroke="#F5B9B9" stroke-width="9.78693"/>
<path d="M107.472 94.3984C111.351 92.8377 113.824 89.5517 116.206 86.4958" stroke="#8AD0DA" stroke-width="6.20052"/>
<path d="M10.6196 23.0254C11.9801 16.4328 15.0544 13.2282 20.0384 17.6457C23.0613 20.325 24.708 22.7924 25.2763 25.0342" stroke="#8AD0DA" stroke-width="15.6253"/>
<path d="M83.6656 55.8431C90.289 59.952 101.91 62.805 101.395 54.7454" stroke="#8AD0DA" stroke-width="4.45391"/>
<path d="M209.04 116.593C210.275 116.593 211.277 117.469 211.277 118.548C211.277 119.627 210.275 120.503 209.04 120.503C207.805 120.503 206.803 119.627 206.803 118.548C206.803 117.469 207.805 116.593 209.04 116.593Z" fill="#FB775C"/>
<path d="M293.178 107.726L293.048 110.138L289.363 112.492L289.494 110.08L293.178 107.726Z" fill="#F5B9B9"/>
<path d="M290.788 162.743L291.616 165.622L288.164 166.975L287.337 164.097L290.788 162.743Z" fill="#F5B9B9"/>
<path d="M197.077 201.369L197.796 204.477L193.901 206.197L193.183 203.089L197.077 201.369Z" fill="#FB775C"/>
<path d="M235.492 108.698L236.394 111.24L233.512 112.18L232.61 109.639L235.492 108.698Z" fill="#F5B9B9"/>
<path d="M329.029 142.041L329.781 144.52L326.847 145.627L326.096 143.149L329.029 142.041Z" fill="#F5B9B9"/>
<path d="M240.27 140.83L240.929 143.241L238.005 144.425L237.346 142.014L240.27 140.83Z" fill="#F5B9B9"/>
<path d="M343.843 106.922L345.385 101.181L349.605 105.505L343.843 106.922Z" fill="#ADC3EC"/>
<path d="M224.826 125.211L227.653 118.851L231.235 122.521L224.826 125.211Z" fill="#ADC3EC"/>
<path d="M321.656 181.757L323.983 174.86L328.589 179.58L321.656 181.757Z" fill="#ADC3EC"/>
<path d="M363.961 202.321C363.908 203.865 362.836 205.084 361.569 205.039C360.303 204.995 359.318 203.705 359.372 202.16C359.426 200.615 360.498 199.397 361.764 199.441C363.031 199.485 364.015 200.776 363.961 202.321Z" fill="#8AD0DA"/>
<path d="M238.268 71.2054L238.796 74.9773L233.737 77.5762L233.21 73.8043L238.268 71.2054Z" fill="#FB775C"/>
<path d="M336.639 97.4029L337.747 101.29L333.077 103.132L331.969 99.2447L336.639 97.4029Z" fill="#FAD36E"/>
<path d="M286.046 221.417L287.181 225.432L282.347 227.349L281.212 223.334L286.046 221.417Z" fill="#FB775C"/>
<path d="M213.88 159.18L214.765 153.628L219.438 158.417L213.88 159.18Z" fill="#8AD0DA"/>
<path d="M319.024 226.432L320.442 221.534L323.942 225.121L319.024 226.432Z" fill="#064058"/>
<path d="M291.044 97.6711L292.666 92.3431L296.396 96.1658L291.044 97.6711Z" fill="#8AD0DA"/>
<path d="M243.295 204.75L245.199 199.844L248.233 202.953L243.295 204.75Z" fill="#ADC3EC"/>
<path d="M303.882 118.318L306.293 113.132L309.109 116.018L303.882 118.318Z" fill="#FB775C"/>
<path d="M329.276 94.5942C326.543 91.873 324.998 86.7969 324.421 81.0774" stroke="#8AD0DA" stroke-width="10.5924"/>
<path d="M277.549 196.019C279.864 198.576 283.841 199.387 288.099 199.949" stroke="#F5B9B9" stroke-width="14.4418"/>
<path d="M270.347 91.4426C264.359 89.4973 257.434 90.9083 250.788 91.6986" stroke="#F5B9B9" stroke-width="9.78693"/>
<path d="M299.472 164.398C303.351 162.838 305.824 159.552 308.206 156.496" stroke="#8AD0DA" stroke-width="6.20052"/>
<path d="M202.62 93.0254C203.98 86.4328 207.054 83.2282 212.038 87.6457C215.061 90.325 216.708 92.7924 217.276 95.0342" stroke="#8AD0DA" stroke-width="15.6253"/>
<path d="M275.666 125.843C282.289 129.952 293.91 132.805 293.395 124.745" stroke="#8AD0DA" stroke-width="4.45391"/>
<path d="M17.0399 303.593C18.2746 303.593 19.2771 304.469 19.2771 305.548C19.2771 306.627 18.2746 307.503 17.0399 307.503C15.8052 307.503 14.8027 306.627 14.8027 305.548C14.8027 304.469 15.8052 303.593 17.0399 303.593Z" fill="#FB775C"/>
<path d="M101.178 294.726L101.048 297.138L97.3635 299.492L97.4939 297.08L101.178 294.726Z" fill="#F5B9B9"/>
<path d="M98.7882 349.743L99.6156 352.622L96.1643 353.975L95.337 351.097L98.7882 349.743Z" fill="#F5B9B9"/>
<path d="M5.07701 388.369L5.79559 391.477L1.90147 393.197L1.18289 390.089L5.07701 388.369Z" fill="#FB775C"/>
<path d="M43.4918 295.698L44.394 298.24L41.512 299.18L40.6097 296.639L43.4918 295.698Z" fill="#F5B9B9"/>
<path d="M137.029 329.041L137.781 331.52L134.847 332.627L134.096 330.149L137.029 329.041Z" fill="#F5B9B9"/>
<path d="M48.2698 327.83L48.9293 330.241L46.0055 331.425L45.3459 329.014L48.2698 327.83Z" fill="#F5B9B9"/>
<path d="M151.843 293.922L153.385 288.181L157.605 292.505L151.843 293.922Z" fill="#ADC3EC"/>
<path d="M32.8258 312.211L35.6531 305.851L39.2349 309.521L32.8258 312.211Z" fill="#ADC3EC"/>
<path d="M129.656 368.757L131.983 361.86L136.589 366.58L129.656 368.757Z" fill="#ADC3EC"/>
<path d="M171.961 389.321C171.908 390.865 170.836 392.084 169.569 392.039C168.303 391.995 167.318 390.705 167.372 389.16C167.426 387.615 168.498 386.397 169.764 386.441C171.031 386.485 172.015 387.776 171.961 389.321Z" fill="#8AD0DA"/>
<path d="M46.2684 258.205L46.7955 261.977L41.737 264.576L41.2099 260.804L46.2684 258.205Z" fill="#FB775C"/>
<path d="M144.639 284.403L145.747 288.29L141.077 290.132L139.969 286.245L144.639 284.403Z" fill="#FAD36E"/>
<path d="M94.0456 408.417L95.1805 412.432L90.3474 414.349L89.2125 410.334L94.0456 408.417Z" fill="#FB775C"/>
<path d="M21.88 346.18L22.7648 340.628L27.4384 345.417L21.88 346.18Z" fill="#8AD0DA"/>
<path d="M127.024 413.432L128.442 408.534L131.942 412.121L127.024 413.432Z" fill="#064058"/>
<path d="M99.0442 284.671L100.666 279.343L104.396 283.166L99.0442 284.671Z" fill="#8AD0DA"/>
<path d="M51.295 391.75L53.1991 386.844L56.2325 389.953L51.295 391.75Z" fill="#ADC3EC"/>
<path d="M111.882 305.318L114.293 300.132L117.109 303.018L111.882 305.318Z" fill="#FB775C"/>
<path d="M137.276 281.594C134.543 278.873 132.998 273.797 132.421 268.077" stroke="#8AD0DA" stroke-width="10.5924"/>
<path d="M85.5492 383.019C87.8639 385.576 91.8415 386.387 96.0989 386.949" stroke="#F5B9B9" stroke-width="14.4418"/>
<path d="M78.3468 278.443C72.3591 276.497 65.4342 277.908 58.7878 278.699" stroke="#F5B9B9" stroke-width="9.78693"/>
<path d="M107.472 351.398C111.351 349.838 113.824 346.552 116.206 343.496" stroke="#8AD0DA" stroke-width="6.20052"/>
<path d="M10.6196 280.025C11.9801 273.433 15.0544 270.228 20.0384 274.646C23.0613 277.325 24.708 279.792 25.2763 282.034" stroke="#8AD0DA" stroke-width="15.6253"/>
<path d="M83.6656 312.843C90.289 316.952 101.91 319.805 101.395 311.745" stroke="#8AD0DA" stroke-width="4.45391"/>
<g clip-path="url(#clip0_291_3238)">
<path d="M275.175 397H78.5758C73.916 396.995 69.4486 395.143 66.1536 391.851C62.8587 388.558 61.0053 384.095 61 379.439V94.5613C61.0053 89.9053 62.8587 85.4416 66.1536 82.1494C69.4486 78.8571 73.916 77.0053 78.5758 77H275.175C279.835 77.0052 284.302 78.8571 287.597 82.1494C290.892 85.4416 292.746 89.9053 292.751 94.5613V379.439C292.746 384.095 290.892 388.558 287.597 391.851C284.302 395.143 279.835 396.995 275.175 397Z" fill="#3D5649"/>
<path d="M275.521 385.796H78.2297C76.7933 385.794 75.4162 385.223 74.4005 384.208C73.3848 383.193 72.8134 381.817 72.8118 380.382V93.6179C72.8134 92.1827 73.3848 90.8067 74.4005 89.7919C75.4162 88.777 76.7933 88.2061 78.2297 88.2045H275.521C276.957 88.2061 278.335 88.777 279.35 89.7919C280.366 90.8067 280.937 92.1827 280.939 93.6179V380.382C280.937 381.817 280.366 383.193 279.35 384.208C278.335 385.223 276.957 385.794 275.521 385.796Z" fill="white"/>
<path d="M176.128 83.8721C176.953 83.8721 177.623 83.2032 177.623 82.3781C177.623 81.5531 176.953 80.8842 176.128 80.8842C175.302 80.8842 174.633 81.5531 174.633 82.3781C174.633 83.2032 175.302 83.8721 176.128 83.8721Z" fill="white"/>
<path d="M229.501 209.479L222.97 189.934L222.86 189.594L250.364 172.234L251.827 174.203L259.487 184.51L256.687 192.846L249.449 214.383L249.132 215.33L262.535 225.286C263.066 226.265 263.507 227.158 263.866 227.978C267.868 237.087 261.945 236.674 261.945 236.674L234.686 225L229.501 209.479Z" fill="#FFB7B7"/>
<path d="M243.932 213.117L242.73 209.519L236.832 191.857L235.604 188.175L234.572 185.094L248.021 176.603L262.077 167.734L271.199 180.01L268.434 188.241L267.091 192.24L265.013 198.426L260.845 210.83L274.247 220.786C275.262 222.563 276.062 224.453 276.633 226.418C276.866 227.238 276.976 228.087 276.961 228.939C276.982 229.376 276.911 229.812 276.752 230.218C276.593 230.625 276.349 230.993 276.037 231.299C275.725 231.605 275.351 231.841 274.941 231.992C274.531 232.143 274.093 232.205 273.657 232.174L246.399 220.5L243.932 213.117Z" fill="#FFB7B7"/>
<path opacity="0.15" d="M242.653 213.914L241.071 197.253L248.954 192.983L249.469 193.933L242.216 197.863L243.682 213.309L259.798 224.336L259.187 225.228L242.653 213.914Z" fill="black"/>
<path opacity="0.15" d="M259.847 213.356L259.204 214.226L275.467 226.232L276.11 225.363L259.847 213.356Z" fill="black"/>
<path d="M258.878 229.687L177.061 172.219L94.4082 229.152L175.828 263.505L258.878 229.687Z" fill="white"/>
<path d="M200.3 180.908L227.851 153.993L277.124 150.667L338.374 209.107L383 233.508L370.428 270.449L316.565 244.902C305.598 244.097 298.542 240.461 294.08 236.637C292.545 235.324 291.162 233.844 289.956 232.224C288.635 230.507 287.605 228.585 286.905 226.534L265.013 198.426L260.5 192.625L257.576 188.871L248.021 176.603L247.333 175.721L231.1 175.292L222.651 186.374L216.717 194.151C216.578 196.89 215.588 199.518 213.885 201.668C208.563 208.136 197.773 206.873 197.773 206.873L200.3 180.908Z" fill="#FFB7B7"/>
<path d="M94.7235 229.099H94.7824L128.573 243.516L174.806 263.242C174.987 263.318 175.181 263.357 175.377 263.358C175.573 263.359 175.767 263.322 175.948 263.248L223.647 243.475L258.268 229.123L258.321 229.099H258.38C258.926 229.1 259.45 229.317 259.836 229.703C260.223 230.089 260.44 230.612 260.441 231.158V320.565C260.44 321.111 260.223 321.634 259.836 322.02C259.45 322.406 258.926 322.623 258.38 322.624H94.7235C94.1772 322.623 93.6535 322.406 93.2672 322.02C92.881 321.634 92.6637 321.111 92.6631 320.565V231.158C92.6637 230.612 92.881 230.089 93.2672 229.703C93.6535 229.317 94.1772 229.1 94.7235 229.099Z" fill="white"/>
<path d="M94.5765 229.687C94.6366 229.688 94.6952 229.669 94.7445 229.635L176.149 172.989C176.396 172.818 176.691 172.726 176.992 172.727C177.294 172.727 177.588 172.82 177.835 172.992L258.653 229.634C258.717 229.679 258.796 229.696 258.872 229.683C258.949 229.669 259.017 229.626 259.062 229.562C259.107 229.498 259.124 229.419 259.111 229.342C259.098 229.266 259.054 229.197 258.991 229.153L178.173 172.511C177.827 172.269 177.415 172.14 176.993 172.139C176.571 172.138 176.159 172.267 175.812 172.507L94.4081 229.152C94.3566 229.188 94.318 229.239 94.2978 229.298C94.2775 229.358 94.2767 229.422 94.2955 229.481C94.3143 229.541 94.3517 229.593 94.4022 229.63C94.4528 229.667 94.5138 229.688 94.5765 229.687Z" fill="#3F3D56"/>
<path d="M254.034 231.695L176.912 174.585L99.2051 235.759L172.939 279.433L212.97 270.316L254.034 231.695Z" fill="#E6E6E6"/>
<path d="M175.828 263.606C176.117 263.606 176.404 263.55 176.672 263.441L224.236 243.721V181.997C224.235 181.451 224.018 180.928 223.632 180.542C223.245 180.156 222.722 179.939 222.176 179.938H130.928C130.382 179.939 129.858 180.156 129.472 180.542C129.086 180.928 128.868 181.451 128.868 181.997V243.764L128.957 243.803L174.958 263.431C175.233 263.547 175.529 263.606 175.828 263.606Z" fill="white"/>
<path d="M174.9 263.566L128.721 243.861V181.997C128.721 181.412 128.954 180.851 129.368 180.438C129.782 180.024 130.343 179.791 130.928 179.791H222.176C222.761 179.791 223.322 180.024 223.736 180.438C224.15 180.851 224.383 181.412 224.383 181.997V243.819L176.729 263.577C176.142 263.815 175.484 263.811 174.9 263.566ZM223.795 181.997C223.794 181.568 223.623 181.157 223.32 180.853C223.016 180.55 222.605 180.38 222.176 180.379H130.928C130.499 180.38 130.088 180.55 129.784 180.853C129.481 181.157 129.31 181.568 129.309 181.997V243.473L175.13 263.025C175.569 263.209 176.063 263.212 176.504 263.033L223.795 243.427L223.795 181.997Z" fill="#3F3D56"/>
<path d="M93.1047 231.158V320.565C93.1053 321.111 93.3226 321.634 93.7089 322.02C94.0952 322.406 94.6189 322.623 95.1652 322.624H258.822C259.368 322.623 259.892 322.406 260.278 322.02C260.664 321.634 260.882 321.111 260.882 320.565V231.158C260.882 230.612 260.664 230.089 260.278 229.703C259.892 229.317 259.368 229.1 258.822 229.099H258.763L258.71 229.123L224.089 243.475L176.39 263.248C176.209 263.322 176.014 263.359 175.818 263.358C175.622 263.357 175.429 263.318 175.248 263.242L129.015 243.516L95.2241 229.099H95.1652C94.6189 229.1 94.0952 229.317 93.7089 229.703C93.3226 230.089 93.1053 230.612 93.1047 231.158ZM93.6934 231.158C93.6943 230.778 93.8416 230.414 94.1048 230.14C94.3679 229.866 94.7266 229.704 95.1062 229.687L129.015 244.154L175.015 263.783C175.527 263.997 176.103 264.001 176.617 263.792L224.089 244.11L258.878 229.687C259.258 229.703 259.618 229.864 259.882 230.138C260.145 230.412 260.293 230.778 260.294 231.158V320.565C260.293 320.955 260.138 321.329 259.862 321.605C259.586 321.881 259.212 322.036 258.822 322.036H95.1652C94.7749 322.036 94.4006 321.881 94.1247 321.605C93.8487 321.329 93.6936 320.955 93.6934 320.565V231.158Z" fill="#3F3D56"/>
<path opacity="0.1" d="M267.09 192.24L276.912 191.672L316.155 239.995L302.291 237.877L294.079 236.637C292.545 235.324 291.162 233.844 289.955 232.224L280.831 229.517L276.632 226.418C276.896 227.425 267.09 192.24 267.09 192.24Z" fill="black"/>
<path d="M204.31 190.702C204.591 188.895 205.577 187.272 207.052 186.188C208.527 185.105 210.371 184.649 212.181 184.919L222.651 186.374L235.604 188.175L245.614 189.565L257.576 188.871L268.434 188.24L274.849 187.871L317.504 240.396L280.831 229.517L276.633 226.418L258.249 212.851C258.249 212.851 252.225 211.742 242.73 209.519C241.317 209.184 225.333 205.176 217.824 202.996C216.369 202.573 215.064 202.13 213.885 201.668C205.513 198.376 203.838 194.155 204.31 190.702Z" fill="#FFB7B7"/>
<path opacity="0.15" d="M210.306 197.264C210.343 197.26 214.08 196.794 215.675 194.06C216.75 192.218 216.642 189.737 215.354 186.687L216.351 186.267C217.78 189.651 217.866 192.459 216.606 194.612C214.732 197.814 210.604 198.318 210.429 198.338L210.306 197.264Z" fill="black"/>
<path opacity="0.15" d="M248.092 189.962L248.09 188.881L267.33 188.851L247.046 176.18L247.62 175.262L271.092 189.925L248.092 189.962Z" fill="black"/>
<path d="M124.105 114.316L134.83 136.127C134.97 136.415 134.991 136.747 134.888 137.05C134.785 137.353 134.566 137.603 134.279 137.745L110.809 149.285C110.521 149.425 110.189 149.446 109.886 149.343C109.583 149.24 109.333 149.021 109.191 148.734L98.4667 126.922C98.3255 126.634 98.3043 126.302 98.4076 125.999C98.5109 125.696 98.7304 125.446 99.0178 125.304L122.488 113.764C122.775 113.623 123.107 113.602 123.41 113.705C123.714 113.809 123.964 114.028 124.105 114.316Z" fill="#97FF7D"/>
<path d="M124.255 142.809L120.939 144.44C120.657 144.583 120.33 144.608 120.029 144.51C119.728 144.412 119.479 144.198 119.335 143.917L108.211 121.291C108.075 121.005 108.059 120.677 108.164 120.379C108.27 120.081 108.49 119.838 108.775 119.701L112.092 118.071C112.374 117.928 112.701 117.903 113.002 118.001C113.302 118.099 113.552 118.312 113.695 118.594L124.82 141.22C124.956 141.506 124.972 141.833 124.866 142.131C124.76 142.429 124.541 142.673 124.255 142.809Z" fill="#3D5649"/>
<path d="M106.713 113.043C109.142 113.68 110.283 117.359 110.283 117.359C110.283 117.359 107.484 120.005 105.054 119.368C102.624 118.73 101.484 115.051 101.484 115.051C101.484 115.051 104.283 112.406 106.713 113.043Z" fill="#3D5649"/>
<path d="M114.416 114.413C113.787 116.845 110.112 117.997 110.112 117.997C110.112 117.997 107.457 115.206 108.087 112.774C108.716 110.342 112.392 109.19 112.392 109.19C112.392 109.19 115.046 111.981 114.416 114.413Z" fill="#3D5649"/>
<path opacity="0.2" d="M124.105 114.316L125.911 117.988L100.219 130.486L98.4667 126.922C98.3255 126.634 98.3043 126.302 98.4076 125.999C98.5109 125.696 98.7304 125.446 99.0178 125.304L122.488 113.765C122.775 113.623 123.107 113.602 123.41 113.705C123.714 113.809 123.964 114.028 124.105 114.316Z" fill="black"/>
<path d="M127.963 115.191C127.927 115.374 127.849 115.547 127.736 115.695C127.622 115.843 127.475 115.962 127.307 116.044L98.6761 129.973C98.5335 130.042 98.3785 130.083 98.2202 130.092C98.0618 130.102 97.9031 130.08 97.7531 130.028C97.6031 129.976 97.4648 129.895 97.3461 129.79C97.2274 129.685 97.1306 129.557 97.0612 129.415L95.5066 126.219C95.3664 125.931 95.3464 125.599 95.451 125.296C95.5556 124.994 95.7762 124.745 96.0643 124.605L96.0646 124.604L124.695 110.676C124.838 110.606 124.993 110.566 125.151 110.556C125.31 110.547 125.468 110.568 125.618 110.62C125.768 110.672 125.907 110.753 126.025 110.858C126.144 110.963 126.241 111.091 126.31 111.234L127.865 114.429C127.98 114.665 128.015 114.933 127.963 115.191Z" fill="#97FF7D"/>
<path d="M107.124 118.908L109.924 124.66L115.419 121.985L112.62 116.234L107.124 118.908Z" fill="#3D5649"/>
</g>
<defs>
<clipPath id="clip0_291_3238">
<rect width="322" height="320" fill="white" transform="translate(61 77)"/>
</clipPath>
</defs>
</svg>
