<svg width="120" height="120" viewBox="0 0 120 120" fill="none" xmlns="http://www.w3.org/2000/svg">
<path d="M70.9452 67.08C67.5366 68.373 64.0824 69.4992 60.6522 70.6428C60.2176 70.1264 59.747 69.6414 59.244 69.1914C58.9362 68.9712 58.4088 69.2346 58.1004 69.3666C57.8808 69.4548 57.309 69.5868 57.2646 69.8946C57.2046 70.5594 58.7646 69.8508 58.9362 69.8064C59.2554 69.7614 60.7134 71.7636 65.6664 77.2842C65.7215 77.3442 65.7967 77.3819 65.8778 77.3902C65.9588 77.3985 66.0401 77.3768 66.1062 77.3292C67.6015 76.7129 69.1472 76.2271 70.7262 75.8772C71.166 75.7896 70.9902 75.1296 70.5504 75.2172C68.9982 75.5386 67.4809 76.0101 66.0198 76.6248C65.6676 76.185 65.2716 75.7896 64.92 75.3492C65.7558 75.0852 69.7146 73.722 70.1106 73.5456C70.1524 73.5158 70.1863 73.4762 70.2092 73.4303C70.2321 73.3844 70.2434 73.3335 70.242 73.2822C70.3226 71.2889 70.693 69.318 71.3418 67.4316C71.3483 67.3798 71.3422 67.3272 71.3238 67.2783C71.3054 67.2294 71.2754 67.1858 71.2363 67.1511C71.1972 67.1165 71.1503 67.0919 71.0995 67.0795C71.0488 67.0671 70.9958 67.0673 70.9452 67.08Z" fill="#191919"/>
<path d="M67.602 78.2514C67.2018 77.4114 66.1068 77.9412 66.1068 78.6912C66.1051 78.8033 66.1275 78.9144 66.1723 79.0171C66.2172 79.1199 66.2835 79.2118 66.3668 79.2868C66.4501 79.3617 66.5485 79.418 66.6554 79.4518C66.7623 79.4856 66.8751 79.4961 66.9864 79.4826C67.124 79.4708 67.2563 79.4238 67.3706 79.3462C67.4849 79.2687 67.5774 79.163 67.6391 79.0395C67.7009 78.9159 67.7299 78.7786 67.7234 78.6406C67.7169 78.5026 67.6751 78.3686 67.602 78.2514Z" fill="#191919"/>
<path d="M71.121 77.2398C70.7202 76.3998 69.6258 76.9302 69.6258 77.6796C69.6242 77.7916 69.6466 77.9027 69.6915 78.0054C69.7364 78.1081 69.8027 78.2 69.886 78.2749C69.9693 78.3499 70.0677 78.4061 70.1745 78.44C70.2813 78.4738 70.3942 78.4844 70.5054 78.471C70.643 78.4592 70.7753 78.4122 70.8896 78.3346C71.0039 78.257 71.0964 78.1514 71.1581 78.0279C71.2199 77.9043 71.2489 77.767 71.2424 77.629C71.2359 77.491 71.1941 77.357 71.121 77.2398Z" fill="#191919"/>
<path d="M49.611 63.3396C46.044 63.3396 41.7078 65.0616 38.658 67.1196C38.2182 67.4274 37.7784 67.7796 37.338 68.1312C36.8935 68.4434 36.5066 68.8303 36.1944 69.2748C36.0624 69.4506 36.3264 69.6264 36.5022 69.5826C36.9109 69.3437 37.2941 69.0637 37.6458 68.7468C38.7652 67.8831 39.9573 67.1179 41.2086 66.4596C44.1486 64.911 46.7202 64.3596 49.6986 63.864C49.92 63.735 49.875 63.3396 49.611 63.3396Z" fill="#191919"/>
<path d="M51.1068 67.2984C49.7418 67.0542 47.1468 67.5984 45.96 67.914C43.8093 68.5191 41.7835 69.5023 39.9774 70.8174C39.5794 71.1347 39.2114 71.488 38.8782 71.8728C38.7462 72.0048 38.922 72.3126 39.0978 72.1812C39.45 71.9172 39.8454 71.7414 40.1538 71.5212C40.5054 71.3016 40.8138 71.0814 41.1654 70.8612C45.9246 67.8864 49.5654 68.0664 51.0654 67.782C51.3264 67.74 51.3276 67.338 51.1068 67.2984Z" fill="#191919"/>
<path d="M50.3148 72.2688C51.4756 71.8963 52.6682 71.6314 53.8776 71.4774C54.1416 71.433 54.1416 71.0376 53.8776 71.0814C51.7842 71.1318 49.7213 71.595 47.8074 72.4446C40.674 75.5262 38.7972 81.2208 32.8074 83.7498C31.7898 84.2019 30.7051 84.4843 29.5962 84.5856C28.5001 84.6212 27.4044 84.5026 26.3412 84.2334C26.29 84.2167 26.2344 84.2197 26.1852 84.2416C26.136 84.2635 26.0967 84.3029 26.0748 84.3522C26.0529 84.4014 26.0501 84.457 26.0668 84.5082C26.0836 84.5594 26.1187 84.6026 26.1654 84.6294C27.7932 85.641 30.0804 85.4208 31.8396 84.8496C36.108 83.5218 38.9196 80.0712 41.8248 77.3274C44.1639 74.928 47.0912 73.1838 50.3148 72.2688Z" fill="#191919"/>
<path d="M114.008 54.5856C113.759 53.7093 113.436 52.8558 113.041 52.0344C112.909 51.8148 112.909 51.507 112.601 51.4626C112.337 51.4188 112.073 51.6384 112.205 51.9024C112.997 53.7942 113.613 55.8174 114.229 57.7968C115.026 60.1782 115.629 62.6202 116.033 65.0988C116.171 65.8681 116.2 66.6529 116.12 67.4304C115.62 70.0152 111.926 70.5456 108.51 71.6532C106.53 72.2688 99.3612 74.5122 97.7778 74.9964C91.7598 56.04 91.251 54.0294 90.5634 50.8032C90.4314 50.1432 89.64 49.1754 89.2878 48.6036C89.1558 48.3396 87.2646 45.3486 87.3528 45.2604C87.3528 45.2604 87.2646 46.7118 87.2646 46.9758C87.1764 49.7034 88.056 52.3866 88.7154 55.026C89.1558 56.7852 94.5666 76.0956 94.7424 76.0518C86.253 78.6918 57.2208 87.357 55.5054 87.7518C53.4378 88.236 50.4468 88.368 48.951 86.5644C46.7958 83.9688 45.8718 80.8458 44.4204 77.8986C44.3322 77.7228 44.0688 77.8548 44.1126 78.0306C45.2124 81.2418 46.356 85.9926 49.4352 87.8838C52.6182 89.9532 57.0552 88.1046 60.3 87.1362C65.4 85.6848 88.4958 78.7788 94.92 76.7562C95.0082 77.0202 94.9644 77.196 95.3154 77.3724C95.8002 77.6358 98.3946 76.8444 98.0874 75.7884C98.538 75.5916 112.187 71.3646 112.251 71.3484C113.527 70.9524 114.935 70.5126 115.903 69.501C117.501 67.902 116.993 65.7456 116.606 63.5184C116.006 61.2 115.445 58.7814 114.008 54.5856Z" fill="#56BE88"/>
<path d="M30.2562 46.272C23.3136 48.072 21.09 43.8234 16.752 43.281C12.312 42.765 6.6894 46.0272 4.7436 54.366C4.26746 56.5407 3.94407 58.7461 3.7758 60.966C2.0538 77.0382 3.4374 95.4744 5.8872 105.086C6.4081 107.303 7.20618 109.446 8.2626 111.464C9.186 113.224 10.638 114.631 12.6612 114.939C14.587 115.2 16.5394 114.712 18.1158 113.575C21.2208 111.37 22.9686 107.306 24.6702 103.634C29.5086 93.603 29.9904 90.9282 30.2562 90.1296C30.9318 89.0046 30.7872 87.7296 30.3882 86.4786C30.3678 86.4113 30.3237 86.3536 30.2642 86.3161C30.2046 86.2786 30.1336 86.2639 30.064 86.2746C29.9945 86.2854 29.9312 86.3208 29.8857 86.3745C29.8402 86.4282 29.8156 86.4964 29.8164 86.5668C29.9484 87.8424 30.3444 89.6868 28.893 90.438C26.3082 91.782 23.5458 83.4408 22.8666 80.6286C22.8222 80.5404 23.8782 79.221 23.9664 79.0446C26.8002 74.3784 27.2808 64.5384 47.2356 60.2646C47.4558 60.2208 47.3676 59.8686 47.148 59.9124C35.7438 61.4478 28.7148 67.1016 25.6374 73.7682C24.8255 75.8344 23.855 77.8348 22.7346 79.7514C22.6347 79.0645 22.6495 78.3658 22.7784 77.6838C22.8785 77.3071 23.0662 76.9593 23.3261 76.6689C23.586 76.3784 23.9109 76.1534 24.2742 76.0122C24.45 75.9678 24.45 75.6162 24.2298 75.6162C23.7807 75.6721 23.3553 75.8489 22.999 76.1278C22.6426 76.4066 22.3687 76.7771 22.2066 77.1996C20.931 78.4314 19.7436 79.8396 18.5994 81.1596C14.7072 85.6506 10.2558 91.767 9.2742 97.6548C9.07558 98.7577 9.03116 99.8829 9.1422 100.998C9.1422 101.218 9.4944 101.218 9.45 100.998C9.2178 94.563 14.5554 86.9382 18.7314 82.038C19.7874 80.8056 20.799 79.5744 21.9426 78.4308C21.8766 79.9536 23.283 85.3854 25.3296 88.5042C26.0778 89.6478 27.3534 91.6242 28.9806 91.0992C29.1126 91.0554 29.2446 90.9672 29.3766 90.9234C27.222 95.9508 29.2902 92.1834 22.9104 105.616C21.1104 109.304 19.215 113.06 15.2124 114.061C13.3212 114.501 11.3418 114.149 10.0218 112.697C7.6248 109.981 6.2502 103.976 5.6232 100.425C3.3114 86.6808 3.1632 69.4968 4.8756 57.405C5.4474 53.358 6.6348 49.1352 9.8022 46.365C11.192 45.0976 12.9177 44.2577 14.7726 43.9458C20.2596 43.1616 23.1768 49.3818 30.3882 46.497C30.4764 46.4922 30.432 46.227 30.2562 46.272Z" fill="#191919"/>
<path d="M47.6316 24.894C48.6432 24.1902 49.9632 24.9384 50.9316 25.422C51.6798 25.7736 53.3952 26.6976 54.0108 25.686C54.0552 25.5978 54.0108 25.422 53.8788 25.422C53.4841 25.3852 53.0877 25.3706 52.6914 25.3782C51.0714 25.122 48.999 23.0538 47.325 24.5424C47.1036 24.6744 47.4114 25.0698 47.6316 24.894Z" fill="#191919"/>
<path d="M42.5292 30.7884C42.5664 29.9895 42.6694 29.195 42.837 28.413C43.4088 26.082 45.2124 24.102 46.797 22.3428C46.82 22.3233 46.8388 22.2992 46.8521 22.2721C46.8654 22.2449 46.8729 22.2153 46.8741 22.1852C46.8754 22.155 46.8703 22.1249 46.8594 22.0967C46.8484 22.0686 46.8317 22.043 46.8103 22.0217C46.789 22.0003 46.7634 21.9836 46.7353 21.9726C46.7071 21.9616 46.677 21.9566 46.6468 21.9579C46.6167 21.9591 46.5871 21.9666 46.5599 21.9799C46.5328 21.9932 46.5087 22.0119 46.4892 22.035C45.3768 23.0568 44.3742 24.1919 43.4976 25.422C42.6022 26.6757 42.0696 28.152 41.9586 29.6886C41.972 30.1025 42.0771 30.5083 42.2664 30.8766C42.309 31.0086 42.5292 30.9204 42.5292 30.7884Z" fill="#191919"/>
<path d="M41.4294 34.9674C42.4938 35.4851 43.6942 35.6543 44.8602 35.451C45.9162 35.2314 47.3238 34.4832 47.6316 33.384C47.6422 33.3499 47.6414 33.3133 47.6295 33.2797C47.6176 33.246 47.5951 33.2171 47.5654 33.1973C47.5358 33.1774 47.5005 33.1677 47.4648 33.1696C47.4292 33.1715 47.3951 33.1848 47.3676 33.2076C46.4004 33.6474 45.339 35.7006 41.6076 34.5276C41.34 34.3956 41.163 34.8396 41.4294 34.9674Z" fill="#191919"/>
<path d="M108.554 49.3074C107.322 49.5964 106.127 50.0244 104.991 50.583C104.728 50.715 104.903 51.1548 105.211 51.0666C107.103 50.4066 109.082 49.6152 111.151 49.7466C113.57 49.8786 114.495 52.0338 115.022 54.0576C115.11 54.4092 115.726 54.3654 115.682 53.9694C115.565 52.4388 114.874 51.009 113.747 49.9668C112.294 48.8676 110.312 48.9432 108.554 49.3074Z" fill="#191919"/>
<path d="M111.766 46.4484C111.531 46.4484 107.361 44.9934 103.452 47.7684C103.386 47.8114 103.34 47.8779 103.322 47.9542C103.304 48.0305 103.316 48.1107 103.355 48.1785C103.395 48.2462 103.459 48.2962 103.534 48.3181C103.609 48.3401 103.69 48.3323 103.76 48.2964C105.738 47.0164 108.12 46.5149 110.446 46.8888C110.846 46.9556 111.243 47.0438 111.634 47.1528C111.966 47.3072 112.324 47.3966 112.69 47.4162C112.732 47.4021 112.772 47.3788 112.805 47.3479C112.838 47.317 112.863 47.2792 112.88 47.2373C112.897 47.1954 112.904 47.1503 112.902 47.1052C112.899 47.0602 112.887 47.0162 112.865 46.9764C112.569 46.6814 112.181 46.4954 111.766 46.4484Z" fill="#191919"/>
<path d="M109.786 43.413C109.627 43.3786 109.465 43.3639 109.303 43.3692C107.964 43.1907 106.604 43.2858 105.303 43.6487C104.002 44.0116 102.789 44.6349 101.737 45.4806C101.516 45.6564 101.824 46.0962 102.044 45.9204C103.16 45.1258 104.425 44.5643 105.762 44.2695C107.1 43.9748 108.484 43.9529 109.83 44.205C110.094 44.2488 110.446 44.4246 110.666 44.2926C110.711 44.2826 110.754 44.2616 110.79 44.2314C110.825 44.2011 110.853 44.1627 110.87 44.1193C110.888 44.0759 110.894 44.0289 110.889 43.9825C110.884 43.936 110.868 43.8915 110.842 43.8528C110.666 43.545 110.226 43.4568 109.786 43.413Z" fill="#191919"/>
<path d="M109.126 40.422C106.16 39.7548 103.085 40.2762 100.813 42.3132C100.549 42.5772 100.945 42.9288 101.209 42.7092C102.143 41.9908 103.213 41.4686 104.355 41.1738C105.496 40.8791 106.685 40.8178 107.851 40.9938C109.129 41.1354 109.565 41.5986 110.05 41.4774C110.09 41.4669 110.128 41.4474 110.16 41.4204C110.191 41.3935 110.216 41.3597 110.233 41.3217C110.25 41.2837 110.258 41.2423 110.257 41.2007C110.256 41.1591 110.245 41.1183 110.226 41.0814C109.95 40.7372 109.56 40.5032 109.126 40.422Z" fill="#191919"/>
<path d="M93.2028 98.7936C95.0736 98.4765 96.8482 97.7396 98.3934 96.6384C101.605 94.395 103.892 91.0518 105.784 87.7086C109.234 81.6378 111.393 75.0942 112.294 72.753C112.306 72.6974 112.298 72.6391 112.272 72.5886C112.245 72.5382 112.202 72.4988 112.149 72.4776C112.096 72.4563 112.037 72.4547 111.983 72.4728C111.929 72.491 111.883 72.5277 111.854 72.5766C108.236 80.7156 103.681 95.0766 94.4346 97.782C89.5776 99.21 85.2258 96.0312 81.678 92.4156C79.4048 90.0638 77.3984 87.4681 75.6954 84.6756C75.5085 84.413 75.3468 84.1334 75.2124 83.8404C74.9922 83.4444 74.3322 83.796 74.5956 84.192C78.3072 90.609 86.0058 99.8214 93.2028 98.7936Z" fill="#191919"/>
<path d="M90.2118 82.1664C90.9362 81.337 91.731 80.5717 92.5872 79.8792C93.3348 79.2192 94.4346 78.6912 94.9626 77.8554C95.0502 77.7672 94.9182 77.6358 94.8306 77.6796C93.8184 77.8116 92.895 78.7794 92.1468 79.395C91.3181 80.136 90.553 80.9453 89.8596 81.8142C89.64 82.08 89.991 82.4298 90.2118 82.1664Z" fill="#191919"/>
<path d="M64.92 29.601C64.6998 29.6886 64.9638 26.2578 65.0076 26.0376C65.3598 23.8386 66.3714 21.771 66.4152 19.5276C66.4932 16.1136 64.4076 13.1322 60.8292 12.8856C59.9934 10.0266 58.2774 7.3872 55.5492 6.0672C49.4292 3.0618 38.883 6.55319 35.403 14.601C33.8634 18.12 33.6 22.2552 29.9922 24.4104C27.573 25.8618 25.1094 26.1258 22.4262 26.5656C22.3386 26.5656 22.3386 26.7414 22.4262 26.7414C23.3747 26.9911 24.3677 27.0213 25.3296 26.8296C27.1407 26.5531 28.8762 25.9096 30.4296 24.9384C28.4038 26.8992 25.7253 28.0427 22.908 28.1496C22.8566 28.1529 22.8065 28.1678 22.7616 28.193C22.7167 28.2183 22.678 28.2533 22.6485 28.2956C22.6189 28.3378 22.5992 28.3861 22.5909 28.437C22.5825 28.4878 22.5857 28.5399 22.6002 28.5894C23.0556 31.074 24.183 33.3863 25.86 35.2752C28.9392 38.8386 33.6456 40.0698 38.0004 38.1348C38.0463 38.1107 38.086 38.0763 38.1164 38.0343C38.1468 37.9923 38.167 37.9438 38.1756 37.8927C38.1841 37.8416 38.1807 37.7891 38.1656 37.7395C38.1505 37.6899 38.1242 37.6445 38.0886 37.6068C36.5928 35.979 36.417 33.516 36.3732 31.4046C36.4565 27.875 37.3122 24.4064 38.88 21.243C39.9558 22.1394 41.5164 21.663 42.0036 23.0028C42.0912 23.2224 42.2232 23.5746 42.531 23.3988C42.8388 23.223 42.6192 22.6068 42.4872 22.3428C42.3014 21.9589 41.9915 21.649 41.6076 21.4632C40.86 21.0672 39.804 21.243 39.1884 20.5836C39.408 20.1438 39.672 19.7034 39.8922 19.2636C44.8122 20.0508 48.3216 18.7464 52.3404 15.8328C53.2644 15.129 54.1878 14.4252 55.068 13.6776C54.9798 13.7214 54.7596 15.261 54.1878 16.1406C53.0022 18.0759 51.2737 19.6199 49.2174 20.5806C48.9096 20.7126 49.0854 21.1962 49.3932 21.1962C52.3688 21.1795 55.2797 20.326 57.7932 18.7332C57.8814 18.6888 57.969 18.6012 58.0572 18.5568C56.8254 20.1846 55.4172 21.5922 53.3502 22.0758C53.2846 22.0896 53.2258 22.1256 53.1836 22.1776C53.1414 22.2297 53.1184 22.2947 53.1184 22.3617C53.1184 22.4287 53.1414 22.4937 53.1836 22.5457C53.2258 22.5978 53.2846 22.6338 53.3502 22.6476C56.0334 22.9998 57.9252 21.1524 58.4532 20.7564C57.5094 25.4196 52.56 28.5738 52.56 33.6918C53.9238 32.9562 63.8568 29.9232 64.92 29.601Z" fill="#191919"/>
<path d="M66.6342 104.38C62.3306 105.22 57.984 105.822 53.6142 106.184C40.0668 107.304 30.2598 105.629 26.2542 105.304C26.2242 105.307 26.1961 105.32 26.1742 105.341C26.1523 105.362 26.1378 105.389 26.1328 105.419C26.1279 105.449 26.1328 105.48 26.1468 105.506C26.1608 105.533 26.1831 105.555 26.2104 105.568C32.7612 107.18 47.1714 108.194 61.3104 106.052C64.8834 105.472 68.841 104.843 70.9878 103.984C71.1192 103.94 71.1642 103.676 71.0322 103.632C71.0558 103.634 71.0796 103.631 71.1019 103.623C71.1243 103.615 71.1445 103.602 71.1613 103.585C71.178 103.569 71.1908 103.548 71.1988 103.526C71.2068 103.504 71.2097 103.48 71.2074 103.456C71.4858 101.929 71.4768 100.616 71.9994 97.6062C72.5654 94.5658 73.285 91.5559 74.1552 88.5882C74.1984 88.4124 73.935 88.3686 73.8912 88.5C73.539 89.424 73.1436 90.348 72.8352 91.3158C71.8938 94.2708 70.5876 100.496 70.812 103.412C70.8203 103.461 70.8408 103.507 70.8715 103.545C70.9023 103.583 70.9423 103.613 70.9878 103.632C69.5209 103.78 68.0662 104.03 66.6342 104.38Z" fill="#191919"/>
<path d="M24.318 71.04C24.018 71.883 23.7042 72.4056 23.9664 72.7992C24.0102 72.8436 24.054 72.8868 24.0984 72.8868C24.2298 72.9312 24.318 72.7992 24.4062 72.7116C25.3896 71.3496 25.6578 68.9484 26.3412 66.9048C26.4294 66.7284 28.2768 64.5294 28.9812 63.5178C29.1522 63.2622 29.0412 62.9718 28.8054 63.21C28.0127 63.9582 27.2637 64.7513 26.562 65.5854C27.0451 63.1238 27.1784 60.6064 26.958 58.1076C26.9142 57.7554 26.694 57.8436 26.6502 58.1514C26.5414 62.5421 25.7548 66.8896 24.318 71.04Z" fill="#191919"/>
<path d="M84.0096 40.7736C83.8012 39.8775 83.4601 39.0176 82.9974 38.2224C82.602 37.6068 81.1056 37.167 80.4462 36.9468C79.1541 36.4699 77.8108 36.1451 76.4436 35.979C75.696 35.8914 74.7276 35.8032 74.112 36.4188C73.3644 37.1226 73.5846 38.5302 73.6722 39.4542C73.8042 41.6538 74.4642 45.0846 76.2672 46.5342C79.215 48.8658 82.7772 43.983 83.9652 41.7396C84.0697 41.428 84.0851 41.0935 84.0096 40.7736Z" fill="#56BE88"/>
<path d="M86.649 37.2546C86.7756 39.4986 88.848 40.686 90.7398 41.3454C92.1474 41.7852 95.9304 43.0614 96.81 41.2578C97.338 40.158 97.0302 38.5302 96.8538 37.3428C96.5898 35.4954 96.0618 32.7678 94.5222 31.4922C92.7222 30.0408 90.432 31.6242 89.112 32.988C88.1004 34.0434 86.5572 35.6274 86.649 37.2546Z" fill="#56BE88"/>
<path d="M87.396 40.422C86.6568 39.5477 86.1434 38.5055 85.9008 37.3866C85.9008 37.2984 85.8564 37.2108 85.8564 37.1226C85.725 37.1226 83.5698 37.7826 83.6574 37.9146C83.6574 37.9578 83.6376 37.5546 84.7128 41.2146C84.9768 41.1258 87.396 40.422 87.396 40.422Z" fill="#56BE88"/>
<path d="M85.6368 36.507C84.4494 33.3396 82.206 26.127 82.074 25.686C88.89 23.6598 96.6714 21.2646 99.054 20.7594C103.7 19.8744 103.803 24.714 106.18 31.5804C103.189 32.2404 100.24 33.252 97.2942 34.2204C97.338 34.308 97.338 34.3962 97.3824 34.4838C97.6167 35.184 97.7788 35.9064 97.866 36.6396C102.778 35.1282 105.346 34.6542 106.972 34.176C107.025 34.389 107.997 37.4862 108.335 38.8386C108.368 38.9335 108.436 39.0121 108.525 39.0582C108.614 39.1043 108.718 39.1142 108.814 39.0859C108.91 39.0576 108.992 38.9933 109.042 38.9064C109.092 38.8194 109.107 38.7165 109.083 38.619C108.643 37.0794 108.203 35.5398 107.763 33.9564C108.005 33.9094 108.241 33.8356 108.467 33.7362C108.73 33.5604 108.29 31.4052 108.247 31.3608C108.247 31.2732 108.203 31.1412 108.071 31.185C107.7 31.2369 107.333 31.3105 106.971 31.4052L104.991 25.0704C104.463 23.3994 103.803 21.4638 102.263 20.4504C100.463 19.2624 98.217 20.142 96.3234 20.67C93.948 21.33 84.3588 24.1452 81.8958 24.8928C81.8514 24.6732 81.8076 23.8812 81.2796 24.057C80.664 24.2772 77.7606 25.0686 77.5848 25.3326C77.4966 25.4646 77.7168 26.1684 77.8044 26.1246C75.4734 26.8284 36.2364 39.453 35.3562 39.8046C34.0362 40.2888 32.7162 40.8606 31.9692 42.1362C30.738 44.1594 31.3092 46.5762 32.0574 48.6462C32.6865 50.3481 33.2298 52.0805 33.6852 53.8368C33.6408 53.8368 33.0252 53.9688 33.2892 54.3648C33.6852 55.0248 33.8172 55.7724 34.1688 56.4324C34.389 56.8278 34.8288 56.4762 34.9608 56.4324C35.0928 56.784 36.588 60.171 37.248 61.5324C37.3362 61.752 37.6878 61.5762 37.5558 61.3566C36.9402 59.949 35.6202 56.5176 35.5326 56.2566C49.1424 51.4236 59.8428 48.2688 73.6698 44.3802C73.5378 44.0724 72.966 41.7402 72.966 41.6526C71.298 41.931 33.0534 54.051 34.566 53.5734C34.434 53.2656 33.2022 49.7904 32.6742 48.3828C32.2224 47.2947 31.9835 46.1301 31.9704 44.952C31.9549 43.916 32.2974 42.9064 32.94 42.0936C33.7398 41.1606 34.833 40.7736 37.2072 39.9378C39.6264 39.102 77.676 27.0054 78.1596 26.8296C80.886 32.0268 82.0944 34.5984 83.394 37.3428C83.7066 37.2384 85.1772 36.507 85.6368 36.507Z" fill="#56BE88"/>
<path d="M86.6928 41.4336C86.1142 41.661 85.5075 41.809 84.8892 41.8734C83.2614 45.2166 82.1616 48.8676 80.754 52.2984C80.4462 53.0904 82.9536 52.0788 83.5692 51.111C83.7069 52.3888 84.0486 53.6362 84.5814 54.8058C84.7134 55.1136 85.0212 55.6854 85.197 55.0698C85.8366 52.1106 86.7438 40.6998 86.6928 41.4336Z" fill="#56BE88"/>
<path d="M87.3522 41.1696C87.0981 41.8891 87.0375 42.6627 87.1764 43.413C89.112 46.6242 91.3554 49.7472 93.1164 53.0904C93.2484 53.3544 93.7764 53.2662 93.7326 52.9146C93.6882 52.6062 93.5562 49.1754 93.3804 49.1316C94.3493 49.4242 95.3708 49.4992 96.372 49.3512C96.4324 49.332 96.4872 49.2982 96.5314 49.2527C96.5755 49.2073 96.6078 49.1516 96.6252 49.0906C96.6426 49.0296 96.6446 48.9653 96.6311 48.9034C96.6176 48.8414 96.589 48.7838 96.5478 48.7356C93.9522 46.536 91.5768 44.0286 88.938 41.9172C88.674 41.6976 87.8382 40.8618 87.354 41.1696H87.3522Z" fill="#56BE88"/>
</svg>
