<svg width="21" height="19" viewBox="0 0 21 19" fill="none" xmlns="http://www.w3.org/2000/svg">
<g clip-path="url(#clip0_406_173)">
<path d="M1.99759 11.5269C3.03085 10.4526 4.09977 9.41642 5.20528 8.42398C5.74218 7.94201 6.2874 7.4702 6.84049 7.00874C7.41331 6.53082 7.8428 6.18864 8.48689 5.69333C8.98016 5.31401 9.27589 4.61011 8.90781 4.01218C8.59285 3.50056 7.83163 3.16451 7.30255 3.57137C4.83984 5.46521 2.50679 7.5345 0.338333 9.78924C-0.0978424 10.2428 -0.12747 11.0791 0.338333 11.5269C0.808088 11.9786 1.53215 12.0109 1.99759 11.5269Z" fill="#D3D3D3"/>
<path d="M19.0011 0.350391C13.0904 5.69177 7.33037 11.2141 1.72922 16.9096C0.643835 18.0133 2.30399 19.7501 3.38847 18.6473C8.98963 12.9518 14.7496 7.42947 20.6604 2.0881C21.1404 1.65433 21.0852 0.795358 20.6604 0.350396C20.1844 -0.148065 19.4823 -0.0844557 19.0011 0.350391Z" fill="#D3D3D3"/>
</g>
<defs>
<clipPath id="clip0_406_173">
<rect width="21" height="19" fill="white"/>
</clipPath>
</defs>
</svg>
