<svg width="208" height="171" viewBox="0 0 208 171" fill="none" xmlns="http://www.w3.org/2000/svg">
<g clip-path="url(#clip0_277_4497)">
<path d="M106.679 40.5927H105.742V14.8811C105.742 10.9344 104.175 7.14931 101.385 4.35857C98.5951 1.56782 94.8111 1.94115e-09 90.8656 1.94115e-09H36.4069C34.4533 -3.15611e-05 32.5188 0.384847 30.7139 1.13266C28.9089 1.88048 27.2689 2.97658 25.8875 4.35839C24.506 5.74021 23.4102 7.38067 22.6625 9.18611C21.9149 10.9916 21.53 12.9266 21.53 14.8808V155.937C21.53 157.891 21.9148 159.826 22.6624 161.631C23.41 163.437 24.5059 165.077 25.8873 166.459C27.2687 167.841 28.9087 168.937 30.7136 169.685C32.5186 170.433 34.4531 170.818 36.4067 170.818H90.8649C94.8104 170.818 98.5944 169.25 101.384 166.459C104.174 163.668 105.742 159.883 105.742 155.937V58.8946H106.679L106.679 40.5927Z" fill="#3F3D56"/>
<path d="M102.708 13.8844V156.933C102.708 159.925 101.519 162.795 99.4044 164.911C97.2894 167.027 94.4207 168.216 91.4293 168.218H35.8534C32.8607 168.218 29.9905 167.029 27.8739 164.913C25.7573 162.797 24.5678 159.926 24.5669 156.933V13.8844C24.5678 10.891 25.7573 8.0205 27.8737 5.9043C29.9902 3.7881 32.8604 2.59947 35.8529 2.59985H42.5946C42.2635 3.41415 42.1375 4.29731 42.2276 5.17172C42.3178 6.04612 42.6212 6.885 43.1113 7.61462C43.6015 8.34424 44.2633 8.94226 45.0386 9.35612C45.8139 9.76998 46.6789 9.987 47.5577 9.98811H79.2425C80.1212 9.987 80.9863 9.76998 81.7616 9.35612C82.5369 8.94226 83.1987 8.34424 83.6888 7.61462C84.1789 6.885 84.4824 6.04612 84.5725 5.17172C84.6626 4.29731 84.5366 3.41415 84.2056 2.59985H91.4271C94.4185 2.60036 97.2873 3.78913 99.4028 5.90481C101.518 8.02049 102.707 10.8899 102.708 13.8822V13.8844Z" fill="white"/>
<path d="M89.8068 137.529H38.481C36.635 137.527 34.8652 136.792 33.5599 135.487C32.2547 134.181 31.5204 132.411 31.5183 130.564V58.3391C31.5183 40.8029 45.7808 26.5362 63.3118 26.5362H89.8069C91.6529 26.5383 93.4226 27.2727 94.7279 28.5784C96.0331 29.884 96.7673 31.6543 96.7694 33.5007V130.564C96.7674 132.411 96.0331 134.181 94.7278 135.487C93.4225 136.792 91.6528 137.527 89.8068 137.529Z" fill="#E6E6E6"/>
<path d="M35.4064 154.915C37.4472 154.915 39.1016 153.26 39.1016 151.218C39.1016 149.177 37.4472 147.522 35.4064 147.522C33.3657 147.522 31.7113 149.177 31.7113 151.218C31.7113 153.26 33.3657 154.915 35.4064 154.915Z" fill="#E6E6E6"/>
<path d="M92.9541 154.915C94.9949 154.915 96.6492 153.26 96.6492 151.218C96.6492 149.177 94.9949 147.522 92.9541 147.522C90.9133 147.522 89.259 149.177 89.259 151.218C89.259 153.26 90.9133 154.915 92.9541 154.915Z" fill="#E6E6E6"/>
<path d="M93.455 137.387L91.1642 139.884L80.4457 132.234L83.8266 128.549L93.455 137.387Z" fill="#FFB6B6"/>
<path d="M96.4589 138.971L89.0729 147.022L88.9711 146.929C88.1402 146.166 87.6463 145.105 87.5979 143.978C87.5494 142.851 87.9505 141.751 88.7129 140.92L88.713 140.919L88.9467 138.425L92.5794 136.705L93.2242 136.002L96.4589 138.971Z" fill="#2F2E41"/>
<path d="M94.9526 165.253L91.5647 165.252L89.9529 152.181L94.9533 152.181L94.9526 165.253Z" fill="#FFB6B6"/>
<path d="M95.8167 168.538L84.8924 168.537V168.399C84.8925 167.271 85.3405 166.189 86.1379 165.392C86.9353 164.594 88.0168 164.146 89.1445 164.146H89.1447L91.1402 162.631L94.8633 164.146L95.8169 164.146L95.8167 168.538Z" fill="#2F2E41"/>
<path d="M78.5918 99.2637C78.5918 99.2637 57.8948 119.253 70.9791 125.44H75.0232C75.0232 125.44 76.2385 121.121 79.0207 117.479C79.4028 116.979 80.8342 117.08 81.2317 116.593C83.6588 113.617 86.2901 111.061 88.1074 111.162L89.2968 124.964L88.71 129.009C88.3406 131.556 88.4378 134.149 88.997 136.66L88.5832 152.806L95.84 152.81C95.84 152.81 96.1331 149.026 96.3783 144.293C96.444 143.025 96.9892 142.142 97.0414 140.793C97.1667 137.557 96.7516 133.791 96.6716 131.151L102.143 102.119L78.5918 99.2637Z" fill="#2F2E41"/>
<path d="M88.1512 56.9116L84.7765 61.4274L76.688 66.1862L81.4455 78.5602L81.626 87.7671L81.1832 88.8777L81.6834 90.6966C81.6834 90.6966 81.4526 92.8252 80.2221 94.4057C78.0708 97.1688 74.7856 100.172 78.115 100.929C83.3487 102.119 101.905 104.736 102.856 102.595C103.185 101.854 103.144 98.7215 102.95 94.9405C102.914 94.2334 102.133 93.4643 102.087 92.7232C102.053 92.1672 102.756 91.6443 102.718 91.0804C102.293 84.7966 101.667 78.3226 101.667 78.3226L103.529 60.9975L96.0803 59.0747L95.2441 56.9423L88.1512 56.9116Z" fill="#87FFB0"/>
<path d="M69.9854 124.252L71.0916 125.651C71.0916 125.651 81.266 132.771 81.6154 133.436L83.2233 134.958L87.1139 130.798L85.0907 128.262C83.4715 126.232 81.3796 124.629 78.9979 123.596L75.8972 120.844L69.9854 124.252Z" fill="#2F2E41"/>
<path d="M76.4502 104.268L78.303 86.329L78.7921 78.9457L73.6062 78.0078C73.6062 78.0078 72.8296 83.0834 72.1502 86.062C71.4798 89.0012 73.0433 103.874 73.0848 104.267C72.7039 104.607 72.4354 105.056 72.3148 105.552C72.1942 106.049 72.2272 106.57 72.4093 107.048C72.5915 107.525 72.9143 107.936 73.335 108.226C73.7557 108.516 74.2545 108.672 74.7654 108.672C75.2763 108.672 75.7753 108.517 76.1963 108.228C76.6172 107.938 76.9404 107.527 77.123 107.05C77.3056 106.573 77.3391 106.051 77.219 105.555C77.0988 105.058 76.8308 104.609 76.4502 104.268Z" fill="#FFB9B9"/>
<path d="M69.7499 89.3427L78.7023 91.6159L78.6401 89.1024L79.3196 88.3813L80.6771 81.2678L82.6249 77.1007L82.1186 62.8507L77.1716 65.4752L77.1656 65.4798C76.3017 66.4304 75.5792 67.5005 75.0204 68.6572C73.1555 72.4495 71.364 80.8027 70.4262 85.6543C70.394 85.7561 70.3319 85.8457 70.2478 85.9115C69.7826 86.3387 69.4791 86.9133 69.3883 87.5385C69.2976 88.1636 69.4253 88.8009 69.7499 89.3427Z" fill="#87FFB0"/>
<path d="M122.914 93.9228C122.914 93.9228 112.015 82.4293 111.913 82.2126C111.152 76.4296 108.962 73.8787 108.634 74.1556L102.983 76.1141C102.983 76.1141 104.664 81.4389 105.802 84.6017C106.889 87.624 119.424 95.0059 119.633 95.3703C119.408 95.8663 119.34 96.4188 119.436 96.9548C119.532 97.4907 119.788 97.9848 120.172 98.3718C120.555 98.7587 121.046 99.0202 121.581 99.1216C122.116 99.2231 122.669 99.1598 123.167 98.94C123.665 98.7203 124.084 98.3544 124.37 97.8909C124.656 97.4274 124.794 96.8881 124.766 96.3443C124.739 95.8005 124.547 95.2778 124.216 94.8454C123.886 94.413 123.431 94.0913 122.914 93.9228Z" fill="#FFB9B9"/>
<path d="M98.4191 61.3929C98.4191 61.3929 103.967 58.6732 106.119 64.0149C107.298 67.0305 110.315 74.3493 111.819 78.8546C111.829 78.8833 111.842 78.9105 111.86 78.9354C112.262 79.5331 112.479 80.2361 112.483 80.9565C112.483 81.009 112.488 81.0613 112.5 81.1126C112.5 81.1126 106.403 82.3006 104.59 85.4972L103.871 84.7164L103.743 84.1694L98.4831 70.1306L98.4191 61.3929Z" fill="#87FFB0"/>
<path d="M189.018 83.1943H124.066C123.488 83.1937 122.933 82.9634 122.524 82.5541C122.114 82.1447 121.884 81.5897 121.884 81.0108V71.4953C121.884 70.9163 122.114 70.3613 122.524 69.952C122.933 69.5426 123.488 69.3124 124.066 69.3117H189.018C189.597 69.3124 190.152 69.5426 190.561 69.952C190.971 70.3613 191.201 70.9163 191.201 71.4953V81.0108C191.201 81.5897 190.971 82.1447 190.561 82.5541C190.152 82.9634 189.597 83.1937 189.018 83.1943Z" fill="#E6E6E6"/>
<path d="M182.708 81.7215H125.539C124.96 81.7208 124.406 81.4906 123.996 81.0812C123.587 80.6719 123.357 80.1169 123.356 79.5379V72.9693C123.357 72.3904 123.587 71.8353 123.996 71.426C124.406 71.0166 124.96 70.7864 125.539 70.7857H187.546C188.125 70.7864 188.68 71.0166 189.089 71.426C189.498 71.8353 189.728 72.3904 189.729 72.9693V74.698C189.727 76.5601 188.986 78.3454 187.67 79.6621C186.354 80.9788 184.569 81.7194 182.708 81.7215Z" fill="white"/>
<path d="M162.988 75.5761H136.882C136.733 75.5761 136.59 75.5168 136.484 75.4112C136.378 75.3055 136.319 75.1623 136.319 75.013C136.319 74.8636 136.378 74.7204 136.484 74.6148C136.59 74.5092 136.733 74.4498 136.882 74.4498H162.988C163.137 74.4498 163.28 74.5092 163.386 74.6148C163.491 74.7204 163.551 74.8636 163.551 75.013C163.551 75.1623 163.491 75.3055 163.386 75.4112C163.28 75.5168 163.137 75.5761 162.988 75.5761Z" fill="#87FFB0"/>
<path d="M176.203 77.8793H136.882C136.733 77.8793 136.59 77.82 136.484 77.7144C136.378 77.6088 136.319 77.4655 136.319 77.3162C136.319 77.1668 136.378 77.0236 136.484 76.918C136.59 76.8124 136.733 76.7531 136.882 76.7531H176.203C176.352 76.7531 176.495 76.8124 176.601 76.918C176.707 77.0236 176.766 77.1668 176.766 77.3162C176.766 77.4655 176.707 77.6088 176.601 77.7144C176.495 77.82 176.352 77.8793 176.203 77.8793Z" fill="#E6E6E6"/>
<path d="M189.018 103.383H124.066C123.488 103.383 122.933 103.152 122.524 102.743C122.114 102.334 121.884 101.779 121.884 101.2V91.6843C121.884 91.1054 122.114 90.5504 122.524 90.1411C122.933 89.7317 123.488 89.5015 124.066 89.5008H189.018C189.597 89.5015 190.152 89.7317 190.561 90.1411C190.971 90.5504 191.201 91.1054 191.201 91.6843V101.2C191.201 101.779 190.971 102.334 190.561 102.743C190.152 103.152 189.597 103.383 189.018 103.383Z" fill="#E6E6E6"/>
<path d="M182.708 101.911H125.539C124.96 101.91 124.406 101.68 123.996 101.27C123.587 100.861 123.357 100.306 123.356 99.7271V93.1584C123.357 92.5795 123.587 92.0245 123.996 91.6151C124.406 91.2058 124.96 90.9755 125.539 90.9749H187.546C188.125 90.9755 188.68 91.2058 189.089 91.6151C189.498 92.0245 189.728 92.5795 189.729 93.1584V94.8872C189.727 96.7493 188.986 98.5345 187.67 99.8512C186.354 101.168 184.569 101.909 182.708 101.911Z" fill="white"/>
<path d="M162.988 95.7652H136.882C136.808 95.7652 136.735 95.7507 136.667 95.7224C136.598 95.6941 136.536 95.6526 136.484 95.6003C136.432 95.548 136.39 95.4859 136.362 95.4176C136.334 95.3493 136.319 95.2761 136.319 95.2021C136.319 95.1282 136.334 95.0549 136.362 94.9866C136.39 94.9183 136.432 94.8562 136.484 94.8039C136.536 94.7516 136.598 94.7101 136.667 94.6818C136.735 94.6535 136.808 94.639 136.882 94.639H162.988C163.137 94.639 163.28 94.6983 163.386 94.8039C163.491 94.9095 163.551 95.0528 163.551 95.2021C163.551 95.3515 163.491 95.4947 163.386 95.6003C163.28 95.7059 163.137 95.7652 162.988 95.7652Z" fill="#87FFB0"/>
<path d="M176.203 98.0685H136.882C136.808 98.0685 136.735 98.0539 136.667 98.0256C136.598 97.9973 136.536 97.9558 136.484 97.9035C136.432 97.8512 136.39 97.7892 136.362 97.7208C136.334 97.6525 136.319 97.5793 136.319 97.5053C136.319 97.4314 136.334 97.3582 136.362 97.2898C136.39 97.2215 136.432 97.1594 136.484 97.1071C136.536 97.0548 136.598 97.0134 136.667 96.9851C136.735 96.9568 136.808 96.9422 136.882 96.9422H176.203C176.352 96.9422 176.495 97.0015 176.601 97.1071C176.707 97.2127 176.766 97.356 176.766 97.5053C176.766 97.6547 176.707 97.7979 176.601 97.9035C176.495 98.0091 176.352 98.0685 176.203 98.0685Z" fill="#E6E6E6"/>
<path d="M189.018 123.573H124.066C123.488 123.572 122.933 123.342 122.524 122.932C122.114 122.523 121.884 121.968 121.884 121.389V111.873C121.884 111.295 122.114 110.74 122.524 110.33C122.933 109.921 123.488 109.691 124.066 109.69H189.018C189.597 109.691 190.152 109.921 190.561 110.33C190.971 110.74 191.201 111.295 191.201 111.873V121.389C191.201 121.968 190.971 122.523 190.561 122.932C190.152 123.342 189.597 123.572 189.018 123.573Z" fill="#E6E6E6"/>
<path d="M182.708 122.1H125.539C124.96 122.099 124.406 121.869 123.996 121.459C123.587 121.05 123.357 120.495 123.356 119.916V113.347C123.357 112.769 123.587 112.214 123.996 111.804C124.406 111.395 124.96 111.165 125.539 111.164H187.546C188.125 111.165 188.68 111.395 189.089 111.804C189.498 112.214 189.728 112.769 189.729 113.347V115.076C189.727 116.938 188.986 118.724 187.67 120.04C186.354 121.357 184.569 122.098 182.708 122.1Z" fill="white"/>
<path d="M162.988 115.954H136.882C136.733 115.954 136.59 115.895 136.484 115.789C136.378 115.684 136.319 115.541 136.319 115.391C136.319 115.242 136.378 115.099 136.484 114.993C136.59 114.887 136.733 114.828 136.882 114.828H162.988C163.137 114.828 163.28 114.887 163.386 114.993C163.491 115.099 163.551 115.242 163.551 115.391C163.551 115.541 163.491 115.684 163.386 115.789C163.28 115.895 163.137 115.954 162.988 115.954Z" fill="#87FFB0"/>
<path d="M176.203 118.258H136.882C136.733 118.258 136.59 118.198 136.484 118.093C136.378 117.987 136.319 117.844 136.319 117.694C136.319 117.545 136.378 117.402 136.484 117.296C136.59 117.191 136.733 117.131 136.882 117.131H176.203C176.352 117.131 176.495 117.191 176.601 117.296C176.707 117.402 176.766 117.545 176.766 117.694C176.766 117.844 176.707 117.987 176.601 118.093C176.495 118.198 176.352 118.258 176.203 118.258Z" fill="#E6E6E6"/>
<path d="M91.7072 55.4619C95.459 55.4619 98.5003 52.4197 98.5003 48.6669C98.5003 44.914 95.459 41.8718 91.7072 41.8718C87.9555 41.8718 84.9142 44.914 84.9142 48.6669C84.9142 52.4197 87.9555 55.4619 91.7072 55.4619Z" fill="#FFB9B9"/>
<path d="M86.7125 53.037C86.631 53.0374 86.55 53.0243 86.4728 52.9984C86.1696 52.8654 85.9162 52.6401 85.7486 52.3545C84.5791 50.6718 84.0143 48.4284 84.0703 45.6865C84.094 44.5265 84.2252 43.0434 85.0373 41.8611C85.7203 40.867 87.1018 40.0781 88.3893 40.4741C88.3747 40.2166 88.4318 39.9601 88.5544 39.7331C88.677 39.5062 88.8603 39.3178 89.0837 39.189C89.5713 38.8902 90.1584 38.8352 90.6762 38.7865C91.9838 38.6639 93.3356 38.5372 94.6597 38.7882C96.1443 39.0699 97.3582 39.8353 97.9901 40.8882L98.0031 40.9213L98.1315 41.5452C98.1488 41.6291 98.184 41.7083 98.2348 41.7772C98.2855 41.8462 98.3506 41.9033 98.4256 41.9446C98.5005 41.986 98.5836 42.0106 98.669 42.0168C98.7544 42.023 98.8401 42.0106 98.9202 41.9804C99.0076 41.9475 99.1022 41.9379 99.1945 41.9527C99.2867 41.9675 99.3736 42.0061 99.4464 42.0647C99.5192 42.1233 99.5755 42.1998 99.6097 42.2868C99.6439 42.3738 99.6548 42.4682 99.6414 42.5607L99.6055 42.8089L99.979 42.739C100.072 42.7216 100.169 42.7293 100.258 42.7612C100.348 42.7932 100.427 42.8483 100.489 42.921C100.55 42.9936 100.591 43.0813 100.607 43.1749C100.624 43.2685 100.615 43.3649 100.582 43.454L100.476 43.7394C100.554 43.7399 100.63 43.7563 100.701 43.7874C100.772 43.8185 100.835 43.8639 100.888 43.9205C100.963 44.0018 101.011 44.1051 101.023 44.2153C101.036 44.3255 101.013 44.4369 100.958 44.5332C100.541 45.2471 99.9487 45.843 99.2376 46.2647C98.849 46.4986 98.4241 46.6658 97.9803 46.7593C95.1007 47.381 92.1316 47.4703 89.2198 47.0228C89.3922 47.5973 89.4586 48.1984 89.4157 48.7966C89.3225 49.5447 88.8834 50.162 88.297 50.3693C88.1635 50.4127 88.0269 50.4457 87.8882 50.4679C87.7557 50.4885 87.6251 50.5203 87.4979 50.5628C87.3094 50.6321 87.1424 50.7499 87.0139 50.9043C86.8854 51.0587 86.7998 51.2443 86.7659 51.4424C86.732 51.6404 86.7509 51.8439 86.8207 52.0323C86.8905 52.2207 87.0088 52.3874 87.1635 52.5155L87.4527 52.2141L87.3586 52.5973C87.339 52.6719 87.3039 52.7415 87.2556 52.8016C87.2074 52.8618 87.147 52.9111 87.0784 52.9463C86.9658 53.0064 86.8401 53.0376 86.7125 53.037Z" fill="#2F2E41"/>
<path d="M181.212 155.638L181.486 149.456C184.352 147.925 187.547 147.115 190.796 147.099C186.325 150.756 186.883 157.804 183.852 162.722C182.895 164.248 181.607 165.539 180.083 166.5C178.559 167.461 176.838 168.066 175.049 168.271L171.307 170.563C170.794 167.7 170.907 164.759 171.639 161.944C172.371 159.129 173.704 156.506 175.547 154.256C176.594 153.004 177.793 151.889 179.118 150.937C180.014 153.301 181.212 155.638 181.212 155.638Z" fill="#F2F2F2"/>
<path d="M208 170.714C208 170.752 207.993 170.789 207.978 170.824C207.964 170.858 207.943 170.89 207.916 170.916C207.89 170.943 207.858 170.964 207.824 170.978C207.789 170.993 207.752 171 207.714 171H0.285929C0.210096 171 0.137372 170.97 0.0837499 170.916C0.0301278 170.863 0 170.79 0 170.714C0 170.638 0.0301278 170.565 0.0837499 170.512C0.137372 170.458 0.210096 170.428 0.285929 170.428H207.714C207.752 170.428 207.789 170.435 207.824 170.45C207.858 170.464 207.89 170.485 207.916 170.511C207.943 170.538 207.964 170.57 207.978 170.604C207.993 170.639 208 170.676 208 170.714Z" fill="#CCCCCC"/>
</g>
<defs>
<clipPath id="clip0_277_4497">
<rect width="208" height="171" fill="white"/>
</clipPath>
</defs>
</svg>
