<svg width="289" height="285" viewBox="0 0 289 285" fill="none" xmlns="http://www.w3.org/2000/svg">
<path d="M273.779 93.1753H15.4874C11.452 93.1798 7.58317 94.7871 4.7297 97.6444C1.87623 100.502 0.271154 104.376 0.266602 108.417V269.445C0.27119 273.486 1.87626 277.36 4.72973 280.217C7.58319 283.075 11.452 284.682 15.4874 284.687H273.779C277.814 284.682 281.683 283.075 284.537 280.218C287.39 277.36 288.995 273.486 289 269.445V108.417C288.996 104.376 287.39 100.502 284.537 97.6444C281.684 94.787 277.815 93.1798 273.779 93.1753Z" fill="#ECFFEA"/>
<path d="M273.779 93.1753H15.4874C11.452 93.1798 7.58317 94.7871 4.7297 97.6444C1.87623 100.502 0.271154 104.376 0.266602 108.417V269.445C0.27119 273.486 1.87626 277.36 4.72973 280.217C7.58319 283.075 11.452 284.682 15.4874 284.687H273.779C277.814 284.682 281.683 283.075 284.537 280.218C287.39 277.36 288.996 273.486 289 269.445V108.417C288.996 104.376 287.39 100.502 284.537 97.6444C281.684 94.787 277.815 93.1798 273.779 93.1753ZM278.774 208.844C278.713 225.238 272.237 240.954 260.736 252.622C249.235 264.289 233.626 270.979 217.257 271.255C191.048 271.596 231.758 271.73 200.148 271.73C127.868 271.73 52.5004 271.038 24.3797 270.589C20.6799 270.513 17.1565 268.991 14.5618 266.349C11.9671 263.707 10.5067 260.154 10.4924 256.448V108.429C10.4938 107.102 11.0201 105.829 11.956 104.89C12.8918 103.95 14.1612 103.42 15.4864 103.416H273.769C275.094 103.417 276.364 103.944 277.302 104.881C278.24 105.818 278.769 107.089 278.774 108.415V208.844Z" fill="#134028"/>
<path d="M241.984 0.449954H45.1927C43.4516 0.452449 41.7536 0.992999 40.3306 1.99778C38.9077 3.00256 37.8291 4.42262 37.2421 6.06408L6.84901 91.4488C6.3954 92.7233 6.25397 94.0881 6.43657 95.4287C6.61918 96.7693 7.12049 98.0464 7.89838 99.1526C8.67628 100.259 9.708 101.162 10.9069 101.786C12.1057 102.41 13.4367 102.737 14.7878 102.739L278.717 103.208H278.729C280.126 103.208 281.501 102.861 282.73 102.197C283.96 101.534 285.006 100.576 285.775 99.4084C286.544 98.2407 287.012 96.9002 287.136 95.5071C287.26 94.1141 287.037 92.7119 286.487 91.4263L249.742 5.57254C249.092 4.05142 248.011 2.75495 246.631 1.84422C245.252 0.933497 243.636 0.44866 241.984 0.449954Z" fill="#134028"/>
<path d="M287.17 93.2805C287.169 94.4254 286.937 95.5583 286.487 96.6108L249.744 162.698C249.09 164.216 248.007 165.509 246.628 166.419C245.249 167.328 243.635 167.813 241.984 167.815H45.1958C43.454 167.814 41.7551 167.274 40.331 166.27C38.9069 165.266 37.8268 163.846 37.2383 162.204L6.851 96.5879C6.47853 95.5426 6.31546 94.4339 6.37111 93.3254C6.42676 92.2169 6.70004 91.1302 7.17532 90.1275C7.65061 89.1248 8.31857 88.2258 9.14105 87.4817C9.96353 86.7377 10.9244 86.1633 11.9687 85.7913C12.8721 85.4646 13.8252 85.2974 14.7857 85.2971L47.0257 85.2363L60.1844 85.2135L233.336 84.9093L246.502 84.8865L278.719 84.8257H278.727C280.966 84.8261 283.113 85.717 284.697 87.3025C286.28 88.888 287.17 91.0383 287.17 93.2805Z" fill="#134028"/>
</svg>
