<svg width="164" height="164" viewBox="0 0 164 164" fill="none" xmlns="http://www.w3.org/2000/svg">
<path d="M24.2779 71.0049H74.3627C74.6612 71.0049 74.9568 71.0637 75.2326 71.1779C75.5084 71.2921 75.7589 71.4596 75.97 71.6706C76.1811 71.8817 76.3485 72.1323 76.4628 72.4081C76.577 72.6838 76.6358 72.9794 76.6358 73.2779V101.507C76.6358 101.806 76.577 102.102 76.4628 102.377C76.3485 102.653 76.1811 102.904 75.97 103.115C75.7589 103.326 75.5084 103.493 75.2326 103.607C74.9568 103.722 74.6612 103.78 74.3627 103.78H24.2763C23.6735 103.78 23.0953 103.541 22.669 103.115C22.2427 102.688 22.0033 102.11 22.0033 101.507V73.2779C22.0033 72.6751 22.2427 72.0969 22.669 71.6706C23.0953 71.2444 23.6735 71.0049 24.2763 71.0049H24.2779Z" fill="#6DD627"/>
<path d="M76.6406 81.9285H22V73.2779C22 72.6751 22.2395 72.0969 22.6658 71.6706C23.092 71.2444 23.6702 71.0049 24.273 71.0049H74.3643C74.9672 71.0049 75.5454 71.2444 75.9716 71.6706C76.3979 72.0969 76.6374 72.6751 76.6374 73.2779L76.6406 81.9285Z" fill="#9CEB60"/>
<path d="M71.1756 92.8553V81.9285C69.7265 81.9285 68.3366 81.3529 67.3118 80.3284C66.287 79.3039 65.711 77.9142 65.7105 76.4651H32.9301C32.9292 77.913 32.354 79.3014 31.3306 80.3256C30.3073 81.3499 28.9194 81.9264 27.4715 81.9285V92.8553C28.9209 92.8553 30.311 93.4311 31.3359 94.456C32.3608 95.4809 32.9366 96.8709 32.9366 98.3204H65.7122C65.7122 96.8712 66.2877 95.4814 67.3123 94.4566C68.3368 93.4317 69.7265 92.8558 71.1756 92.8553Z" fill="#C8FFA1"/>
<path d="M65.7105 76.4651H32.9301C32.9292 77.913 32.354 79.3014 31.3306 80.3256C30.3073 81.3499 28.9194 81.9264 27.4715 81.9285H71.1756C69.7265 81.9285 68.3366 81.3529 67.3118 80.3284C66.287 79.3039 65.711 77.9142 65.7105 76.4651Z" fill="#E4FFD1"/>
<path d="M54.7837 87.3919C54.7841 88.4728 54.4638 89.5296 53.8635 90.4285C53.2632 91.3275 52.4098 92.0282 51.4112 92.4421C50.4126 92.856 49.3137 92.9644 48.2535 92.7537C47.1933 92.543 46.2194 92.0227 45.4549 91.2584C44.6904 90.4942 44.1698 89.5204 43.9588 88.4603C43.7478 87.4001 43.8559 86.3012 44.2695 85.3025C44.6831 84.3038 45.3836 83.4502 46.2823 82.8496C47.1811 82.249 48.2377 81.9285 49.3187 81.9285C50.0364 81.928 50.7471 82.0691 51.4102 82.3434C52.0733 82.6178 52.6759 83.0202 53.1834 83.5276C53.691 84.035 54.0935 84.6374 54.3681 85.3005C54.6427 85.9636 54.7839 86.6742 54.7837 87.3919Z" fill="#9CEB60"/>
<path d="M54.7837 87.3919C54.7841 88.4728 54.4638 89.5296 53.8635 90.4285C53.2632 91.3275 52.4098 92.0282 51.4112 92.4421C50.4126 92.856 49.3137 92.9644 48.2535 92.7537C47.1933 92.543 46.2194 92.0227 45.4549 91.2584C44.6904 90.4942 44.1698 89.5204 43.9588 88.4603C43.7478 87.4001 43.8559 86.3012 44.2695 85.3025C44.6831 84.3038 45.3836 83.4502 46.2823 82.8496C47.1811 82.249 48.2377 81.9285 49.3187 81.9285C50.0364 81.928 50.7471 82.0691 51.4102 82.3434C52.0733 82.6178 52.6759 83.0202 53.1834 83.5276C53.691 84.035 54.0935 84.6374 54.3681 85.3005C54.6427 85.9636 54.7839 86.6742 54.7837 87.3919Z" stroke="#45413C" stroke-width="1.2" stroke-linecap="round" stroke-linejoin="round"/>
<path d="M71.1756 92.8553V81.9285C69.7265 81.9285 68.3366 81.3529 67.3118 80.3284C66.287 79.3039 65.711 77.9142 65.7105 76.4651H32.9301C32.9292 77.913 32.354 79.3014 31.3306 80.3256C30.3073 81.3499 28.9194 81.9264 27.4715 81.9285V92.8553C28.9209 92.8553 30.311 93.4311 31.3359 94.456C32.3608 95.4809 32.9366 96.8709 32.9366 98.3204H65.7122C65.7122 96.8712 66.2877 95.4814 67.3123 94.4566C68.3368 93.4317 69.7265 92.8558 71.1756 92.8553Z" stroke="#45413C" stroke-width="1.2" stroke-linecap="round" stroke-linejoin="round"/>
<path d="M35.6009 71H41.264" stroke="#45413C" stroke-width="1.2" stroke-linecap="round" stroke-linejoin="round"/>
<path d="M41.264 103.784H35.6009" stroke="#45413C" stroke-width="1.2" stroke-linecap="round" stroke-linejoin="round"/>
<path d="M46.5407 71H52.9312" stroke="#45413C" stroke-width="1.2" stroke-linecap="round" stroke-linejoin="round"/>
<path d="M52.9312 103.784H46.5407" stroke="#45413C" stroke-width="1.2" stroke-linecap="round" stroke-linejoin="round"/>
<path d="M58.5245 71.0049H74.3643C74.9672 71.0049 75.5454 71.2444 75.9716 71.6706C76.3979 72.0969 76.6374 72.6751 76.6374 73.2779V101.509C76.6374 102.112 76.3979 102.69 75.9716 103.116C75.5454 103.543 74.9672 103.782 74.3643 103.782H58.5245" stroke="#45413C" stroke-width="1.2" stroke-linecap="round" stroke-linejoin="round"/>
<path d="M40.1129 71.0049H24.273C23.6702 71.0049 23.092 71.2444 22.6658 71.6706C22.2395 72.0969 22 72.6751 22 73.2779V101.509C22 102.112 22.2395 102.69 22.6658 103.116C23.092 103.543 23.6702 103.782 24.273 103.782H40.1129" stroke="#45413C" stroke-width="1.2" stroke-linecap="round" stroke-linejoin="round"/>
<path opacity="0.15" d="M26.895 138.373C26.895 138.965 28.4164 139.533 31.1245 139.952C33.8326 140.37 37.5055 140.605 41.3353 140.605C45.1651 140.605 48.8381 140.37 51.5461 139.952C54.2542 139.533 55.7756 138.965 55.7756 138.373C55.7756 137.781 54.2542 137.213 51.5461 136.794C48.8381 136.376 45.1651 136.141 41.3353 136.141C37.5055 136.141 33.8326 136.376 31.1245 136.794C28.4164 137.213 26.895 137.781 26.895 138.373Z" fill="#45413C"/>
<path d="M59.7891 122.811C59.888 123.433 59.8634 124.068 59.7167 124.68C59.5701 125.293 59.3042 125.87 58.9344 126.38C58.5646 126.889 58.098 127.321 57.5613 127.65C57.0246 127.979 56.4283 128.2 55.8065 128.299L22.6639 133.564C22.0421 133.663 21.4068 133.638 20.7945 133.491C20.1822 133.345 19.6047 133.079 19.0951 132.709C18.5855 132.339 18.1538 131.873 17.8245 131.336C17.4953 130.799 17.2749 130.203 17.1761 129.581L6.64384 63.2945C6.44468 62.0389 6.75236 60.7556 7.49923 59.7268C8.24609 58.698 9.37098 58.0079 10.6265 57.8084L43.7707 52.5414C45.0263 52.3422 46.3096 52.6499 47.3384 53.3968C48.3672 54.1436 49.0573 55.2685 49.2569 56.5241L59.7891 122.811Z" fill="white" stroke="#45413C" stroke-width="1.2" stroke-linecap="round" stroke-linejoin="round"/>
<path d="M7.39633 68.0301L50.009 61.2596L59.0363 118.076L16.4236 124.846L7.39633 68.0301Z" fill="#00B8F0"/>
<path d="M13.0392 103.54L45.2742 62.0118L7.39557 68.0305L13.0392 103.54Z" fill="#4ACFFF"/>
<path d="M7.39633 68.0301L50.009 61.2596L59.0363 118.076L16.4236 124.846L7.39633 68.0301Z" stroke="#45413C" stroke-width="1.2" stroke-linecap="round" stroke-linejoin="round"/>
<path d="M22.0323 60.8494L27.9504 59.9093" stroke="#45413C" stroke-width="1.2" stroke-linecap="round" stroke-linejoin="round"/>
<path d="M32.6864 59.1576L33.8684 58.9692" stroke="#45413C" stroke-width="1.2" stroke-linecap="round" stroke-linejoin="round"/>
<path d="M39.5088 124.782C39.7891 124.984 40.003 125.265 40.1234 125.59C40.2438 125.914 40.2654 126.266 40.1853 126.603C40.1052 126.939 39.927 127.244 39.6734 127.479C39.4198 127.714 39.1022 127.869 38.7607 127.923C38.4192 127.978 38.0692 127.93 37.7551 127.785C37.441 127.64 37.1769 127.406 36.9963 127.111C36.8156 126.816 36.7264 126.474 36.7402 126.129C36.7539 125.783 36.8699 125.449 37.0734 125.17C37.3451 124.796 37.7542 124.545 38.2108 124.472C38.6674 124.399 39.1342 124.511 39.5088 124.782Z" fill="#45413C"/>
<path opacity="0.15" d="M98.4292 145.751C98.4292 146.397 99.6266 147.016 101.758 147.473C103.889 147.929 106.78 148.186 109.794 148.186C112.809 148.186 115.699 147.929 117.831 147.473C119.962 147.016 121.16 146.397 121.16 145.751C121.16 145.105 119.962 144.485 117.831 144.029C115.699 143.572 112.809 143.315 109.794 143.315C106.78 143.315 103.889 143.572 101.758 144.029C99.6266 144.485 98.4292 145.105 98.4292 145.751Z" fill="#45413C"/>
<path d="M143.52 132.906C143.391 133.728 143.101 134.516 142.667 135.226C142.233 135.936 141.663 136.553 140.99 137.042C140.318 137.531 139.555 137.884 138.747 138.078C137.938 138.273 137.099 138.306 136.277 138.177L92.4917 131.265C91.67 131.136 90.8818 130.846 90.1722 130.412C89.4625 129.978 88.8454 129.408 88.356 128.735C87.8665 128.063 87.5144 127.3 87.3198 126.492C87.1251 125.683 87.0917 124.844 87.2215 124.022L101.038 36.4483C101.168 35.6268 101.458 34.839 101.892 34.1296C102.326 33.4203 102.895 32.8034 103.568 32.3142C104.24 31.825 105.002 31.473 105.811 31.2783C106.619 31.0836 107.458 31.0501 108.28 31.1797L152.07 38.0897C153.728 38.3516 155.215 39.2617 156.203 40.6196C157.19 41.9776 157.598 43.6723 157.337 45.331L143.52 132.906Z" fill="white" stroke="#45413C" stroke-width="1.2" stroke-linecap="round" stroke-linejoin="round"/>
<path d="M88.2104 117.766L100.054 42.7024L156.352 51.5849L144.509 126.649L88.2104 117.766Z" fill="#00B8F0"/>
<path d="M92.6524 89.6195L150.094 50.5995L100.053 42.704L92.6524 89.6195Z" fill="#4ACFFF"/>
<path d="M88.2104 117.766L100.054 42.7024L156.352 51.5849L144.509 126.649L88.2104 117.766Z" stroke="#45413C" stroke-width="1.2" stroke-linecap="round" stroke-linejoin="round"/>
<path d="M121.369 39.6549L129.188 40.8888" stroke="#45413C" stroke-width="1.2" stroke-linecap="round" stroke-linejoin="round"/>
<path d="M135.444 41.876L137.008 42.1228" stroke="#45413C" stroke-width="1.2" stroke-linecap="round" stroke-linejoin="round"/>
<path d="M117.232 127.105C117.501 127.474 117.654 127.915 117.673 128.371C117.691 128.828 117.574 129.279 117.335 129.669C117.097 130.058 116.749 130.369 116.334 130.56C115.919 130.752 115.457 130.816 115.006 130.745C114.555 130.674 114.135 130.47 113.8 130.161C113.464 129.851 113.228 129.449 113.121 129.005C113.014 128.561 113.041 128.095 113.199 127.666C113.357 127.238 113.638 126.866 114.008 126.597C114.253 126.418 114.53 126.29 114.825 126.219C115.12 126.147 115.426 126.135 115.725 126.182C116.025 126.229 116.312 126.335 116.571 126.494C116.829 126.652 117.054 126.86 117.232 127.105Z" fill="#45413C"/>
<path d="M146.002 75.4845C145.806 76.7249 143.97 77.4669 141.901 77.1406C139.833 76.8142 138.313 75.5429 138.508 74.3025C138.703 73.0621 140.541 72.3185 142.611 72.6448C144.681 72.9712 146.197 74.2424 146.002 75.4845Z" fill="#A6FBFF"/>
<path d="M102.54 68.6264C102.345 69.8684 103.863 71.1397 105.932 71.4661C108 71.7924 109.838 71.0504 110.035 69.81C110.231 68.5696 108.711 67.2967 106.641 66.9703C104.571 66.644 102.737 67.3876 102.54 68.6264Z" fill="#A6FBFF"/>
<path d="M112.654 61.4501C112.654 62.1959 112.95 62.9112 113.477 63.4385C114.005 63.9659 114.72 64.2622 115.466 64.2622C116.211 64.2622 116.927 63.9659 117.454 63.4385C117.981 62.9112 118.278 62.1959 118.278 61.4501C118.278 60.7043 117.981 59.989 117.454 59.4616C116.927 58.9343 116.211 58.638 115.466 58.638C114.72 58.638 114.005 58.9343 113.477 59.4616C112.95 59.989 112.654 60.7043 112.654 61.4501Z" fill="#45413C"/>
<path d="M133.285 64.7054C133.285 65.4512 133.581 66.1665 134.108 66.6938C134.636 67.2212 135.351 67.5175 136.097 67.5175C136.843 67.5175 137.558 67.2212 138.085 66.6938C138.613 66.1665 138.909 65.4512 138.909 64.7054C138.909 63.9596 138.613 63.2443 138.085 62.7169C137.558 62.1896 136.843 61.8933 136.097 61.8933C135.351 61.8933 134.636 62.1896 134.108 62.7169C133.581 63.2443 133.285 63.9596 133.285 64.7054Z" fill="#45413C"/>
<path d="M121.434 90.0401C124.835 90.6511 128.342 90.0115 131.308 88.2393C134.274 86.467 136.499 83.6818 137.573 80.3975C137.631 80.1988 137.639 79.989 137.598 79.7861C137.557 79.5833 137.467 79.3936 137.336 79.2334C137.201 79.0666 137.03 78.9325 136.836 78.8408C136.642 78.7492 136.43 78.7024 136.215 78.7041C127.605 78.7241 119.047 77.3737 110.861 74.7035C110.657 74.6367 110.441 74.6165 110.228 74.6446C110.015 74.6728 109.812 74.7484 109.632 74.8659C109.458 74.9776 109.313 75.1302 109.211 75.3104C109.109 75.4907 109.053 75.6931 109.048 75.9001C109.058 79.3549 110.318 82.6893 112.595 85.288C114.871 87.8868 118.011 89.5746 121.434 90.0401Z" fill="#FFB0CA" stroke="#45413C" stroke-width="1.2" stroke-linecap="round" stroke-linejoin="round"/>
<path d="M122.457 83.5522C118.858 82.8834 115.152 83.0691 111.637 84.0945C113.995 87.2848 117.513 89.4197 121.432 90.0382C125.351 90.6567 129.356 89.7091 132.582 87.4001C129.555 85.3419 126.087 84.0238 122.457 83.5522Z" fill="#FF87AF" stroke="#45413C" stroke-width="1.2" stroke-linecap="round" stroke-linejoin="round"/>
</svg>
