<svg width="229" height="204" viewBox="0 0 229 204" fill="none" xmlns="http://www.w3.org/2000/svg">
<g clip-path="url(#clip0_389_2693)">
<path d="M49.5045 62.8144C48.8901 62.8144 48.3009 63.058 47.8665 63.4918C47.432 63.9255 47.188 64.5138 47.188 65.1272C47.188 65.7406 47.432 66.3288 47.8665 66.7626C48.3009 67.1963 48.8901 67.44 49.5045 67.44H78.6226V66.431C78.6225 65.714 78.8008 65.0081 79.1414 64.3769C79.4821 63.7456 79.9744 63.2087 80.5742 62.8144H49.5045Z" fill="#E6E6E6"/>
<path d="M76.0006 57.6106H66.1556C65.5412 57.6106 64.952 57.3669 64.5176 56.9332C64.0832 56.4994 63.8391 55.9111 63.8391 55.2978C63.8391 54.6844 64.0832 54.0961 64.5176 53.6624C64.952 53.2286 65.5412 52.985 66.1556 52.985H76.0006C76.615 52.985 77.2042 53.2286 77.6386 53.6624C78.073 54.0961 78.3171 54.6844 78.3171 55.2978C78.3171 55.9111 78.073 56.4994 77.6386 56.9332C77.2042 57.3669 76.615 57.6106 76.0006 57.6106Z" fill="#E6E6E6"/>
<path d="M53.92 41.1318H15.6981C15.0837 41.1318 14.4945 40.8882 14.0601 40.4544C13.6257 40.0207 13.3816 39.4324 13.3816 38.819C13.3816 38.2056 13.6257 37.6174 14.0601 37.1836C14.4945 36.7499 15.0837 36.5062 15.6981 36.5062H53.92C54.5343 36.5062 55.1235 36.7499 55.558 37.1836C55.9924 37.6174 56.2364 38.2056 56.2364 38.819C56.2364 39.4324 55.9924 40.0207 55.558 40.4544C55.1235 40.8882 54.5343 41.1318 53.92 41.1318Z" fill="#E6E6E6"/>
<path d="M37.2702 31.3024H32.3477C31.7334 31.3024 31.1442 31.0588 30.7097 30.625C30.2753 30.1913 30.0312 29.603 30.0312 28.9896C30.0312 28.3762 30.2753 27.788 30.7097 27.3542C31.1442 26.9205 31.7334 26.6768 32.3477 26.6768H37.2702C37.8846 26.6768 38.4738 26.9205 38.9082 27.3542C39.3427 27.788 39.5867 28.3762 39.5867 28.9896C39.5867 29.603 39.3427 30.1913 38.9082 30.625C38.4738 31.0588 37.8846 31.3024 37.2702 31.3024Z" fill="#E6E6E6"/>
<path d="M78.3317 109.329H42.2995C40.9944 109.328 39.7432 108.809 38.8204 107.888C37.8975 106.967 37.3784 105.717 37.377 104.414V47.5079C37.3784 46.2048 37.8975 44.9556 38.8204 44.0343C39.7432 43.1129 40.9944 42.5946 42.2995 42.5932H99.8563C101.161 42.5946 102.413 43.1129 103.335 44.0343C104.258 44.9556 104.777 46.2048 104.779 47.5079V61.6124H104.2V47.5079C104.198 46.3581 103.74 45.2559 102.926 44.4429C102.112 43.63 101.008 43.1727 99.8563 43.1714H42.2995C41.1479 43.1727 40.0439 43.63 39.2297 44.4429C38.4154 45.2559 37.9574 46.3581 37.9561 47.5079V104.414C37.9574 105.564 38.4154 106.666 39.2297 107.479C40.0439 108.292 41.1479 108.749 42.2995 108.751H78.3317V109.329Z" fill="#CCCCCC"/>
<path d="M37.6666 75.2626H11.4008C10.0957 75.2611 8.8445 74.7429 7.92167 73.8215C6.99884 72.9001 6.47974 71.6509 6.47827 70.3479V24.0749C6.47974 22.7719 6.99884 21.5227 7.92167 20.6013C8.8445 19.68 10.0957 19.1617 11.4008 19.1602H58.2172C59.5223 19.1617 60.7735 19.68 61.6964 20.6013C62.6192 21.5227 63.1383 22.7719 63.1397 24.0749V42.8823H62.5606V24.0749C62.5593 22.9252 62.1013 21.823 61.287 21.01C60.4728 20.197 59.3688 19.7397 58.2172 19.7384H11.4008C10.2492 19.7397 9.14525 20.197 8.33098 21.01C7.51672 21.823 7.05869 22.9252 7.05739 24.0749V70.3479C7.05869 71.4976 7.51672 72.5999 8.33098 73.4128C9.14525 74.2258 10.2492 74.6831 11.4008 74.6844H37.6666V75.2626Z" fill="#CCCCCC"/>
<path d="M154.904 62.8144C155.504 63.2087 155.996 63.7456 156.337 64.3769C156.677 65.0081 156.856 65.714 156.856 66.431V67.44H185.974C186.588 67.44 187.177 67.1963 187.612 66.7626C188.046 66.3288 188.29 65.7406 188.29 65.1272C188.29 64.5138 188.046 63.9255 187.612 63.4918C187.177 63.058 186.588 62.8144 185.974 62.8144H154.904Z" fill="#E6E6E6"/>
<path d="M157.161 55.2978C157.162 54.6846 157.406 54.0967 157.841 53.6631C158.275 53.2296 158.864 52.9857 159.478 52.985H169.323C169.937 52.985 170.526 53.2286 170.961 53.6624C171.395 54.0961 171.639 54.6844 171.639 55.2978C171.639 55.9111 171.395 56.4994 170.961 56.9332C170.526 57.3669 169.937 57.6106 169.323 57.6106H159.478C158.864 57.6099 158.275 57.366 157.841 56.9324C157.406 56.4988 157.162 55.9109 157.161 55.2978Z" fill="#E6E6E6"/>
<path d="M179.242 38.819C179.242 38.2059 179.487 37.618 179.921 37.1844C180.355 36.7508 180.944 36.5069 181.558 36.5062H219.78C220.394 36.5062 220.984 36.7499 221.418 37.1836C221.853 37.6174 222.097 38.2056 222.097 38.819C222.097 39.4324 221.853 40.0207 221.418 40.4544C220.984 40.8882 220.394 41.1318 219.78 41.1318H181.558C180.944 41.1311 180.355 40.8872 179.921 40.4537C179.487 40.0201 179.242 39.4322 179.242 38.819Z" fill="#E6E6E6"/>
<path d="M195.892 28.9896C195.892 28.3765 196.137 27.7886 196.571 27.355C197.005 26.9214 197.594 26.6775 198.208 26.6768H203.131C203.745 26.6768 204.334 26.9205 204.769 27.3542C205.203 27.788 205.447 28.3762 205.447 28.9896C205.447 29.603 205.203 30.1913 204.769 30.625C204.334 31.0588 203.745 31.3024 203.131 31.3024H198.208C197.594 31.3017 197.005 31.0578 196.571 30.6243C196.137 30.1907 195.892 29.6028 195.892 28.9896Z" fill="#E6E6E6"/>
<path d="M157.146 109.329H193.179C194.484 109.328 195.735 108.809 196.658 107.888C197.581 106.967 198.1 105.717 198.101 104.414V47.5079C198.1 46.2048 197.581 44.9556 196.658 44.0343C195.735 43.1129 194.484 42.5946 193.179 42.5932H135.622C134.317 42.5946 133.065 43.1129 132.143 44.0343C131.22 44.9556 130.701 46.2048 130.699 47.5079V61.6124H131.278V47.5079C131.28 46.3581 131.738 45.2559 132.552 44.4429C133.366 43.63 134.47 43.1727 135.622 43.1714H193.179C194.33 43.1727 195.434 43.63 196.248 44.4429C197.063 45.2559 197.521 46.3581 197.522 47.5079V104.414C197.521 105.564 197.063 106.666 196.248 107.479C195.434 108.292 194.33 108.749 193.179 108.751H157.146V109.329Z" fill="#CCCCCC"/>
<path d="M197.812 75.2626H224.078C225.383 75.2611 226.634 74.7429 227.557 73.8215C228.48 72.9001 228.999 71.6509 229 70.3479V24.0749C228.999 22.7719 228.48 21.5227 227.557 20.6013C226.634 19.68 225.383 19.1617 224.078 19.1602H177.261C175.956 19.1617 174.705 19.68 173.782 20.6013C172.859 21.5227 172.34 22.7719 172.339 24.0749V42.8823H172.918V24.0749C172.919 22.9252 173.377 21.823 174.191 21.01C175.006 20.197 176.11 19.7397 177.261 19.7384H224.078C225.229 19.7397 226.333 20.197 227.147 21.01C227.962 21.823 228.42 22.9252 228.421 24.0749V70.3479C228.42 71.4976 227.962 72.5999 227.147 73.4128C226.333 74.2258 225.229 74.6831 224.078 74.6844H197.812V75.2626Z" fill="#CCCCCC"/>
<path d="M152.391 61.5163H82.966C81.6612 61.5189 80.4107 62.0375 79.4881 62.9586C78.5655 63.8798 78.0461 65.1283 78.0435 66.431V135.089C78.0448 136.392 78.5639 137.642 79.4867 138.563C80.4096 139.485 81.6609 140.003 82.966 140.004H152.391C153.696 140.003 154.947 139.485 155.87 138.563C156.793 137.642 157.312 136.392 157.313 135.089V66.431C157.312 65.128 156.793 63.8787 155.87 62.9573C154.947 62.0359 153.696 61.5177 152.391 61.5163ZM156.734 135.089C156.733 136.239 156.275 137.341 155.46 138.154C154.646 138.967 153.542 139.425 152.391 139.426H82.966C81.8145 139.425 80.7105 138.967 79.8963 138.154C79.082 137.341 78.624 136.239 78.6226 135.089V66.431C78.6244 65.2814 79.0825 64.1795 79.8967 63.3666C80.7109 62.5537 81.8146 62.0963 82.966 62.0945H152.391C153.542 62.0959 154.646 62.5532 155.46 63.3662C156.275 64.1791 156.733 65.2813 156.734 66.431V135.089Z" fill="#3F3D56"/>
<path d="M146.924 87.7552H88.4324C87.9504 87.7552 87.4883 87.564 87.1477 87.2239C86.8072 86.8839 86.616 86.4229 86.616 85.9424C86.616 85.4618 86.8072 85.0008 87.1477 84.6608C87.4883 84.3208 87.9504 84.1296 88.4324 84.1296H146.924C147.406 84.1296 147.868 84.3208 148.208 84.6608C148.549 85.0008 148.74 85.4618 148.74 85.9424C148.74 86.4229 148.549 86.8839 148.208 87.2239C147.868 87.564 147.406 87.7552 146.924 87.7552Z" fill="#BCFF8F" stroke="#3F3D56"/>
<path fill-rule="evenodd" clip-rule="evenodd" d="M106.649 77.572C106.649 79.2681 105.377 80.2431 103.525 80.2431C102.69 80.2403 101.864 80.057 101.098 79.7045V77.4497C101.845 77.8842 102.788 78.2074 103.525 78.2074C104.024 78.2074 104.381 78.065 104.381 77.6286C104.381 76.5021 101 76.9184 101 74.3038C101 72.6259 102.2 71.6218 104.007 71.6218C104.762 71.6142 105.511 71.7624 106.213 72.0581V74.2838C105.532 73.9022 104.777 73.6947 104.007 73.6776C103.535 73.6776 103.251 73.82 103.251 74.1888C103.251 75.2514 106.64 74.7493 106.649 77.572Z" fill="#635BFF"/>
<path fill-rule="evenodd" clip-rule="evenodd" d="M109.417 71.8713H111.108V73.8691H109.417V77.1963C109.417 78.5835 110.823 78.1518 111.108 78.0308V79.9328C110.813 80.1026 110.28 80.2417 109.549 80.2417C109.245 80.2518 108.943 80.1965 108.66 80.0793C108.377 79.9622 108.12 79.7855 107.904 79.5602C107.689 79.3348 107.519 79.0655 107.405 78.7687C107.292 78.4719 107.237 78.1538 107.244 77.8339L107.252 70.3252L109.425 69.8375L109.417 71.8713Z" fill="#635BFF"/>
<path fill-rule="evenodd" clip-rule="evenodd" d="M115.865 72.0123V74.0984C115.592 73.9988 114.714 73.8712 114.196 74.5701V79.946H112V72.0123H113.898L114.038 72.6832C114.556 71.7048 115.584 71.904 115.865 72.0123Z" fill="#635BFF"/>
<path fill-rule="evenodd" clip-rule="evenodd" d="M116.459 69.4362L118.838 68.9459V70.8232L116.459 71.3242V69.4362Z" fill="#635BFF"/>
<path d="M118.838 71.919H116.459V79.946H118.838V71.919Z" fill="#635BFF"/>
<path fill-rule="evenodd" clip-rule="evenodd" d="M123.704 71.6215C123.028 71.6194 122.378 71.8796 121.888 72.3478L121.769 71.7703H119.73V82.6215L122.046 82.1283L122.055 79.494C122.519 79.8724 123.098 80.0794 123.695 80.0804C125.354 80.0804 126.865 78.7408 126.865 75.7909C126.856 73.092 125.326 71.6215 123.704 71.6215ZM123.149 78.0343C122.946 78.0463 122.742 78.0134 122.553 77.9378C122.364 77.8622 122.194 77.7457 122.055 77.5967L122.046 74.1429C122.184 73.989 122.355 73.8683 122.546 73.7895C122.737 73.7107 122.943 73.6758 123.149 73.6874C123.992 73.6874 124.576 74.636 124.576 75.8554C124.576 77.1036 124.001 78.0343 123.149 78.0343Z" fill="#635BFF"/>
<path fill-rule="evenodd" clip-rule="evenodd" d="M134 75.9651C134 73.5365 132.86 71.6215 130.679 71.6215C128.489 71.6215 127.162 73.5365 127.162 75.945C127.162 78.7993 128.728 80.2411 130.973 80.2411C131.86 80.2663 132.738 80.0541 133.521 79.6253V77.7285C132.821 78.0852 132.048 78.2638 131.267 78.2493C130.375 78.2493 129.583 77.9277 129.482 76.8093H133.982C133.982 76.6851 134 76.1917 134 75.9651ZM129.455 75.0642C129.455 73.9916 130.09 73.5457 130.67 73.5457C131.23 73.5457 131.829 73.9916 131.829 75.0642H129.455Z" fill="#635BFF"/>
<path d="M113.479 102.132H88.2877C87.6733 102.132 87.0841 101.888 86.6497 101.455C86.2152 101.021 85.9712 100.433 85.9712 99.8192C85.9712 99.2058 86.2152 98.6175 86.6497 98.1838C87.0841 97.75 87.6733 97.5064 88.2877 97.5064H113.479C114.094 97.5064 114.683 97.75 115.117 98.1838C115.552 98.6175 115.796 99.2058 115.796 99.8192C115.796 100.433 115.552 101.021 115.117 101.455C114.683 101.888 114.094 102.132 113.479 102.132Z" fill="#CCCCCC"/>
<path d="M113.479 112.25H88.2877C87.6733 112.25 87.0841 112.007 86.6497 111.573C86.2152 111.139 85.9712 110.551 85.9712 109.938C85.9712 109.324 86.2152 108.736 86.6497 108.302C87.0841 107.869 87.6733 107.625 88.2877 107.625H113.479C114.094 107.625 114.683 107.869 115.117 108.302C115.552 108.736 115.796 109.324 115.796 109.938C115.796 110.551 115.552 111.139 115.117 111.573C114.683 112.007 114.094 112.25 113.479 112.25Z" fill="#CCCCCC"/>
<path d="M113.479 122.369H88.2877C87.6733 122.369 87.0841 122.125 86.6497 121.692C86.2152 121.258 85.9712 120.67 85.9712 120.056C85.9712 119.443 86.2152 118.855 86.6497 118.421C87.0841 117.987 87.6733 117.743 88.2877 117.743H113.479C114.094 117.743 114.683 117.987 115.117 118.421C115.552 118.855 115.796 119.443 115.796 120.056C115.796 120.67 115.552 121.258 115.117 121.692C114.683 122.125 114.094 122.369 113.479 122.369Z" fill="#CCCCCC"/>
<path d="M144.899 104.115C147.286 104.115 149.221 102.182 149.221 99.7987C149.221 97.415 147.286 95.4827 144.899 95.4827C142.511 95.4827 140.576 97.415 140.576 99.7987C140.576 102.182 142.511 104.115 144.899 104.115Z" fill="#56BE88"/>
<path d="M144.47 101.445C144.373 101.445 144.278 101.414 144.2 101.356L144.196 101.352L143.18 100.576C143.085 100.503 143.022 100.396 143.007 100.277C142.991 100.159 143.023 100.039 143.096 99.9441C143.169 99.8492 143.277 99.7871 143.395 99.7715C143.514 99.7558 143.634 99.7879 143.729 99.8606L144.387 100.364L145.942 98.339C145.978 98.2921 146.023 98.2527 146.074 98.223C146.126 98.1934 146.182 98.1742 146.241 98.1665C146.3 98.1587 146.36 98.1626 146.417 98.1779C146.474 98.1932 146.528 98.2196 146.575 98.2556L146.565 98.2691L146.575 98.2557C146.67 98.3285 146.732 98.4359 146.748 98.5544C146.763 98.6728 146.731 98.7926 146.659 98.8875L144.83 101.269C144.787 101.324 144.733 101.368 144.671 101.399C144.608 101.429 144.54 101.445 144.471 101.445L144.47 101.445Z" fill="white"/>
<path d="M34.8089 13.4169C33.48 13.4169 32.1809 13.0234 31.076 12.2863C29.9711 11.5492 29.1098 10.5015 28.6013 9.27564C28.0928 8.04983 27.9597 6.70099 28.219 5.39968C28.4782 4.09837 29.1182 2.90304 30.0578 1.96485C30.9975 1.02666 32.1948 0.387746 33.4981 0.128902C34.8015 -0.129942 36.1525 0.00290751 37.3803 0.510655C38.608 1.0184 39.6574 1.87824 40.3957 2.98144C41.134 4.08464 41.5281 5.38165 41.5281 6.70845C41.5261 8.48703 40.8175 10.1922 39.5579 11.4498C38.2982 12.7075 36.5903 13.4149 34.8089 13.4169ZM34.8089 0.578204C33.5946 0.57821 32.4075 0.93775 31.3977 1.61135C30.388 2.28496 29.6011 3.24238 29.1363 4.36253C28.6716 5.48269 28.55 6.71528 28.787 7.90443C29.0239 9.09358 29.6087 10.1859 30.4673 11.0432C31.326 11.9005 32.4201 12.4844 33.6111 12.7209C34.8022 12.9574 36.0367 12.836 37.1586 12.3721C38.2806 11.9081 39.2395 11.1223 39.9142 10.1142C40.5889 9.10612 40.949 7.9209 40.949 6.70845C40.9471 5.08317 40.2996 3.52498 39.1486 2.37573C37.9975 1.22648 36.4368 0.580033 34.8089 0.578204Z" fill="#CCCCCC"/>
<path d="M34.1718 9.15724C34.0272 9.15748 33.8864 9.11076 33.7707 9.02413L33.7635 9.01875L32.2524 7.86469C32.1825 7.81112 32.1237 7.74432 32.0796 7.66809C32.0355 7.59186 32.0068 7.5077 31.9953 7.42042C31.9837 7.33314 31.9895 7.24444 32.0123 7.15938C32.0351 7.07433 32.0744 6.99459 32.1281 6.92472C32.1817 6.85485 32.2486 6.79621 32.325 6.75216C32.4013 6.70811 32.4856 6.6795 32.5731 6.66797C32.6605 6.65644 32.7493 6.66221 32.8345 6.68496C32.9197 6.70771 32.9996 6.747 33.0695 6.80056L34.0483 7.54991L36.3611 4.5374C36.4147 4.46756 36.4816 4.40894 36.5579 4.36491C36.6342 4.32087 36.7185 4.29227 36.8059 4.28075C36.8933 4.26922 36.9821 4.275 37.0672 4.29774C37.1524 4.32048 37.2322 4.35975 37.3021 4.4133L37.288 4.43334L37.3027 4.41344C37.4439 4.52174 37.5362 4.6815 37.5595 4.85769C37.5827 5.03388 37.5351 5.21208 37.4269 5.35321L34.7065 8.89499C34.6436 8.9766 34.5627 9.04263 34.4701 9.08798C34.3774 9.13332 34.2756 9.15674 34.1724 9.15644L34.1718 9.15724Z" fill="#CCCCCC"/>
<path d="M77.431 36.8339C76.1021 36.8339 74.803 36.4404 73.698 35.7033C72.5931 34.9661 71.7319 33.9184 71.2234 32.6926C70.7148 31.4668 70.5818 30.118 70.841 28.8167C71.1003 27.5153 71.7402 26.32 72.6799 25.3818C73.6196 24.4436 74.8168 23.8047 76.1202 23.5459C77.4236 23.287 78.7746 23.4199 80.0023 23.9277C81.2301 24.4354 82.2795 25.2952 83.0178 26.3984C83.7561 27.5016 84.1502 28.7986 84.1502 30.1254C84.1481 31.904 83.4396 33.6092 82.1799 34.8668C80.9203 36.1245 79.2124 36.8319 77.431 36.8339ZM77.431 23.9952C76.2166 23.9952 75.0295 24.3548 74.0198 25.0284C73.0101 25.702 72.2231 26.6594 71.7584 27.7795C71.2937 28.8997 71.1721 30.1323 71.409 31.3214C71.6459 32.5106 72.2307 33.6029 73.0894 34.4602C73.9481 35.3175 75.0422 35.9014 76.2332 36.1379C77.4242 36.3744 78.6588 36.253 79.7807 35.7891C80.9027 35.3251 81.8616 34.5393 82.5363 33.5312C83.2109 32.5231 83.571 31.3379 83.571 30.1254C83.5692 28.5002 82.9217 26.942 81.7706 25.7927C80.6195 24.6435 79.0588 23.997 77.431 23.9952Z" fill="#CCCCCC"/>
<path d="M76.7939 32.5742C76.6493 32.5744 76.5085 32.5277 76.3927 32.441L76.3856 32.4357L74.8745 31.2816C74.7332 31.1734 74.6407 31.0136 74.6174 30.8373C74.594 30.6611 74.6418 30.4827 74.7502 30.3416C74.8585 30.2005 75.0186 30.1082 75.1951 30.0849C75.3717 30.0616 75.5503 30.1093 75.6916 30.2175L76.6704 30.9668L78.9831 27.9543C79.0368 27.8845 79.1037 27.8259 79.18 27.7818C79.2563 27.7378 79.3405 27.7092 79.4279 27.6977C79.5153 27.6861 79.6041 27.6919 79.6893 27.7147C79.7744 27.7374 79.8543 27.7767 79.9242 27.8302L79.9101 27.8503L79.9248 27.8304C80.0659 27.9387 80.1583 28.0984 80.1815 28.2746C80.2048 28.4508 80.1571 28.629 80.049 28.7701L77.3286 32.3119C77.2657 32.3935 77.1848 32.4595 77.0921 32.5049C76.9995 32.5502 76.8977 32.5737 76.7945 32.5734L76.7939 32.5742Z" fill="#CCCCCC"/>
<path d="M144.899 114.233C147.286 114.233 149.221 112.301 149.221 109.917C149.221 107.534 147.286 105.601 144.899 105.601C142.511 105.601 140.576 107.534 140.576 109.917C140.576 112.301 142.511 114.233 144.899 114.233Z" fill="#56BE88"/>
<path d="M144.47 111.564C144.373 111.564 144.278 111.532 144.2 111.474L144.196 111.471L143.18 110.695C143.133 110.659 143.093 110.614 143.064 110.562C143.034 110.511 143.015 110.455 143.007 110.396C142.999 110.337 143.003 110.278 143.018 110.22C143.034 110.163 143.06 110.11 143.096 110.063C143.132 110.016 143.177 109.976 143.228 109.947C143.28 109.917 143.337 109.898 143.395 109.89C143.454 109.882 143.514 109.886 143.571 109.901C143.628 109.917 143.682 109.943 143.729 109.979L144.387 110.483L145.942 108.458C145.978 108.411 146.023 108.371 146.074 108.342C146.126 108.312 146.182 108.293 146.241 108.285C146.3 108.277 146.36 108.281 146.417 108.296C146.474 108.312 146.528 108.338 146.575 108.374L146.565 108.388L146.575 108.374C146.67 108.447 146.732 108.554 146.748 108.673C146.763 108.791 146.731 108.911 146.659 109.006L144.83 111.387C144.787 111.442 144.733 111.487 144.671 111.517C144.608 111.548 144.54 111.563 144.471 111.563L144.47 111.564Z" fill="white"/>
<path d="M144.899 124.372C147.286 124.372 149.221 122.44 149.221 120.056C149.221 117.673 147.286 115.74 144.899 115.74C142.511 115.74 140.576 117.673 140.576 120.056C140.576 122.44 142.511 124.372 144.899 124.372Z" fill="#56BE88"/>
<path d="M144.47 121.703C144.373 121.703 144.278 121.671 144.2 121.613L144.196 121.61L143.18 120.834C143.085 120.761 143.023 120.653 143.007 120.535C142.991 120.417 143.024 120.297 143.096 120.202C143.169 120.107 143.277 120.045 143.395 120.029C143.514 120.014 143.634 120.046 143.729 120.118L144.387 120.622L145.942 118.597C145.978 118.55 146.023 118.51 146.074 118.481C146.126 118.451 146.182 118.432 146.241 118.424C146.3 118.416 146.359 118.42 146.417 118.435C146.474 118.451 146.528 118.477 146.575 118.513L146.565 118.527L146.575 118.513C146.67 118.586 146.732 118.693 146.748 118.812C146.763 118.93 146.731 119.05 146.659 119.145L144.83 121.526C144.787 121.581 144.733 121.626 144.671 121.656C144.608 121.687 144.54 121.702 144.47 121.702L144.47 121.703Z" fill="white"/>
<path d="M117.685 55.6255C113.124 55.5479 111.052 52.0934 111.052 48.9165C111.052 45.7397 113.125 42.2856 117.675 42.2086H117.685C122.235 42.2861 124.308 45.7407 124.308 48.9175C124.308 52.0944 122.235 55.5486 117.685 55.6255ZM117.68 42.7868C113.524 42.8594 111.631 46.0146 111.631 48.9165C111.631 51.8197 113.525 54.9765 117.685 55.0473C121.834 54.977 123.728 51.8205 123.729 48.9175C123.729 46.0156 121.836 42.8604 117.68 42.7868Z" fill="#56BE88"/>
<path d="M116.794 51.5742C116.649 51.5744 116.508 51.5277 116.393 51.441L116.386 51.4357L114.875 50.2816C114.733 50.1734 114.641 50.0136 114.617 49.8373C114.594 49.6611 114.642 49.4827 114.75 49.3416C114.859 49.2005 115.019 49.1082 115.195 49.0849C115.372 49.0616 115.55 49.1093 115.692 49.2175L116.67 49.9668L118.983 46.9543C119.037 46.8845 119.104 46.8259 119.18 46.7818C119.256 46.7378 119.341 46.7092 119.428 46.6977C119.515 46.6861 119.604 46.6919 119.689 46.7147C119.774 46.7374 119.854 46.7767 119.924 46.8302L119.91 46.8503L119.925 46.8304C120.066 46.9387 120.158 47.0984 120.182 47.2746C120.205 47.4508 120.157 47.629 120.049 47.7701L117.329 51.3119C117.266 51.3935 117.185 51.4595 117.092 51.5049C117 51.5502 116.898 51.5737 116.795 51.5734L116.794 51.5742Z" fill="#CCCCCC"/>
<path d="M158.431 36.8339C157.102 36.8339 155.803 36.4404 154.698 35.7033C153.593 34.9661 152.732 33.9184 152.223 32.6926C151.715 31.4668 151.582 30.118 151.841 28.8167C152.1 27.5153 152.74 26.32 153.68 25.3818C154.62 24.4436 155.817 23.8047 157.12 23.5459C158.424 23.287 159.775 23.4199 161.002 23.9277C162.23 24.4354 163.279 25.2952 164.018 26.3984C164.756 27.5016 165.15 28.7986 165.15 30.1254C165.148 31.904 164.44 33.6092 163.18 34.8668C161.92 36.1245 160.212 36.8319 158.431 36.8339ZM158.431 23.9952C157.217 23.9952 156.029 24.3548 155.02 25.0284C154.01 25.702 153.223 26.6594 152.758 27.7795C152.294 28.8997 152.172 30.1323 152.409 31.3214C152.646 32.5106 153.231 33.6029 154.089 34.4602C154.948 35.3175 156.042 35.9014 157.233 36.1379C158.424 36.3744 159.659 36.253 160.781 35.7891C161.903 35.3251 162.862 34.5393 163.536 33.5312C164.211 32.5231 164.571 31.3379 164.571 30.1254C164.569 28.5002 163.922 26.942 162.771 25.7927C161.62 24.6435 160.059 23.997 158.431 23.9952Z" fill="#CCCCCC"/>
<path d="M157.794 32.5742C157.649 32.5744 157.508 32.5277 157.393 32.441L157.386 32.4357L155.875 31.2816C155.733 31.1734 155.641 31.0136 155.617 30.8373C155.594 30.6611 155.642 30.4827 155.75 30.3416C155.859 30.2005 156.019 30.1082 156.195 30.0849C156.372 30.0616 156.55 30.1093 156.692 30.2175L157.67 30.9668L159.983 27.9543C160.037 27.8845 160.104 27.8259 160.18 27.7818C160.256 27.7378 160.341 27.7092 160.428 27.6977C160.515 27.6861 160.604 27.6919 160.689 27.7147C160.774 27.7374 160.854 27.7767 160.924 27.8302L160.91 27.8503L160.925 27.8304C161.066 27.9387 161.158 28.0984 161.182 28.2746C161.205 28.4508 161.157 28.629 161.049 28.7701L158.329 32.3119C158.266 32.3935 158.185 32.4595 158.092 32.5049C158 32.5502 157.898 32.5737 157.795 32.5734L157.794 32.5742Z" fill="#CCCCCC"/>
<path d="M200.431 13.8339C199.102 13.8339 197.803 13.4404 196.698 12.7033C195.593 11.9661 194.732 10.9184 194.223 9.69261C193.715 8.4668 193.582 7.11796 193.841 5.81665C194.1 4.51534 194.74 3.32002 195.68 2.38183C196.62 1.44365 197.817 0.804733 199.12 0.545891C200.424 0.28705 201.775 0.419903 203.002 0.927651C204.23 1.4354 205.279 2.29524 206.018 3.39844C206.756 4.50164 207.15 5.79865 207.15 7.12545C207.148 8.90404 206.44 10.6092 205.18 11.8668C203.92 13.1245 202.212 13.8319 200.431 13.8339ZM200.431 0.995198C199.217 0.995211 198.029 1.35475 197.02 2.02836C196.01 2.70197 195.223 3.65939 194.758 4.77955C194.294 5.89971 194.172 7.13229 194.409 8.32144C194.646 9.51059 195.231 10.6029 196.089 11.4602C196.948 12.3175 198.042 12.9014 199.233 13.1379C200.424 13.3744 201.659 13.253 202.781 12.7891C203.903 12.3251 204.862 11.5393 205.536 10.5312C206.211 9.52311 206.571 8.33789 206.571 7.12545C206.569 5.50016 205.922 3.94196 204.771 2.79271C203.62 1.64346 202.059 0.997016 200.431 0.995198Z" fill="#CCCCCC"/>
<path d="M199.794 9.57416C199.649 9.5744 199.508 9.52768 199.393 9.44104L199.386 9.43566L197.875 8.28161C197.733 8.17342 197.641 8.01361 197.617 7.83733C197.594 7.66106 197.642 7.48275 197.75 7.34164C197.859 7.20053 198.019 7.10817 198.195 7.08489C198.372 7.0616 198.55 7.10929 198.692 7.21748L199.67 7.96683L201.983 4.95432C202.037 4.88447 202.104 4.82586 202.18 4.78182C202.256 4.73779 202.341 4.70919 202.428 4.69766C202.515 4.68614 202.604 4.69191 202.689 4.71466C202.774 4.7374 202.854 4.77667 202.924 4.83021L202.91 4.85026L202.925 4.83036C203.066 4.93865 203.158 5.09842 203.182 5.2746C203.205 5.45079 203.157 5.629 203.049 5.77012L200.329 9.31191C200.266 9.39352 200.185 9.45955 200.092 9.50489C200 9.55023 199.898 9.57366 199.795 9.57336L199.794 9.57416Z" fill="#CCCCCC"/>
<path d="M42.9111 150.578C42.7354 150.191 42.6468 149.77 42.6516 149.345C42.6563 148.92 42.7544 148.501 42.9388 148.118C43.1232 147.735 43.3895 147.397 43.7189 147.128C44.0483 146.859 44.4328 146.665 44.8454 146.56L45.7232 136.266L49.9447 139.592L48.464 148.857C48.5943 149.56 48.4616 150.287 48.091 150.9C47.7204 151.512 47.1377 151.968 46.4532 152.18C45.7687 152.392 45.0301 152.346 44.3773 152.051C43.7244 151.756 43.2028 151.232 42.9111 150.578Z" fill="#FFB8B8"/>
<path d="M45.6262 145.48C45.3224 145.44 45.0425 145.294 44.8357 145.068C44.629 144.842 44.5086 144.551 44.4958 144.245L44.0071 132.564C43.8314 128.365 44.6873 124.187 46.5001 120.394L50.8342 111.327C51.1246 110.782 51.541 110.313 52.049 109.961C52.557 109.608 53.1419 109.382 53.755 109.301C54.3502 109.217 54.9569 109.278 55.5233 109.479C56.0897 109.68 56.5991 110.014 57.0082 110.454C57.2157 110.675 57.4021 110.915 57.565 111.171C57.892 111.701 58.0814 112.304 58.1158 112.925C58.1503 113.546 58.0289 114.166 57.7625 114.728L51.1167 132.855L50.6054 144.664C50.5977 144.843 50.553 145.018 50.4742 145.179C50.3954 145.34 50.2842 145.483 50.1475 145.599C50.0108 145.715 49.8516 145.802 49.6799 145.853C49.5081 145.905 49.3275 145.921 49.1494 145.9L45.6434 145.482L45.6262 145.48Z" fill="#56BE88"/>
<path d="M33.1921 196.519L36.4427 197.944L43.4929 186.104L38.6955 184.001L33.1921 196.519Z" fill="#FFB8B8"/>
<path d="M32.8289 195.096L39.2304 197.902C39.7662 198.137 40.2506 198.475 40.6556 198.896C41.0605 199.318 41.3783 199.815 41.5909 200.359C41.8034 200.903 41.9065 201.484 41.8942 202.068C41.8819 202.652 41.7546 203.228 41.5194 203.763L41.4612 203.895L30.98 199.302L32.8289 195.096Z" fill="#2F2E41"/>
<path d="M76.8324 200.459H80.3824L82.0711 186.789L76.8318 186.789L76.8324 200.459Z" fill="#FFB8B8"/>
<path d="M75.927 199.302L82.9181 199.302C83.5032 199.302 84.0828 199.417 84.6233 199.641C85.1639 199.864 85.655 200.192 86.0688 200.605C86.4825 201.018 86.8106 201.508 87.0345 202.048C87.2584 202.588 87.3737 203.166 87.3737 203.75V203.895L75.9272 203.895L75.927 199.302Z" fill="#2F2E41"/>
<path d="M41.077 196.573C40.9405 196.573 40.8048 196.551 40.6749 196.509L34.6557 194.578C34.3306 194.472 34.0599 194.243 33.9015 193.941C33.7432 193.638 33.7097 193.286 33.8083 192.959L53.7692 129.497L68.7205 126.57L68.7731 126.655C78.6577 142.714 81.9573 167.245 84.0504 193.237C84.076 193.577 83.9682 193.913 83.7498 194.174C83.5314 194.435 83.2196 194.601 82.8805 194.637L76.3 195.294C75.9929 195.326 75.6844 195.248 75.4301 195.073C75.1758 194.898 74.9924 194.638 74.9129 194.34L62.8638 151.783C62.8401 151.696 62.79 151.619 62.7204 151.562C62.6509 151.505 62.5652 151.471 62.4753 151.464C62.3855 151.458 62.2958 151.48 62.2189 151.526C62.1419 151.573 62.0814 151.642 62.0457 151.725L42.2702 195.786C42.1703 196.019 42.004 196.218 41.7919 196.358C41.5798 196.498 41.3312 196.573 41.077 196.573Z" fill="#2F2E41"/>
<path d="M61.494 104.085C65.4218 104.085 68.6059 100.906 68.6059 96.9843C68.6059 93.0627 65.4218 89.8837 61.494 89.8837C57.5662 89.8837 54.3821 93.0627 54.3821 96.9843C54.3821 100.906 57.5662 104.085 61.494 104.085Z" fill="#FFB8B8"/>
<path d="M52.4972 131.376L52.4484 131.274C52.4153 131.205 49.1387 124.265 49.4436 116.26C49.5446 113.632 50.6474 111.143 52.5264 109.3C54.4054 107.458 56.9185 106.402 59.5516 106.349C61.9783 106.301 64.3439 107.11 66.2318 108.633C68.1197 110.156 69.4087 112.296 69.8719 114.674C70.7851 119.329 70.7622 123.737 69.804 127.776L69.7826 127.866L69.6919 127.884L52.4972 131.376Z" fill="#56BE88"/>
<path d="M88.7569 141.393C88.3358 141.331 87.9335 141.177 87.5783 140.943C87.223 140.709 86.9236 140.4 86.7009 140.038C86.4783 139.675 86.3379 139.269 86.2897 138.846C86.2415 138.424 86.2865 137.997 86.4218 137.594L78.2302 131.282L83.3162 129.539L90.3153 135.8C90.9783 136.072 91.5185 136.577 91.8334 137.22C92.1484 137.863 92.2162 138.598 92.0241 139.288C91.832 139.977 91.3934 140.572 90.7912 140.96C90.189 141.348 89.4652 141.502 88.7569 141.393Z" fill="#FFB8B8"/>
<path d="M68.6548 127.478L68.6359 127.447L60.0003 113.484C59.6984 112.945 59.5296 112.342 59.508 111.725C59.4864 111.108 59.6126 110.495 59.876 109.936C60.1278 109.391 60.5078 108.915 60.9837 108.548C61.4596 108.181 62.0172 107.935 62.6091 107.83C62.9077 107.776 63.2108 107.749 63.5144 107.751C64.1374 107.763 64.7475 107.931 65.2892 108.238C65.831 108.546 66.2872 108.984 66.6165 109.512L78.2791 124.907L87.945 131.732C88.0914 131.835 88.215 131.968 88.3078 132.121C88.4006 132.275 88.4607 132.445 88.4843 132.623C88.508 132.8 88.4946 132.981 88.4451 133.153C88.3957 133.325 88.3111 133.485 88.1968 133.623L85.9465 136.34C85.7498 136.579 85.474 136.74 85.1689 136.793C84.8638 136.847 84.5495 136.79 84.2828 136.633L68.6548 127.478Z" fill="#56BE88"/>
<path d="M60.222 96.5437C60.7462 95.6828 61.9029 95.4396 62.9072 95.5378C63.9114 95.636 64.8881 95.9884 65.8971 95.9806C68.6989 95.9589 70.8617 92.5495 69.6837 90.0113C68.7176 87.9297 66.3049 87.0156 64.1222 86.2983C59.546 84.7941 54.2892 83.3489 50.1366 85.7877C48.8132 86.5879 47.7278 87.7264 46.9926 89.0854C46.2573 90.4445 45.8987 91.9749 45.9539 93.5186C46.0473 95.438 46.7836 97.4095 46.1609 99.2278C45.4426 101.326 43.1649 102.451 41.0125 102.995C37.2394 103.95 33.2611 103.796 29.4644 104.652C25.6676 105.508 21.777 107.781 20.7535 111.53C20.0813 113.993 20.7827 116.644 21.9444 118.918C23.1296 121.238 24.7766 123.292 26.7847 124.954C28.7928 126.617 31.1195 127.852 33.6225 128.585C36.1255 129.318 38.752 129.533 41.3412 129.217C43.9304 128.901 46.4277 128.061 48.6803 126.748C53.2703 124.072 56.5841 119.549 58.5598 114.623C59.6799 111.749 60.4685 108.757 60.9103 105.705C61.3527 102.848 60.9773 99.9609 60.1759 97.1829C60.138 97.0791 60.1225 96.9685 60.1305 96.8583C60.1384 96.7482 60.1696 96.6409 60.222 96.5437Z" fill="#2F2E41"/>
<path d="M110.612 204H0.28956C0.212764 204 0.139113 203.97 0.0848099 203.915C0.0305069 203.861 0 203.788 0 203.711C0 203.634 0.0305069 203.561 0.0848099 203.506C0.139113 203.452 0.212764 203.422 0.28956 203.422H110.612C110.689 203.422 110.762 203.452 110.817 203.506C110.871 203.561 110.901 203.634 110.901 203.711C110.901 203.788 110.871 203.861 110.817 203.915C110.762 203.97 110.689 204 110.612 204Z" fill="#3F3D56"/>
</g>
<defs>
<clipPath id="clip0_389_2693">
<rect width="229" height="204" fill="white"/>
</clipPath>
</defs>
</svg>
