<svg width="229" height="224" viewBox="0 0 229 224" fill="none" xmlns="http://www.w3.org/2000/svg">
<path d="M158.348 35.1462C172.619 45.2678 189.293 51.2822 200.869 64.3745C213.871 79.0787 227.592 95.403 228.905 114.944C230.228 134.649 217.492 152.01 207.918 169.311C198.353 186.596 190.117 206.031 172.992 215.983C155.938 225.893 134.924 224.258 115.203 223.188C96.5822 222.178 78.3928 218.506 61.8432 209.954C45.044 201.273 30.1256 189.341 19.5178 173.741C8.59946 157.685 2.06814 139.112 0.528592 119.787C-1.06508 99.7829 0.576514 78.8904 10.5729 61.4614C20.5085 44.1383 38.6772 33.9844 55.7427 23.5197C72.9146 12.9897 90.3847 -2.04086 110.427 0.230151C130.439 2.49787 141.946 23.5137 158.348 35.1462Z" fill="url(#paint0_linear_236_1075)"/>
<defs>
<linearGradient id="paint0_linear_236_1075" x1="108.209" y1="2.05407e-06" x2="108.209" y2="224" gradientUnits="userSpaceOnUse">
<stop stop-color="#9DFF9D"/>
<stop offset="1" stop-color="#E6FF82"/>
</linearGradient>
</defs>
</svg>
