<svg width="25" height="24" viewBox="0 0 25 24" fill="none" xmlns="http://www.w3.org/2000/svg">
<path d="M18.3748 9.04919C18.3749 9.03281 18.375 9.01641 18.375 9C18.375 5.68629 15.6887 3 12.375 3C9.06129 3 6.375 5.68629 6.375 9L6.3748 9.75C6.3748 12.0656 5.50027 14.177 4.06348 15.7719C5.7964 16.4116 7.62343 16.857 9.51814 17.0818C10.4549 17.1929 11.4082 17.25 12.3748 17.25C13.3416 17.25 14.295 17.1928 15.2318 17.0817C17.1264 16.857 18.9533 16.4116 20.6861 15.7719C19.2493 14.177 18.3748 12.0656 18.3748 9.75V9.04919Z" fill="#BCFF8F"/>
<path d="M15.2319 17.0817C17.1264 16.857 18.9533 16.4116 20.6861 15.7719C19.2493 14.177 18.3748 12.0656 18.3748 9.75V9.04919C18.3749 9.03281 18.375 9.01641 18.375 9C18.375 5.68629 15.6887 3 12.375 3C9.06129 3 6.375 5.68629 6.375 9L6.3748 9.75C6.3748 12.0656 5.50027 14.177 4.06348 15.7719C5.7964 16.4116 7.62343 16.857 9.51814 17.0818M15.2319 17.0817C14.295 17.1928 13.3416 17.25 12.3748 17.25C11.4082 17.25 10.4549 17.1929 9.51814 17.0818M15.2319 17.0817C15.3248 17.3711 15.375 17.6797 15.375 18C15.375 19.6569 14.0319 21 12.375 21C10.7181 21 9.375 19.6569 9.375 18C9.375 17.6797 9.42519 17.3712 9.51814 17.0818" stroke="#232323" stroke-width="1.5" stroke-linecap="round" stroke-linejoin="round"/>
</svg>
