<svg width="24" height="24" viewBox="0 0 24 24" fill="none" xmlns="http://www.w3.org/2000/svg">
<path d="M9.22783 2.00222C5.22178 2.11544 2 6.54825 2 12C2 17.4873 5.26399 21.9424 9.3064 21.9994C9.32877 21.9998 13.9258 21.9999 15.2709 22C15.5165 22 15.7564 21.9931 15.9974 21.9453C17.3444 21.6782 22 20.1645 22 12C22 3.66274 16.4518 2.26071 15.0473 2.03936C14.8345 2.00581 14.6217 2.00001 14.4063 2.00005C13.2371 2.00023 9.27237 2.00096 9.22783 2.00222Z" fill="#BCFF8F"/>
<line x1="5.5" y1="9.5" x2="2.5" y2="9.5" stroke="black" stroke-linecap="round" stroke-linejoin="round"/>
<line x1="4.5" y1="13.5" x2="2.5" y2="13.5" stroke="black" stroke-linecap="round" stroke-linejoin="round"/>
<line x1="6.5" y1="17.5" x2="3.5" y2="17.5" stroke="black" stroke-linecap="round" stroke-linejoin="round"/>
<line x1="6.5" y1="5.5" x2="4.5" y2="5.5" stroke="black" stroke-linecap="round" stroke-linejoin="round"/>
<ellipse cx="13.5" cy="12" rx="10" ry="8.5" transform="rotate(90 13.5 12)" fill="#BCFF8F" stroke="black" stroke-linejoin="round"/>
<path d="M13.6423 22C13.6147 22 9.73085 21.9998 9.70327 21.9994C5.44128 21.9424 2 17.4873 2 12C2 6.54825 5.39678 2.11544 9.62044 2.00221C9.67552 2.00074 15.5316 2 13.6147 2" stroke="black" stroke-linecap="round" stroke-linejoin="round"/>
<path fill-rule="evenodd" clip-rule="evenodd" d="M14.5 6.99997C14.5 6.72383 14.2762 6.49997 14 6.49997C13.7239 6.49997 13.5 6.72383 13.5 6.99997V8.60227C13.3226 8.59753 13.1461 8.60002 12.9732 8.61119C12.4621 8.64418 11.9351 8.75566 11.5067 9.02251C11.0564 9.30295 10.7375 9.74337 10.665 10.3537C10.607 10.8422 10.661 11.2715 10.8319 11.6405C11.0035 12.0109 11.2743 12.2805 11.5829 12.4792C12.1382 12.8367 12.8721 12.9944 13.5 13.1184V15.3999C12.5549 15.3961 11.6026 15.1678 11.1833 14.9468C10.939 14.8181 10.6366 14.9117 10.5078 15.156C10.3791 15.4003 10.4727 15.7027 10.717 15.8315C11.3152 16.1467 12.4357 16.3959 13.5 16.3999V17.2C13.5 17.4761 13.7239 17.7 14 17.7C14.2762 17.7 14.5 17.4761 14.5 17.2V16.3214C14.8134 16.2666 15.1166 16.1798 15.3897 16.0505C15.8932 15.8122 16.3226 15.4127 16.4733 14.7971C16.5833 14.3479 16.5838 13.938 16.4476 13.5757C16.3097 13.2086 16.0537 12.9496 15.761 12.7652C15.4756 12.5854 15.1425 12.4682 14.8163 12.3801C14.7131 12.3521 14.6071 12.3263 14.5 12.302V9.71103C14.8931 9.78079 15.2585 9.87566 15.5465 9.97251C15.8082 10.0605 16.0918 9.91973 16.1798 9.65799C16.2678 9.39626 16.127 9.11272 15.8653 9.02469C15.4979 8.90113 15.018 8.77862 14.5 8.69716V6.99997ZM13.5 9.60264C13.3429 9.59771 13.1878 9.59941 13.0376 9.60911C12.6087 9.6368 12.2672 9.72692 12.0354 9.87132C11.8254 10.0021 11.6923 10.1826 11.658 10.4716C11.6167 10.8192 11.6625 11.0544 11.7393 11.2202C11.8155 11.3846 11.9404 11.52 12.1243 11.6384C12.462 11.8559 12.9352 11.9809 13.5 12.098V9.60264ZM14.5 13.3307V15.3016C14.6718 15.262 14.8271 15.2104 14.9619 15.1467C15.2719 14.9999 15.4414 14.807 15.502 14.5593C15.5798 14.2418 15.5568 14.048 15.5116 13.9276C15.4681 13.8119 15.3836 13.7093 15.228 13.6113C15.0652 13.5088 14.8421 13.4229 14.5554 13.3454C14.5371 13.3405 14.5186 13.3356 14.5 13.3307Z" fill="black"/>
</svg>
