<svg width="24" height="24" viewBox="0 0 24 24" fill="none" xmlns="http://www.w3.org/2000/svg">
<path fill-rule="evenodd" clip-rule="evenodd" d="M15.6014 2.4004C15.3816 2.18063 15.1051 2.1903 14.9534 2.21041C14.8101 2.22943 14.6383 2.2783 14.4747 2.32485L14.3487 2.36066L14.2463 2.29603C14.1077 2.2085 13.9589 2.11447 13.8264 2.05691C13.6771 1.99199 13.425 1.91813 13.1601 2.05735C12.9002 2.19391 12.8147 2.43838 12.7794 2.59395C12.7472 2.7355 12.7334 2.91252 12.7203 3.08086L12.7104 3.20836L12.7095 3.21899L12.598 3.31084C12.4647 3.42051 12.3264 3.53432 12.2282 3.64157C12.1243 3.75519 11.9641 3.96867 12.0048 4.26591C12.0469 4.5733 12.2695 4.73269 12.4086 4.80983C12.5345 4.87968 12.7003 4.94085 12.8548 4.99786L12.9637 5.03807L13.0039 5.14693C13.0609 5.30143 13.1221 5.46723 13.1919 5.59319C13.2691 5.73229 13.4285 5.95489 13.7359 5.99698C14.0331 6.03768 14.2466 5.87745 14.3602 5.77352C14.4674 5.67541 14.5813 5.53708 14.6909 5.40378L14.7828 5.29221L14.7934 5.29137L14.9209 5.28143C15.0892 5.26835 15.2663 5.2546 15.4078 5.22241C15.5634 5.18704 15.8079 5.10153 15.9444 4.8417C16.0836 4.57681 16.0098 4.32469 15.9449 4.17533C15.8873 4.04291 15.7933 3.89404 15.7058 3.75548L15.6411 3.65302L15.6769 3.52701C15.7235 3.36341 15.7723 3.19167 15.7914 3.04833C15.8115 2.89665 15.8211 2.62016 15.6014 2.4004ZM14.7018 3.29992L14.6239 3.32207L14.6033 3.32811C14.5279 3.35051 14.3708 3.3972 14.2071 3.37478C14.0395 3.35184 13.9008 3.2618 13.8365 3.2201L13.8193 3.20905L13.7184 3.14533L13.7074 3.2862L13.7058 3.30772C13.7005 3.38701 13.6898 3.54698 13.6134 3.69229C13.5381 3.83569 13.4138 3.9358 13.351 3.98644L13.3337 4.00042L13.2429 4.07516L13.3204 4.10379L13.3395 4.11063C13.4112 4.13601 13.5694 4.19203 13.6895 4.31222C13.8097 4.43241 13.8658 4.59061 13.8911 4.66226L13.898 4.68135L13.9266 4.75883L14.0013 4.66805L14.0153 4.6508C14.066 4.58795 14.1661 4.46369 14.3095 4.38833C14.4548 4.31195 14.6148 4.30123 14.694 4.29592L14.7156 4.29441L14.8564 4.2834L14.7927 4.18242L14.7817 4.16525C14.74 4.101 14.6499 3.96227 14.627 3.79471C14.6046 3.63095 14.6513 3.47385 14.6737 3.39845L14.6797 3.37786L14.7018 3.29992Z" fill="#56BE88"/>
<path d="M10.435 3.17037C10.6511 2.81696 10.5397 2.35533 10.1863 2.13928C9.8329 1.92323 9.37126 2.03458 9.15522 2.38799C8.63701 3.23566 8.76689 4.32796 9.46941 5.03048L9.56729 5.12836C9.76495 5.32603 9.83784 5.61641 9.75696 5.88399C9.63711 6.28049 9.86137 6.69907 10.2579 6.81892C10.6544 6.93877 11.0729 6.71451 11.1928 6.31801C11.4337 5.52114 11.2166 4.65636 10.6279 4.0677L10.5301 3.96982C10.3175 3.75728 10.2782 3.42682 10.435 3.17037Z" fill="#56BE88"/>
<path d="M7.68616 3.94078C7.47669 3.73131 7.13708 3.73131 6.92761 3.94078C6.71814 4.15025 6.71814 4.48986 6.92761 4.69933C7.13708 4.9088 7.47669 4.9088 7.68616 4.69933C7.89563 4.48986 7.89563 4.15025 7.68616 3.94078Z" fill="#56BE88"/>
<path d="M18.2774 5.60412C18.3587 5.19795 18.0953 4.80283 17.6891 4.7216C17.2829 4.64036 16.8878 4.90377 16.8066 5.30994L16.6626 6.02988C16.57 6.49286 16.2364 6.87073 15.7885 7.02004C14.8299 7.33957 14.116 8.14824 13.9179 9.13905L13.7739 9.85899C13.6926 10.2652 13.9561 10.6603 14.3622 10.7415C14.7684 10.8227 15.1635 10.5593 15.2447 10.1532L15.3887 9.43323C15.4813 8.97024 15.8149 8.59237 16.2628 8.44307C17.2214 8.12354 17.9353 7.31487 18.1335 6.32405L18.2774 5.60412Z" fill="#56BE88"/>
<path fill-rule="evenodd" clip-rule="evenodd" d="M22.5235 8.84225C22.7793 9.39616 22.6067 10.025 22.1395 10.4921C21.8687 10.763 21.5056 10.8857 21.1824 10.9432C20.8517 11.002 20.5021 11.0032 20.1959 10.9836C19.8866 10.9638 19.603 10.9215 19.398 10.8847C19.295 10.8662 19.2104 10.8488 19.1509 10.8358L19.1045 10.8255L19.0807 10.82L19.061 10.8154L19.0552 10.814L19.0533 10.8135C19.0532 10.8135 19.0522 10.8132 19.1723 10.3279L19.0522 10.8132C18.8721 10.7687 18.7315 10.6278 18.6869 10.4478L18.6862 10.445L18.6848 10.4392L18.6802 10.4195C18.6763 10.4028 18.6709 10.3791 18.6644 10.3493C18.6514 10.2897 18.634 10.2052 18.6155 10.1022C18.5787 9.89715 18.5364 9.61358 18.5166 9.30433C18.497 8.99809 18.4982 8.64853 18.557 8.31782C18.6145 7.99456 18.7372 7.63155 19.0081 7.36067C19.4752 6.89353 20.104 6.72087 20.6579 6.97672C21.0781 7.1708 21.3514 7.56358 21.4543 8.04587C21.9366 8.1488 22.3294 8.42208 22.5235 8.84225ZM19.596 9.90419C19.774 9.93559 20.0094 9.96958 20.2597 9.98561C20.5231 10.0025 20.7851 9.99818 21.0073 9.95866C21.2369 9.91782 21.3682 9.84929 21.4324 9.78503C21.6752 9.54228 21.6566 9.3503 21.6156 9.26158C21.5711 9.1652 21.4115 8.99876 21.0017 8.99986C20.8686 9.00021 20.7409 8.94751 20.6468 8.85341C20.5527 8.75932 20.5 8.63159 20.5003 8.49852C20.5014 8.08872 20.335 7.92907 20.2386 7.88455C20.1499 7.84358 19.9579 7.82502 19.7152 8.06777C19.6509 8.13203 19.5824 8.26329 19.5415 8.49292C19.502 8.71511 19.4977 8.97707 19.5146 9.24045C19.5306 9.49081 19.5646 9.72617 19.596 9.90419Z" fill="#56BE88"/>
<path d="M20.3308 13.7297C20.6262 13.4678 21.0468 13.4013 21.4085 13.5595L21.7 13.6869C22.0795 13.8529 22.5217 13.6797 22.6877 13.3002C22.8536 12.9207 22.6805 12.4785 22.3009 12.3126L22.0094 12.1851C21.112 11.7927 20.0684 11.9575 19.3356 12.6074C19.0094 12.8966 18.5347 12.9447 18.1572 12.7267L17.9443 12.6038C17.5856 12.3967 17.1269 12.5196 16.9198 12.8783C16.7127 13.2371 16.8356 13.6958 17.1943 13.9029L17.4072 14.0257C18.3439 14.5665 19.5215 14.4473 20.3308 13.7297Z" fill="#56BE88"/>
<path d="M19.0582 15.3134C19.2677 15.1039 19.6073 15.1039 19.8168 15.3134C20.0263 15.5228 20.0263 15.8624 19.8168 16.0719C19.6073 16.2814 19.2677 16.2814 19.0582 16.0719C18.8488 15.8624 18.8488 15.5228 19.0582 15.3134Z" fill="#56BE88"/>
<path d="M12.9157 7.1571C12.7062 6.94763 12.3666 6.94763 12.1571 7.1571C11.9476 7.36657 11.9476 7.70619 12.1571 7.91566C12.3666 8.12512 12.7062 8.12512 12.9157 7.91566C13.1251 7.70619 13.1251 7.36657 12.9157 7.1571Z" fill="#56BE88"/>
<path d="M17.1571 10.1571C17.3666 9.94763 17.7062 9.94763 17.9157 10.1571C18.1251 10.3666 18.1251 10.7062 17.9157 10.9157C17.7062 11.1251 17.3666 11.1251 17.1571 10.9157C16.9476 10.7062 16.9476 10.3666 17.1571 10.1571Z" fill="#56BE88"/>
<path fill-rule="evenodd" clip-rule="evenodd" d="M9.63883 6.88495C10.2252 7.31966 10.8997 7.99428 11.7184 8.81297L15.1861 12.2806C16.0048 13.0993 16.6794 13.7739 17.1141 14.3602C17.5632 14.966 17.8797 15.6392 17.6967 16.4145C17.5137 17.1898 16.9295 17.6504 16.2569 17.9914C15.6059 18.3214 14.7007 18.6231 13.6024 18.9891L8.41216 20.7192C7.08228 21.1626 6.0031 21.5223 5.16628 21.6712C4.32188 21.8214 3.46502 21.8062 2.82892 21.1701C2.19282 20.534 2.17766 19.6772 2.32788 18.8328C2.47674 17.9959 2.83651 16.9167 3.27986 15.5867L5.0099 10.3966C5.37598 9.29825 5.67764 8.39319 6.00766 7.74215C6.34863 7.06953 6.80924 6.48538 7.58454 6.30236C8.35984 6.11933 9.03306 6.43582 9.63883 6.88495ZM8.74547 8.0899C8.72799 8.07693 8.71087 8.06444 8.69409 8.0524C8.68258 8.11466 8.67035 8.18159 8.65751 8.25283C8.57252 8.72445 8.46116 9.38395 8.35587 10.1343C8.14324 11.6497 7.96341 13.4816 8.05547 14.8854C8.1112 15.7353 8.29321 16.8348 8.46696 17.7418C8.55301 18.191 8.63548 18.5852 8.69641 18.8669C8.70942 18.9271 8.72145 18.9821 8.73231 19.0314L11.367 18.1531C11.2977 17.9476 11.2147 17.683 11.1319 17.3749C10.9329 16.635 10.727 15.6175 10.727 14.5554C10.727 13.4401 10.932 12.4228 11.1328 11.6907C11.2338 11.3227 11.3351 11.0219 11.4122 10.8107C11.4301 10.7615 11.4468 10.7171 11.4619 10.6778L10.7021 9.91798C9.82789 9.0438 9.23158 8.4503 8.74547 8.0899ZM6.41309 10.9305C6.62205 10.3036 6.79587 9.78391 6.9542 9.35352C6.92625 9.53706 6.89814 9.7284 6.87042 9.92591C6.65529 11.4591 6.45603 13.4181 6.55868 14.9835C6.62079 15.9308 6.81787 17.1058 6.99374 18.024C7.08251 18.4874 7.16748 18.8935 7.2303 19.184C7.25934 19.3183 7.2837 19.428 7.30156 19.5075C6.26074 19.8512 5.49397 20.0893 4.90357 20.1944C4.1828 20.3226 3.98336 20.2032 3.88958 20.1095C3.7958 20.0157 3.67647 19.8162 3.80469 19.0955C3.93194 18.3801 4.25462 17.4059 4.72359 15.999L6.41309 10.9305ZM13.0686 17.586L12.79 17.6788C12.7291 17.4982 12.6548 17.2619 12.5804 16.9852C12.5265 16.785 12.4733 16.5662 12.4251 16.3342C12.3122 15.7904 12.227 15.174 12.227 14.5554C12.227 13.6153 12.4012 12.7371 12.5794 12.0876C12.6012 12.008 12.623 11.9322 12.6445 11.8604L14.0811 13.297C14.9552 14.1711 15.5487 14.7675 15.9091 15.2536C16.263 15.7308 16.2677 15.9389 16.2368 16.0699C16.2059 16.2008 16.1086 16.3849 15.5787 16.6535C15.0389 16.9271 14.2414 17.195 13.0686 17.586Z" fill="#56BE88"/>
</svg>
