<svg width="25" height="24" viewBox="0 0 25 24" fill="none" xmlns="http://www.w3.org/2000/svg">
<path d="M20.125 14.25V11.625C20.125 9.76104 18.614 8.25 16.75 8.25H15.25C14.6287 8.25 14.125 7.74632 14.125 7.125V5.625C14.125 3.76104 12.614 2.25 10.75 2.25H8.875M9.625 16.5V17.25M12.625 14.25V17.25M15.625 12V17.25M11.125 2.25H6.25C5.62868 2.25 5.125 2.75368 5.125 3.375V20.625C5.125 21.2463 5.62868 21.75 6.25 21.75H19C19.6213 21.75 20.125 21.2463 20.125 20.625V11.25C20.125 6.27944 16.0956 2.25 11.125 2.25Z" stroke="#0F172A" stroke-width="1.5" stroke-linecap="round" stroke-linejoin="round"/>
</svg>
