<svg width="20" height="21" viewBox="0 0 20 21" fill="none" xmlns="http://www.w3.org/2000/svg">
<path d="M9.16669 14.6666L10.8334 16.3333C10.9975 16.4975 11.1924 16.6277 11.4069 16.7165C11.6213 16.8054 11.8512 16.8511 12.0834 16.8511C12.3155 16.8511 12.5454 16.8054 12.7598 16.7165C12.9743 16.6277 13.1692 16.4975 13.3334 16.3333C13.4975 16.1692 13.6277 15.9743 13.7166 15.7598C13.8054 15.5453 13.8511 15.3155 13.8511 15.0833C13.8511 14.8512 13.8054 14.6213 13.7166 14.4068C13.6277 14.1923 13.4975 13.9975 13.3334 13.8333" stroke="#232323" stroke-width="1.5" stroke-linecap="round" stroke-linejoin="round"/>
<path d="M11.6667 12.1667L13.75 14.25C14.0815 14.5815 14.5312 14.7678 15 14.7678C15.4688 14.7678 15.9185 14.5815 16.25 14.25C16.5815 13.9185 16.7678 13.4688 16.7678 13C16.7678 12.5312 16.5815 12.0815 16.25 11.75L13.0167 8.51666C12.5479 8.04849 11.9125 7.78552 11.25 7.78552C10.5875 7.78552 9.95209 8.04849 9.48334 8.51666L8.75001 9.24999C8.41848 9.58151 7.96885 9.76776 7.50001 9.76776C7.03116 9.76776 6.58153 9.58151 6.25001 9.24999C5.91849 8.91847 5.73224 8.46883 5.73224 7.99999C5.73224 7.53115 5.91849 7.08151 6.25001 6.74999L8.59167 4.40833C9.35187 3.65011 10.3433 3.16712 11.4089 3.0358C12.4745 2.90449 13.5535 3.13235 14.475 3.68333L14.8667 3.91666C15.2215 4.13081 15.6434 4.20509 16.05 4.12499L17.5 3.83333" stroke="#232323" stroke-width="1.5" stroke-linecap="round" stroke-linejoin="round"/>
<path d="M17.5 3L18.3334 12.1667H16.6667" stroke="#232323" stroke-width="1.5" stroke-linecap="round" stroke-linejoin="round"/>
<path d="M2.50002 3L1.66669 12.1667L7.08335 17.5833C7.41487 17.9149 7.86451 18.1011 8.33335 18.1011C8.80219 18.1011 9.25183 17.9149 9.58335 17.5833C9.91487 17.2518 10.1011 16.8022 10.1011 16.3333C10.1011 15.8645 9.91487 15.4149 9.58335 15.0833" stroke="#232323" stroke-width="1.5" stroke-linecap="round" stroke-linejoin="round"/>
<path d="M2.5 3.83331H9.16667" stroke="#232323" stroke-width="1.5" stroke-linecap="round" stroke-linejoin="round"/>
</svg>
