<svg width="25" height="24" viewBox="0 0 25 24" fill="none" xmlns="http://www.w3.org/2000/svg">
<path d="M4.625 9.74995L11.3295 3.04545C11.7688 2.60611 12.4812 2.60611 12.9205 3.04545L19.625 9.74995V19.875C19.625 20.4963 19.1213 21 18.5 21H16.625H14.375H9.875H8.375H5.75C5.12868 21 4.625 20.4963 4.625 19.875V9.74995Z" fill="#BCFF8F"/>
<path d="M2.375 12L11.3295 3.04545C11.7688 2.60611 12.4812 2.60611 12.9205 3.04545L21.875 12M4.625 9.74995V19.875C4.625 20.4963 5.12868 21 5.75 21H9.875V16.125C9.875 15.5036 10.3787 15 11 15H13.25C13.8713 15 14.375 15.5036 14.375 16.125V21H18.5C19.1213 21 19.625 20.4963 19.625 19.875V9.74995M8.375 21H16.625" stroke="#232323" stroke-width="1.5" stroke-linecap="round" stroke-linejoin="round"/>
</svg>
