<svg width="25" height="24" viewBox="0 0 25 24" fill="none" xmlns="http://www.w3.org/2000/svg">
<path d="M2.75 6.75C2.75 5.50736 3.75736 4.5 5 4.5H20C21.2426 4.5 22.25 5.50736 22.25 6.75V17.25C22.25 18.4926 21.2426 19.5 20 19.5H5C3.75736 19.5 2.75 18.4926 2.75 17.25V6.75Z" fill="#BCFF8F"/>
<path d="M11 9.375C11 10.4105 10.1605 11.25 9.125 11.25C8.08947 11.25 7.25 10.4105 7.25 9.375C7.25 8.33947 8.08947 7.5 9.125 7.5C10.1605 7.5 11 8.33947 11 9.375Z" fill="#BCFF8F"/>
<path d="M9.12484 16.5C10.2702 16.5 11.3489 16.2147 12.2939 15.7114C11.8198 14.4207 10.5799 13.5 9.12484 13.5C7.66983 13.5 6.42986 14.4207 5.95581 15.7114C6.90074 16.2147 7.97948 16.5 9.12484 16.5Z" fill="#BCFF8F"/>
<path d="M15.5 9H19.25M15.5 12H19.25M15.5 15H19.25M5 19.5H20C21.2426 19.5 22.25 18.4926 22.25 17.25V6.75C22.25 5.50736 21.2426 4.5 20 4.5H5C3.75736 4.5 2.75 5.50736 2.75 6.75V17.25C2.75 18.4926 3.75736 19.5 5 19.5ZM11 9.375C11 10.4105 10.1605 11.25 9.125 11.25C8.08947 11.25 7.25 10.4105 7.25 9.375C7.25 8.33947 8.08947 7.5 9.125 7.5C10.1605 7.5 11 8.33947 11 9.375ZM12.2939 15.7114C11.3489 16.2147 10.2702 16.5 9.12484 16.5C7.97948 16.5 6.90074 16.2147 5.95581 15.7114C6.42986 14.4207 7.66983 13.5 9.12484 13.5C10.5799 13.5 11.8198 14.4207 12.2939 15.7114Z" stroke="#0F172A" stroke-width="1.5" stroke-linecap="round" stroke-linejoin="round"/>
</svg>
