<svg width="25" height="24" viewBox="0 0 25 24" fill="none" xmlns="http://www.w3.org/2000/svg">
<path d="M4.625 3.375C4.625 2.75368 5.12868 2.25 5.75 2.25H10.625C15.5956 2.25 19.625 6.27944 19.625 11.25V20.625C19.625 21.2463 19.1213 21.75 18.5 21.75H5.75C5.12868 21.75 4.625 21.2463 4.625 20.625V3.375Z" fill="#BCFF8F"/>
<path d="M19.625 14.25V11.625C19.625 9.76104 18.114 8.25 16.25 8.25H14.75C14.1287 8.25 13.625 7.74632 13.625 7.125V5.625C13.625 3.76104 12.114 2.25 10.25 2.25H8.375M8.375 15H15.875M8.375 18H12.125M10.625 2.25H5.75C5.12868 2.25 4.625 2.75368 4.625 3.375V20.625C4.625 21.2463 5.12868 21.75 5.75 21.75H18.5C19.1213 21.75 19.625 21.2463 19.625 20.625V11.25C19.625 6.27944 15.5956 2.25 10.625 2.25Z" stroke="#0F172A" stroke-width="1.5" stroke-linecap="round" stroke-linejoin="round"/>
</svg>
