<svg width="18" height="18" viewBox="0 0 18 18" fill="none" xmlns="http://www.w3.org/2000/svg">
<path d="M2.8834 5.9417C2.03887 5.09717 2.03887 3.72792 2.8834 2.8834C3.72792 2.03887 5.09717 2.03887 5.9417 2.8834L15.1166 12.0583C15.9611 12.9028 15.9611 14.2721 15.1166 15.1166C14.2721 15.9611 12.9028 15.9611 12.0583 15.1166L2.8834 5.9417Z" stroke="#1C274C" stroke-width="1.5"/>
<path d="M4.5 7.5L7.5 4.5" stroke="#1C274C" stroke-width="1.5" stroke-linecap="round"/>
<path d="M12.075 1.73039C12.1957 1.4232 12.6289 1.4232 12.7496 1.73039L13.0724 2.55186C13.1092 2.64564 13.1832 2.71988 13.2766 2.75687L14.0951 3.08085C14.4011 3.202 14.4011 3.63675 14.0951 3.75791L13.2766 4.08189C13.1832 4.11888 13.1092 4.19312 13.0724 4.2869L12.7496 5.10837C12.6289 5.41556 12.1957 5.41556 12.075 5.10837L11.7522 4.2869C11.7154 4.19312 11.6414 4.11888 11.548 4.08189L10.7295 3.75791C10.4235 3.63675 10.4235 3.202 10.7295 3.08085L11.548 2.75687C11.6414 2.71988 11.7154 2.64564 11.7522 2.55186L12.075 1.73039Z" stroke="#56BE88"/>
<path d="M14.9754 6.84709C15.0961 6.5399 15.5292 6.5399 15.6499 6.84709L15.7676 7.1466C15.8045 7.24039 15.8785 7.31463 15.9719 7.35162L16.2703 7.46974C16.5764 7.59089 16.5764 8.02564 16.2703 8.1468L15.9719 8.26492C15.8785 8.30191 15.8045 8.37615 15.7676 8.46994L15.6499 8.76945C15.5292 9.07664 15.0961 9.07664 14.9754 8.76945L14.8577 8.46994C14.8208 8.37615 14.7469 8.30191 14.6534 8.26492L14.355 8.1468C14.049 8.02564 14.049 7.59089 14.355 7.46974L14.6534 7.35162C14.7469 7.31463 14.8208 7.24039 14.8577 7.1466L14.9754 6.84709Z" stroke="#56BE88"/>
<path d="M3.8499 11.4804C3.97061 11.1732 4.40375 11.1732 4.52446 11.4804L4.64215 11.7799C4.679 11.8737 4.75297 11.9479 4.84641 11.9849L5.14481 12.103C5.45087 12.2242 5.45087 12.6589 5.14481 12.7801L4.84641 12.8982C4.75297 12.9352 4.679 13.0094 4.64215 13.1032L4.52446 13.4027C4.40375 13.7099 3.97061 13.7099 3.8499 13.4027L3.73221 13.1032C3.69536 13.0094 3.62139 12.9352 3.52795 12.8982L3.22954 12.7801C2.92349 12.6589 2.92349 12.2242 3.22954 12.103L3.52795 11.9849C3.62139 11.9479 3.69536 11.8737 3.73221 11.7799L3.8499 11.4804Z" stroke="#56BE88"/>
</svg>
