<svg width="41" height="41" viewBox="0 0 41 41" fill="none" xmlns="http://www.w3.org/2000/svg">
<g clip-path="url(#clip0_435_1648)">
<path d="M21.496 3.83608L24.3479 1.30345C24.6045 1.07564 25.009 1.16795 25.1413 1.48449L26.6137 5.00721C26.9066 5.70803 27.6771 6.07927 28.4078 5.8716L32.0725 4.82991C32.4022 4.7362 32.7263 4.99447 32.7085 5.33677L32.5106 9.15306C32.4713 9.91055 33.0036 10.5782 33.7509 10.7085L37.5093 11.3639C37.8468 11.4227 38.0265 11.7957 37.8622 12.0963L36.0278 15.4521C35.6642 16.1173 35.8541 16.9492 36.4703 17.3908L39.575 19.6157C39.8532 19.8151 39.8533 20.2289 39.5751 20.4284L36.4696 22.6558C35.8538 23.0975 35.6641 23.9291 36.0277 24.5941L37.8622 27.9502C38.0265 28.2508 37.8468 28.6238 37.5093 28.6826L33.7509 29.338C33.0036 29.4683 32.4713 30.136 32.5106 30.8935L32.7085 34.7097C32.7263 35.052 32.4022 35.3103 32.0725 35.2166L28.4078 34.1749C27.6771 33.9672 26.9066 34.3385 26.6137 35.0393L25.1413 38.562C25.009 38.8786 24.6045 38.9709 24.3479 38.7431L21.496 36.2104C20.9279 35.7059 20.0721 35.7059 19.504 36.2104L16.6521 38.7431C16.3955 38.9709 15.991 38.8786 15.8587 38.562L14.3863 35.0393C14.0934 34.3385 13.3229 33.9672 12.5922 34.1749L8.92749 35.2166C8.5978 35.3103 8.2737 35.052 8.29146 34.7098L8.48943 30.8935C8.52873 30.136 7.99637 29.4683 7.24914 29.338L3.49066 28.6826C3.15324 28.6238 2.97354 28.2508 3.13782 27.9502L4.97235 24.5941C5.33586 23.9291 5.14622 23.0975 4.53038 22.6558L1.42486 20.4284C1.14667 20.2289 1.14675 19.8151 1.42502 19.6157L4.52974 17.3908C5.14594 16.9492 5.3358 16.1173 4.97218 15.4521L3.13782 12.0963C2.97354 11.7957 3.15324 11.4227 3.49066 11.3639L7.24914 10.7085C7.99637 10.5782 8.52873 9.91055 8.48943 9.15306L8.29146 5.33676C8.2737 4.99447 8.59779 4.7362 8.92749 4.82991L12.5922 5.8716C13.3229 6.07927 14.0934 5.70803 14.3863 5.00721L15.8587 1.48449C15.991 1.16795 16.3955 1.07564 16.6521 1.30345L19.504 3.83608C20.0721 4.34063 20.9279 4.34063 21.496 3.83608Z" fill="#56BE88" fill-opacity="0.73" stroke="#56BE88"/>
</g>
<defs>
<clipPath id="clip0_435_1648">
<rect width="41" height="40.0465" fill="white"/>
</clipPath>
</defs>
</svg>
