<svg width="151" height="152" viewBox="0 0 151 152" fill="none" xmlns="http://www.w3.org/2000/svg">
<path d="M53.1076 101.819L66.6051 21.6163C67.1588 18.3268 64.9408 15.2113 61.6513 14.6576L24.5193 8.40856C21.2298 7.85498 18.1143 10.0729 17.5607 13.3624L4.06317 93.5643C3.50956 96.8539 5.72747 99.9698 9.01705 100.523L46.1489 106.772C49.4385 107.326 52.554 105.108 53.1076 101.819Z" fill="url(#paint0_linear_145_1431)"/>
<path d="M61.7552 14.3626L24.5171 8.09608C21.094 7.51701 17.8399 9.83484 17.2653 13.2588L3.75012 93.5674C3.0978 97.4473 6.16386 101.172 10.1351 101.841L47.3725 108.107C50.7994 108.683 54.0444 106.397 54.625 102.944L68.1395 22.6344C68.7329 19.1168 66.2935 15.1244 61.7545 14.3611L61.7552 14.3626ZM4.35941 93.67L17.8746 13.3614C18.3948 10.272 21.3257 8.18592 24.4152 8.70536L61.6533 14.9726C64.7465 15.4928 66.8296 18.4199 66.3094 21.5124L52.7941 101.822C52.2739 104.909 49.34 107 46.2536 106.478L9.01546 100.211C5.92905 99.6919 3.84072 96.758 4.35941 93.6716V93.67Z" fill="black"/>
<path d="M50.2649 17.2701C49.6956 16.4683 48.425 16.7537 48.2619 17.7306C48.1479 18.4071 48.6703 19.0277 49.3612 19.0277C50.2687 19.0277 50.7836 17.9979 50.2649 17.2701Z" fill="black"/>
<path d="M48.126 14.6714C47.9629 14.4403 48.1403 14.5672 37.6239 12.7733C37.3869 12.7333 37.1581 12.8949 37.1166 13.1349C37.0773 13.3743 37.2396 13.6015 37.4782 13.6415L47.7681 15.3675C48.1267 15.3675 48.3313 14.9583 48.126 14.6714Z" fill="black"/>
<path d="M31.5847 13.5004C31.9969 13.5698 32.2748 13.9602 32.2053 14.3716L32.1072 14.956C31.8784 16.3135 32.7942 17.5985 34.1509 17.8273L49.4676 20.4048C50.8251 20.6336 52.1101 19.7178 52.3389 18.3611L52.437 17.7767C52.5065 17.3645 52.8968 17.0866 53.3083 17.1561L60.0271 18.2871C61.7643 18.5793 62.9361 20.2252 62.6439 21.9624L49.3529 100.941C49.1294 102.267 47.8738 103.161 46.5488 102.938L10.641 96.8954C8.90374 96.6032 7.73198 94.9573 8.02417 93.2201L21.1899 14.9862C21.482 13.249 23.1279 12.0772 24.8652 12.3694L31.5847 13.5004Z" fill="white"/>
<path d="M60.0791 17.9821L53.3604 16.8511C52.7723 16.7544 52.2294 17.1493 52.1328 17.7254L52.0346 18.309C51.8346 19.4958 50.7179 20.3037 49.519 20.0998L34.203 17.5223C33.0162 17.3222 32.2129 16.1942 32.4122 15.0074L32.5111 14.4238C32.6085 13.8424 32.2181 13.2935 31.6368 13.1954L24.918 12.0644C23.0283 11.7428 21.2087 13.0157 20.8863 14.9349L7.7199 93.168C7.39827 95.0751 8.68177 96.8781 10.5904 97.2004L46.9588 103.282C48.2491 103.282 49.4306 102.355 49.6579 100.992L62.9489 22.0145C63.2698 20.1112 61.9825 18.3022 60.0791 17.9821ZM31.901 14.3211L31.8029 14.9047C31.5462 16.4283 32.576 17.8764 34.1004 18.1323L49.417 20.7099C50.9346 20.9658 52.3857 19.9345 52.6432 18.4124C52.7375 17.8537 52.7277 17.6771 52.924 17.5381C53.1422 17.3841 52.7013 17.3675 59.9765 18.5921C61.5431 18.8556 62.6031 20.3452 62.3396 21.9111L49.0486 100.889C48.8515 102.048 47.7621 102.826 46.6001 102.633L10.6916 96.5897C9.12269 96.3262 8.06494 94.8396 8.32843 93.2707L21.4949 15.0383C21.7357 13.6129 22.9679 12.6344 24.3299 12.6344C24.6795 12.6344 24.3677 12.6057 31.5341 13.8062C31.778 13.8469 31.9426 14.078 31.901 14.3211Z" fill="black"/>
<path d="M45.7311 97.479C46.6311 97.6308 47.4842 97.0238 47.6352 96.1231L49.3936 85.7116C49.5454 84.8117 48.9383 83.9585 48.0376 83.8075L14.4696 78.2001C13.5696 78.0484 12.7165 78.6554 12.5655 79.5561L10.8071 89.9676C10.6553 90.8675 11.2623 91.7207 12.163 91.8717L45.7311 97.479Z" fill="white"/>
<path d="M48.0837 83.538L14.5156 77.9298C13.4662 77.7531 12.4726 78.4606 12.2974 79.51L10.5383 89.9215C10.3616 90.9717 11.0683 91.9645 12.1193 92.1412L45.6873 97.7493C46.7338 97.926 47.7288 97.2253 47.9055 96.1691L49.6639 85.7577C49.8413 84.7052 49.1331 83.7146 48.0837 83.538ZM49.1248 85.6663L47.3664 96.0785C47.2426 96.8131 46.5435 97.3386 45.7764 97.2095L12.2099 91.6021C11.4571 91.4753 10.952 90.7656 11.0774 90.0136L12.8373 79.6021C12.9626 78.8494 13.6731 78.3451 14.4258 78.4704L47.9931 84.0778C48.7496 84.2054 49.2509 84.9189 49.1248 85.6663Z" fill="black"/>
<path d="M37.5665 85.4428C37.5907 85.2503 37.4593 85.0729 37.2683 85.0404L28.234 83.5115C28.0309 83.4775 27.8406 83.6187 27.815 83.8226L27.7795 84.1019C27.7553 84.2945 27.8867 84.4719 28.0777 84.5043L37.112 86.0332C37.3151 86.0672 37.5054 85.926 37.5311 85.7222L37.5665 85.4428Z" fill="black"/>
<path d="M35.6858 86.9468L27.9184 85.6338C27.7153 85.5999 27.525 85.741 27.4993 85.9449L27.4639 86.2242C27.4397 86.4168 27.5711 86.5942 27.7621 86.6267L35.5295 87.9396C35.7326 87.9736 35.9229 87.8324 35.9485 87.6286L35.984 87.3492C36.0082 87.1567 35.8768 86.9792 35.6858 86.9468Z" fill="black"/>
<path d="M28.2015 91.618C28.0671 91.5983 28.1222 91.4579 28.157 91.2254C27.5371 91.057 27.3038 90.6629 27.34 90.3118C27.3461 90.271 27.3906 90.2333 27.4412 90.2409C27.8987 90.3088 27.9146 90.3035 27.9478 90.339C28.0248 90.4205 28.0158 90.6916 28.4801 90.761C28.7277 90.798 29.0124 90.7724 29.0486 90.5255C29.1294 89.9819 27.448 90.1065 27.6051 89.0502C27.6609 88.6727 27.9788 88.3549 28.5813 88.3662C28.6454 87.9328 28.5828 87.9804 29.0229 88.0461C29.1422 88.0634 29.103 88.1714 29.0622 88.4462C29.8248 88.6871 29.9305 89.4209 29.7062 89.3877C29.2064 89.3137 29.226 89.322 29.186 89.2941C29.0992 89.2337 29.1822 89.165 29.0245 89.0261C28.8697 88.8886 28.5662 88.8592 28.4069 88.9279C28.2498 88.9959 28.2189 89.1914 28.2936 89.3031C28.496 89.6059 29.4344 89.6829 29.6602 90.1797C29.8414 90.5798 29.6481 91.3205 28.6379 91.2986C28.5737 91.732 28.6356 91.6844 28.2 91.6195L28.2015 91.618Z" fill="black"/>
<path d="M31.5039 92.2092C31.3695 92.1895 31.4246 92.0491 31.4593 91.8166C30.8395 91.6482 30.6062 91.2541 30.6424 90.903C30.6485 90.8622 30.693 90.8245 30.7436 90.832C31.2011 90.9 31.217 90.8947 31.2502 90.9302C31.3272 91.0117 31.3181 91.2828 31.7825 91.3522C32.0301 91.3892 32.3147 91.3636 32.351 91.1167C32.4318 90.5731 30.7504 90.6976 30.9074 89.6414C30.9633 89.2639 31.2811 88.946 31.8836 88.9574C31.9478 88.524 31.8851 88.5716 32.3253 88.6373C32.4446 88.6546 32.4053 88.7626 32.3646 89.0374C33.1271 89.2782 33.2328 90.0121 33.0086 89.9789C32.5088 89.9049 32.5284 89.9132 32.4884 89.8853C32.4016 89.8249 32.4846 89.7562 32.3268 89.6172C32.172 89.4798 31.8685 89.4504 31.7092 89.5191C31.5522 89.587 31.5212 89.7826 31.596 89.8943C31.7983 90.1971 32.7368 90.2741 32.9625 90.7709C33.1437 91.171 32.9504 91.9117 31.9403 91.8898C31.8761 92.3232 31.938 92.2756 31.5024 92.2107L31.5039 92.2092Z" fill="black"/>
<path d="M45.3536 86.447C42.4687 83.6316 37.5544 85.6965 37.6035 89.7705C37.633 92.2167 39.6367 94.302 42.2234 94.2771C46.2913 94.2386 48.2437 89.2661 45.3536 86.447ZM39.2924 86.909C40.8364 85.3258 43.38 85.2843 44.9716 86.8388C47.5076 89.3145 45.8089 93.7078 42.2173 93.7297C38.5707 93.7523 36.8447 89.4179 39.2924 86.909Z" fill="black"/>
<path d="M44.0867 89.4821L42.6047 89.2035L42.8531 87.8573C42.8908 87.6557 42.7526 87.4617 42.5503 87.4323L42.3578 87.4036C42.1683 87.3756 41.9863 87.5025 41.9493 87.695L41.7024 89.0344L40.1645 88.7452C39.9705 88.7067 39.7704 88.8366 39.7379 89.0464L39.7092 89.2382C39.6806 89.4307 39.8074 89.6112 39.9992 89.6482L41.5363 89.9373L41.2268 91.6202C41.189 91.8211 41.3234 92.0159 41.5296 92.0461C41.7055 92.0717 41.7342 92.0785 41.7742 92.0785C41.9463 92.0785 42.0966 91.957 42.1298 91.7833L42.4386 90.1065C43.756 90.3541 43.9116 90.3919 43.9908 90.3919C44.1622 90.3919 44.3185 90.2673 44.348 90.0846L44.3774 89.8928C44.4061 89.7003 44.2785 89.5191 44.0867 89.4821Z" fill="black"/>
<path d="M15.6406 81.9208C15.6406 81.9208 15.673 81.1227 16.2619 81.0548C16.4658 81.0314 16.7255 81.1522 17.0517 81.5765C17.6111 82.3035 18.2944 82.6161 18.4318 82.6705C18.5186 82.179 19.7606 81.6248 20.4952 82.5157C20.7217 85.1031 23.2042 87.4919 23.4594 87.6248C25.1664 88.5134 24.9037 89.0842 24.6704 89.3409C24.4023 89.6361 22.5292 90.2733 20.7096 89.2903C18.6538 88.1797 17.3476 86.2892 14.1925 85.5727C14.1925 85.5727 13.9494 83.2473 15.6406 81.9208Z" fill="#FFD997"/>
<path d="M15.8437 86.0211C16.2363 84.7029 15.4216 83.4775 14.6478 83.208C14.3201 83.8354 14.1827 84.604 14.1827 85.476L15.8437 86.0211Z" fill="#81F8F8"/>
<path d="M21.0419 89.4518C22.752 90.1978 24.419 89.6194 24.6705 89.3408C24.9045 89.0834 25.1673 88.5134 23.4594 87.6247C22.8645 87.3144 21.4217 88.1034 21.0419 89.4518Z" fill="#81F8F8"/>
<path d="M21.8142 84.4122C21.1173 83.7765 18.8139 84.7074 19.0027 85.59C19.0661 85.8898 19.2707 86.0544 19.5614 86.0544C20.0868 86.0544 20.274 85.7086 21.5492 85.4028C22.1094 85.2684 22.1532 84.7225 21.8142 84.4122Z" fill="white"/>
<path d="M22.6433 85.4994C21.9426 84.8577 19.6444 85.7992 19.8317 86.6772C19.8951 86.9754 20.0989 87.1416 20.3904 87.1416C20.8985 87.1416 21.1401 86.7859 22.3775 86.49C22.9332 86.3571 22.9868 85.8128 22.6433 85.4994Z" fill="white"/>
<path d="M23.5862 87.3817C23.1868 87.1718 23.1604 87.0895 22.7904 86.6259C23.408 86.2091 23.2132 85.2125 22.3042 85.0276C22.4122 84.4628 21.9599 83.8422 20.9633 83.9117C20.807 83.5153 20.8002 83.0933 20.7791 82.6546C20.7353 81.7312 18.8304 81.5387 18.3367 82.3209C18.0868 82.1857 17.6443 81.8988 17.2683 81.4096C16.9127 80.9475 16.5753 80.7422 16.2295 80.783C15.6912 80.8456 15.4375 81.3492 15.3786 81.7803C13.8535 83.0547 13.8807 85.0306 13.9124 85.5145C13.5062 85.9932 13.2759 86.6908 13.6655 87.1831C13.8278 87.3877 14.1532 87.6104 14.7912 87.5289C15.1627 88.0317 15.5938 88.0921 16.0249 88.0657C16.3669 88.6206 16.7972 88.7497 17.1876 88.7844C17.4299 89.4504 17.8784 89.6097 18.3012 89.661C18.5534 90.2423 19.0283 90.3941 19.5145 90.4598C19.9199 91.0925 20.4326 91.1212 20.9376 91.0389C21.4684 91.5734 21.9803 91.4889 22.3767 91.3348C22.8976 91.6633 23.2887 91.624 23.7704 91.3114C23.9486 91.3907 24.2453 91.4655 24.5609 91.3039C25.2177 90.9717 25.1136 89.5764 25.0607 89.2306C25.371 88.4386 24.3284 87.7675 23.5862 87.3817ZM22.4469 85.7139C22.6296 85.88 22.6266 86.1321 22.3095 86.2076C20.9852 86.5255 20.2393 87.2057 20.1162 86.6168C19.9984 86.0732 21.9229 85.2367 22.4469 85.7139ZM21.1256 84.487C21.6926 84.487 21.8308 84.8433 21.6896 85.0094C20.8908 85.0993 20.3125 85.5055 20.2363 85.5417C19.8399 85.7335 19.3725 85.9305 19.2872 85.5289C19.1898 85.0789 20.4076 84.487 21.1256 84.487ZM15.5802 82.3337C15.9124 82.9626 17.1362 83.809 18.2189 83.9532C18.2574 84.1261 18.3012 84.265 18.3321 84.3541C18.4945 84.8162 18.9905 84.5428 18.8667 84.2242C18.6976 83.7841 18.5345 82.823 18.875 82.5247C19.1596 82.2794 20.2181 82.3858 20.234 82.6833C20.2574 83.1272 20.2604 83.5546 20.4159 84.0076C19.6187 84.2235 18.5466 84.8456 18.7187 85.6497C18.8093 86.0732 19.1234 86.3443 19.562 86.3443C19.4548 86.7203 19.633 87.1665 19.9947 87.3447C20.6311 87.6535 21.0932 87.1393 22.1796 86.8403C22.206 86.903 22.5632 87.3288 22.6047 87.3741C21.9365 87.6368 21.0637 88.3458 20.841 89.0479C19.1838 88.151 18.1275 86.8516 16.1381 85.9381C16.4416 84.6553 15.7478 83.5123 14.9973 83.0782C15.1476 82.8162 15.3378 82.5625 15.5802 82.3322V82.3337ZM14.7738 83.5598C15.3099 83.8898 15.8112 84.7339 15.6519 85.6799L14.4552 85.2873C14.4514 84.7286 14.5526 84.0823 14.7738 83.5598ZM24.3155 90.8154C24.117 90.9151 23.9267 90.7769 23.9214 90.7716C23.8263 90.6969 23.6949 90.6976 23.5968 90.7678C23.1724 91.0713 22.9973 91.1114 22.5692 90.8026C22.4899 90.7444 22.3842 90.7346 22.2974 90.7746C21.3559 91.1982 21.3937 90.3971 20.9837 90.4741C19.8799 90.6991 20.0951 89.9721 19.7108 89.932C19.1664 89.8732 18.9007 89.7712 18.7602 89.3235C18.7278 89.2148 18.6296 89.137 18.5156 89.1302C17.4337 89.0661 17.8799 88.2605 17.399 88.2484C16.3314 88.2235 16.5851 87.4473 16.1472 87.5055C15.7191 87.5538 15.4367 87.55 15.1566 87.0872C15.0962 86.9898 14.9799 86.9385 14.869 86.9619C14.4907 87.0381 14.2166 86.9951 14.0966 86.8433C13.9826 86.6991 13.9977 86.4606 14.08 86.2816C14.1887 86.0415 14.2468 85.9275 14.2785 85.8732C18.3019 86.8516 19.5303 90.0891 22.8267 90.0891C23.5356 90.0891 24.1758 89.932 24.5647 89.7388C24.5609 90.1646 24.4794 90.7316 24.317 90.8139L24.3155 90.8154ZM24.468 89.1567C24.2914 89.3537 22.8659 89.8535 21.3438 89.2797C21.4624 88.678 22.8048 87.5931 23.334 87.8671C23.8512 88.1367 24.8614 88.7263 24.468 89.1567Z" fill="black"/>
<path d="M48.6899 80.7716C49.5899 80.9234 50.443 80.3164 50.594 79.4157L52.3525 69.0043C52.5042 68.1043 51.8971 67.2512 50.9964 67.1002L17.4284 61.4928C16.5284 61.341 15.6753 61.9481 15.5243 62.8488L13.7659 73.2602C13.6141 74.1602 14.2211 75.0133 15.1218 75.1643L48.6899 80.7716Z" fill="white"/>
<path d="M51.0426 66.8306L17.4745 61.2225C16.425 61.0458 15.4315 61.7532 15.2563 62.8027L13.4972 73.2141C13.3205 74.2644 14.0272 75.2572 15.0781 75.4338L48.6462 81.0419C49.6926 81.2186 50.6877 80.5179 50.8644 79.4617L52.6228 69.0503C52.8002 67.9978 52.092 67.0073 51.0426 66.8306ZM52.0837 68.959L50.3253 79.3711C50.2015 80.1057 49.5024 80.6312 48.7353 80.5021L15.1687 74.8948C14.416 74.7679 13.9109 74.0582 14.0362 73.3063L15.7961 62.8948C15.9215 62.1421 16.6319 61.6377 17.3847 61.7631L50.952 67.3704C51.7085 67.498 52.2098 68.2115 52.0837 68.959Z" fill="black"/>
<path d="M40.5261 68.7354C40.5502 68.5429 40.4189 68.3655 40.2278 68.333L31.1935 66.8041C30.9904 66.7701 30.8002 66.9113 30.7745 67.1152L30.739 67.3945C30.7148 67.5871 30.8462 67.7645 31.0372 67.7969L40.0716 69.3258C40.2747 69.3598 40.4649 69.2186 40.4906 69.0148L40.5261 68.7354Z" fill="black"/>
<path d="M38.6454 70.2394L30.878 68.9265C30.6749 68.8925 30.4846 69.0337 30.4589 69.2376L30.4235 69.5169C30.3993 69.7094 30.5307 69.8869 30.7217 69.9193L38.4891 71.2323C38.6922 71.2662 38.8825 71.1251 38.9081 70.9212L38.9436 70.6419C38.9678 70.4493 38.8364 70.2719 38.6454 70.2394Z" fill="black"/>
<path d="M31.1604 74.9106C31.026 74.891 31.0811 74.7506 31.1158 74.518C30.496 74.3497 30.2627 73.9556 30.2989 73.6045C30.3049 73.5637 30.3495 73.526 30.4001 73.5335C30.8576 73.6015 30.8735 73.5962 30.9067 73.6317C30.9837 73.7132 30.9746 73.9842 31.439 74.0537C31.6866 74.0907 31.9712 74.065 32.0075 73.8181C32.0883 73.2745 30.4069 73.3991 30.5639 72.3429C30.6198 71.9654 30.9376 71.6475 31.5401 71.6588C31.6043 71.2255 31.5416 71.273 31.9818 71.3387C32.1011 71.3561 32.0618 71.4641 32.0211 71.7389C32.7836 71.9797 32.8893 72.7136 32.6651 72.6804C32.1653 72.6064 32.1849 72.6147 32.1449 72.5867C32.0581 72.5263 32.1411 72.4576 31.9833 72.3187C31.8285 72.1813 31.525 72.1519 31.3657 72.2206C31.2087 72.2885 31.1777 72.4841 31.2525 72.5958C31.4548 72.8986 32.3933 72.9756 32.619 73.4724C32.8002 73.8725 32.6069 74.6132 31.5968 74.5913C31.5326 75.0246 31.5945 74.9771 31.1589 74.9121L31.1604 74.9106Z" fill="black"/>
<path d="M34.4627 75.5018C34.3283 75.4822 34.3835 75.3418 34.4182 75.1092C33.7983 74.9409 33.565 74.5467 33.6013 74.1957C33.6073 74.1549 33.6519 74.1171 33.7024 74.1247C34.16 74.1926 34.1758 74.1874 34.2091 74.2229C34.2861 74.3044 34.277 74.5754 34.7413 74.6449C34.989 74.6819 35.2736 74.6562 35.3098 74.4093C35.3906 73.8657 33.7092 73.9903 33.8663 72.9341C33.9222 72.5566 34.24 72.2387 34.8425 72.25C34.9067 71.8167 34.844 71.8642 35.2842 71.9299C35.4035 71.9473 35.3642 72.0552 35.3234 72.3301C36.086 72.5709 36.1917 73.3048 35.9674 73.2716C35.4676 73.1976 35.4873 73.2059 35.4473 73.1779C35.3604 73.1175 35.4435 73.0488 35.2857 72.9099C35.1309 72.7725 34.8274 72.743 34.6681 72.8118C34.5111 72.8797 34.4801 73.0753 34.5548 73.187C34.7572 73.4897 35.6956 73.5668 35.9214 74.0635C36.1026 74.4637 35.9093 75.2044 34.8991 75.1825C34.8349 75.6158 34.8969 75.5683 34.4612 75.5033L34.4627 75.5018Z" fill="black"/>
<path d="M48.3131 69.7396C45.4283 66.9242 40.514 68.9891 40.563 73.0631C40.5925 75.5093 42.5963 77.5946 45.1829 77.5697C49.2508 77.5312 51.2033 72.5587 48.3131 69.7396ZM42.252 70.2016C43.796 68.6184 46.3396 68.5769 47.9311 70.1314C50.4671 72.6071 48.7684 77.0004 45.1769 77.0223C41.5302 77.0449 39.8043 72.7105 42.252 70.2016Z" fill="black"/>
<path d="M47.0463 72.7747L45.5643 72.4962L45.8127 71.15C45.8504 70.9484 45.7122 70.7544 45.5099 70.7249L45.3174 70.6962C45.1279 70.6683 44.9459 70.7951 44.9089 70.9877L44.662 72.327L43.1241 72.0379C42.9301 71.9994 42.73 72.1292 42.6975 72.3391L42.6688 72.5309C42.6401 72.7234 42.767 72.9039 42.9588 72.9408L44.4959 73.23L44.1864 74.9129C44.1486 75.1137 44.283 75.3085 44.4891 75.3387C44.6651 75.3644 44.6937 75.3712 44.7338 75.3712C44.9059 75.3712 45.0561 75.2496 45.0894 75.076L45.3982 73.3991C46.7156 73.6468 46.8712 73.6845 46.9504 73.6845C47.1218 73.6845 47.2781 73.5599 47.3076 73.3772L47.337 73.1855C47.3657 72.9929 47.2381 72.8117 47.0463 72.7747Z" fill="black"/>
<path d="M27.7054 67.1356L26.4144 65.19C26.2264 64.9069 25.8459 64.8268 25.5605 65.0111L16.7232 70.6992C16.4318 70.8865 16.3502 71.2761 16.542 71.5645L17.7636 73.4074C17.9501 73.6883 18.3261 73.7698 18.6115 73.5909L27.5182 68.0062C27.8142 67.8204 27.898 67.4271 27.7054 67.1356Z" fill="#FFD997"/>
<path d="M27.9334 66.9838L26.6424 65.0374C26.3729 64.6319 25.8202 64.5164 25.4117 64.7799L16.5752 70.4673C16.1547 70.7376 16.0377 71.2978 16.3132 71.7146L17.5348 73.5576C17.8029 73.9622 18.3404 74.0823 18.7557 73.8211L27.6632 68.2363C28.086 67.9713 28.2143 67.4066 27.9334 66.9838ZM27.5273 67.5523C27.4812 67.7727 27.5748 67.6338 18.465 73.3575C18.3057 73.4579 18.0958 73.4134 17.9908 73.2548L16.7693 71.4119C16.6643 71.2533 16.7051 71.0344 16.8712 70.9271C25.8572 65.1378 25.7379 65.1846 25.8949 65.1846C26.0127 65.1846 26.1214 65.242 26.1864 65.3394C27.5673 67.4119 27.5703 67.3522 27.5273 67.5523Z" fill="black"/>
<path d="M24.36 67.1476C23.2932 66.0332 21.5258 65.9947 20.4114 67.0615C19.297 68.1283 19.2585 69.8958 20.3253 71.0102C21.3921 72.1246 23.1596 72.1631 24.274 71.0963C25.3884 70.0294 25.4269 68.262 24.36 67.1476Z" fill="white"/>
<path d="M24.5586 66.9581C22.681 65.0004 19.3401 66.2786 19.2789 69.0117C19.2419 70.7271 20.6123 72.1434 22.3442 72.1434C25.0434 72.1434 26.4137 68.8969 24.5586 66.9581ZM22.3412 66.5595C24.6394 66.5746 25.7123 69.3401 24.0853 70.8984C23.0811 71.858 21.4835 71.8241 20.5232 70.8207C18.9845 69.2118 20.1494 66.5451 22.3412 66.5595Z" fill="black"/>
<path d="M23.608 67.7117L22.4574 68.5943L22.4491 67.6309C22.4476 67.4648 22.3162 67.3327 22.1366 67.3236C21.9659 67.3251 21.8293 67.4656 21.83 67.6362L21.8436 69.2202C21.8466 69.4791 22.1456 69.6158 22.3412 69.4633L23.9855 68.2031C24.3079 67.9562 23.935 67.4625 23.608 67.7117Z" fill="black"/>
<path d="M51.6202 64.0643C52.5201 64.216 53.3732 63.609 53.5242 62.7083L55.2826 52.2968C55.4343 51.3969 54.8274 50.5437 53.9267 50.3927L20.3585 44.7853C19.4586 44.6336 18.6054 45.2406 18.4544 46.1413L16.696 56.5528C16.5443 57.4527 17.1513 58.3059 18.052 58.4569L51.6202 64.0643Z" fill="white"/>
<path d="M53.9727 50.1232L20.4046 44.515C19.3552 44.3384 18.3616 45.0458 18.1864 46.0952L16.4273 56.5067C16.2506 57.5569 16.9573 58.5497 18.0082 58.7264L51.5763 64.3345C52.6227 64.5112 53.6178 63.8106 53.7945 62.7543L55.5529 52.3429C55.7303 51.2904 55.0221 50.2998 53.9727 50.1232ZM55.0138 52.2515L53.2554 62.6637C53.1316 63.3983 52.4325 63.9238 51.6654 63.7947L18.0988 58.1873C17.3461 58.0605 16.841 57.3508 16.9663 56.5988L18.7262 46.1873C18.8516 45.4346 19.562 44.9303 20.3148 45.0556L53.8821 50.663C54.6386 50.7906 55.1399 51.5041 55.0138 52.2515Z" fill="black"/>
<path d="M43.4555 52.028C43.4797 51.8355 43.3483 51.6581 43.1573 51.6256L34.123 50.0967C33.9199 50.0628 33.7296 50.2039 33.7039 50.4078L33.6684 50.6871C33.6443 50.8797 33.7757 51.0571 33.9667 51.0896L43.001 52.6184C43.2041 52.6524 43.3944 52.5112 43.42 52.3074L43.4555 52.028Z" fill="black"/>
<path d="M41.5748 53.532L33.8073 52.219C33.6043 52.1851 33.414 52.3262 33.3883 52.5301L33.3528 52.8094C33.3287 53.002 33.46 53.1794 33.6511 53.2119L41.4185 54.5248C41.6216 54.5588 41.8119 54.4176 41.8375 54.2138L41.873 53.9344C41.8972 53.7419 41.7658 53.5644 41.5748 53.532Z" fill="black"/>
<path d="M34.0905 58.2032C33.9561 58.1835 34.0112 58.0431 34.0459 57.8106C33.4261 57.6422 33.1928 57.2481 33.229 56.897C33.2351 56.8563 33.2796 56.8185 33.3302 56.8261C33.7877 56.894 33.8036 56.8887 33.8368 56.9242C33.9138 57.0057 33.9047 57.2768 34.3691 57.3463C34.6167 57.3832 34.9013 57.3576 34.9376 57.1107C35.0184 56.5671 33.337 56.6917 33.494 55.6354C33.5499 55.2579 33.8678 54.9401 34.4702 54.9514C34.5344 54.518 34.4718 54.5656 34.9119 54.6313C35.0312 54.6486 34.9919 54.7566 34.9512 55.0314C35.7137 55.2723 35.8194 56.0061 35.5952 55.9729C35.0954 55.8989 35.115 55.9072 35.075 55.8793C34.9882 55.8189 35.0712 55.7502 34.9134 55.6113C34.7587 55.4739 34.4551 55.4444 34.2958 55.5131C34.1388 55.5811 34.1078 55.7766 34.1826 55.8883C34.3849 56.1911 35.3234 56.2681 35.5491 56.7649C35.7303 57.165 35.5371 57.9057 34.5269 57.8838C34.4627 58.3172 34.5246 58.2696 34.089 58.2047L34.0905 58.2032Z" fill="black"/>
<path d="M37.3928 58.7944C37.2585 58.7747 37.3136 58.6343 37.3483 58.4018C36.7284 58.2334 36.4952 57.8393 36.5314 57.4882C36.5374 57.4474 36.582 57.4097 36.6326 57.4172C37.0901 57.4852 37.1059 57.4799 37.1392 57.5154C37.2162 57.5969 37.2071 57.868 37.6714 57.9374C37.9191 57.9744 38.2037 57.9488 38.24 57.7019C38.3207 57.1583 36.6394 57.2829 36.7964 56.2266C36.8523 55.8491 37.1701 55.5313 37.7726 55.5426C37.8368 55.1092 37.7741 55.1568 38.2143 55.2225C38.3336 55.2398 38.2943 55.3478 38.2535 55.6226C39.0161 55.8635 39.1218 56.5973 38.8976 56.5641C38.3978 56.4901 38.4174 56.4984 38.3774 56.4705C38.2905 56.4101 38.3736 56.3414 38.2158 56.2024C38.061 56.065 37.7575 56.0356 37.5982 56.1043C37.4412 56.1722 37.4102 56.3678 37.485 56.4795C37.6873 56.7823 38.6258 56.8593 38.8515 57.3561C39.0327 57.7562 38.8394 58.4969 37.8292 58.475C37.7651 58.9084 37.827 58.8608 37.3913 58.7959L37.3928 58.7944Z" fill="black"/>
<path d="M30.8651 52.5497L28.5669 49.7585C28.5699 49.5441 28.4891 49.5116 27.833 48.7808C26.9421 47.7879 25.263 47.988 25.2947 49.692C25.3053 50.2281 26.1101 50.21 26.1026 49.6769C26.092 49.1175 26.2838 49.0518 26.3993 49.0133C26.6424 48.9325 27.0063 49.0669 27.2328 49.3198C27.8783 50.0386 27.907 50.1133 28.086 50.1488L29.8126 52.2455C29.0312 52.1201 26.9376 52.0386 26.6009 52.7045C26.0996 52.4251 25.4072 52.4282 24.8591 52.7664C24.4537 51.9563 21.8655 51.9306 20.9376 52.1752L21.3249 49.5192C21.4722 49.3931 21.4661 49.2511 21.4993 49.0058C21.5446 48.6698 21.5907 48.3225 21.6866 48.2349C21.7855 48.1617 22.1124 48.4463 22.1456 49.347C22.1592 49.7072 22.6001 49.868 22.8448 49.6067C22.918 49.5282 22.9557 49.4248 22.952 49.3176C22.8833 47.4535 21.7145 47.119 21.143 47.6369C20.8289 47.9238 20.7723 48.3542 20.6983 48.9001C20.6681 49.1205 20.6243 49.264 20.7141 49.418L20.2536 52.5746C20.16 52.7475 20.1471 53.0005 20.1494 53.4255C20.1547 54.3164 20.397 56.3874 22.5292 56.3874C24.0739 56.3874 24.8455 55.0427 24.9376 53.5003C25.3627 53.0103 26.1562 53.0156 26.5027 53.4066C26.4884 55.128 27.1543 56.5052 28.8817 56.5052C30.6756 56.5052 31.2366 54.7271 31.2872 53.6769C31.3143 53.1069 31.3143 52.7906 30.8651 52.5497Z" fill="black"/>
<path d="M28.8055 52.6161L30.1781 55.4753C30.351 55.2775 30.4778 55.048 30.5707 54.8177L29.3634 52.6524C29.1822 52.6328 28.995 52.6207 28.8055 52.6161Z" fill="white"/>
<path d="M27.5031 52.7158L28.9022 56.0431C29.1936 56.0408 29.4412 55.9804 29.6519 55.8793L28.0211 52.6381C27.8293 52.6554 27.6556 52.6818 27.5031 52.7158Z" fill="white"/>
<path d="M22.3699 52.4954L23.7704 55.4157C23.9493 55.23 24.0822 55.0088 24.1819 54.786L22.9218 52.5256C22.7428 52.5082 22.5556 52.4991 22.3699 52.4954Z" fill="white"/>
<path d="M21.0789 52.6147C22.6206 56.2817 22.4439 55.9246 22.5307 55.9246C22.8003 55.9246 23.0313 55.8755 23.2314 55.7909L21.5907 52.5278C21.4005 52.5475 21.2261 52.5777 21.0789 52.6147Z" fill="white"/>
<path d="M51.2426 53.0322C48.3577 50.2168 43.4434 52.2818 43.4925 56.3557C43.5219 58.8019 45.5257 60.8872 48.1123 60.8623C52.1803 60.8238 54.1327 55.8514 51.2426 53.0322ZM45.1814 53.4943C46.7254 51.911 49.269 51.8695 50.8605 53.4241C53.3966 55.8997 51.6978 60.2931 48.1063 60.315C44.4597 60.3376 42.7337 56.0031 45.1814 53.4943Z" fill="black"/>
<path d="M49.9757 56.0673L48.4936 55.7887L48.742 54.4425C48.7798 54.2409 48.6416 54.0469 48.4393 54.0175L48.2468 53.9888C48.0573 53.9608 47.8753 54.0877 47.8383 54.2802L47.5914 55.6196L46.0535 55.3304C45.8595 55.2919 45.6594 55.4218 45.6269 55.6317L45.5982 55.8234C45.5695 56.0159 45.6964 56.1964 45.8881 56.2334L47.4253 56.5226L47.1158 58.2055C47.078 58.4063 47.2124 58.6011 47.4185 58.6313C47.5944 58.6569 47.6231 58.6637 47.6631 58.6637C47.8353 58.6637 47.9855 58.5422 48.0187 58.3685L48.3275 56.6917C49.645 56.9393 49.8005 56.9771 49.8798 56.9771C50.0512 56.9771 50.2075 56.8525 50.2369 56.6698L50.2664 56.478C50.2951 56.2855 50.1675 56.1043 49.9757 56.0673Z" fill="black"/>
<path d="M71.0462 26.4403C72.5706 26.697 73.5974 28.1391 73.3407 29.6634L70.3637 47.2889C70.107 48.8132 68.6635 49.84 67.1406 49.5833L10.3163 40.0907C8.79196 39.834 7.76516 38.3905 8.02035 36.8661L10.9988 19.2422C11.2555 17.7178 12.6976 16.6895 14.2219 16.9462L71.0462 26.4403Z" fill="white"/>
<path d="M71.0969 26.1353L14.2733 16.6419C12.5821 16.3543 10.9785 17.4996 10.6953 19.1908L7.71687 36.8148C7.43299 38.5052 8.57757 40.1111 10.2665 40.3957L67.6125 49.9314C69.0969 49.9314 70.4151 48.8593 70.6695 47.3395L73.6457 29.714C73.9311 28.0198 72.7911 26.4199 71.0969 26.1353ZM73.0357 29.6113L70.0587 47.2368C69.83 48.5935 68.548 49.5055 67.1912 49.2768L10.3684 39.7857C9.01547 39.5577 8.0989 38.2711 8.3254 36.9174L11.3039 19.2935C11.5123 18.0651 12.573 17.2165 13.7523 17.2165L70.9949 26.7453C72.3517 26.9733 73.263 28.2546 73.0357 29.6113Z" fill="black"/>
<path d="M25.556 39.0367C26.727 39.2322 27.8278 38.3972 28.0151 37.1719L29.886 24.854C30.0732 23.6287 29.2752 22.4765 28.1042 22.281L10.4893 19.4596C9.31825 19.264 8.21746 20.099 8.03022 21.3244L6.14046 33.7404C5.95322 34.9657 6.75125 36.1179 7.92226 36.3134L25.556 39.0367Z" fill="#FFD997"/>
<path d="M28.2159 22.1247L25.5764 21.6619C26.4446 12.7431 15.3892 11.5298 13.584 19.5592L10.6387 19.0428C9.31294 18.8012 8.02944 19.7163 7.79312 21.1243L5.73726 33.5124C5.50623 34.8993 6.40317 36.2251 7.73725 36.4682L25.331 39.4505C26.6417 39.6875 27.9365 38.7906 28.1743 37.3682L30.2128 25.0798C30.4439 23.6936 29.5484 22.3686 28.2159 22.1247ZM28.1056 22.734C29.1068 22.9167 29.7787 23.9239 29.6021 24.9794L28.8184 29.7011L19.5779 28.0417C19.8346 27.5826 20.0324 27.1591 20.0755 26.8805C20.3254 25.2859 18.644 24.1489 17.3733 25.0594C16.9762 25.3448 16.7029 25.7963 16.6244 26.2969C16.5813 26.5717 16.6349 27.0247 16.7338 27.5313L7.62929 25.8967L8.40467 21.227C8.58285 20.1572 9.54699 19.4701 10.5292 19.6529L28.1056 22.734ZM6.34881 33.6151L7.52887 26.506L16.878 28.1851C17.1 29.1092 17.3929 30.0417 17.4851 30.3286C17.5606 30.5611 17.8746 30.6253 18.0302 30.4154C18.1396 30.2651 18.7255 29.452 19.2442 28.6102L28.7179 30.3112L27.5636 37.2678C27.3854 38.3391 26.4295 39.0148 25.4465 38.8434L7.84597 35.8597C6.84409 35.677 6.17214 34.6706 6.34881 33.6151ZM24.9648 21.5555L14.1955 19.6672C15.9011 12.3822 25.7047 13.5147 24.9648 21.5555Z" fill="black"/>
<path d="M50.2257 28.5996C50.2687 28.2742 50.0475 27.9729 49.7243 27.9163L34.4446 25.2481C34.1019 25.1885 33.778 25.4256 33.7327 25.7706L33.67 26.2432C33.627 26.5686 33.8482 26.8699 34.1713 26.9265L49.451 29.5947C49.7938 29.6543 50.1177 29.4173 50.163 29.0722L50.2257 28.5996Z" fill="black"/>
<path d="M47.5303 31.8121C47.5733 31.4867 47.3521 31.1856 47.029 31.1289L33.8927 28.8375C33.5499 28.7779 33.226 29.0149 33.1807 29.3599L33.1181 29.8326C33.075 30.158 33.2963 30.4592 33.6194 30.5159L46.7556 32.8073C47.0984 32.8669 47.4223 32.6298 47.4676 32.2848L47.5303 31.8121Z" fill="black"/>
<path d="M34.3178 38.9703C34.0905 38.9356 34.1857 38.6993 34.2461 38.3051C33.1989 38.0145 32.807 37.3448 32.8712 36.7514C32.8818 36.6819 32.9573 36.6185 33.0426 36.6321C33.8165 36.7514 33.8436 36.7423 33.8995 36.8019C34.0286 36.9409 34.0113 37.3999 34.7972 37.5207C35.2155 37.5849 35.6979 37.5449 35.7621 37.1266C35.904 36.207 33.0562 36.4025 33.331 34.617C33.4292 33.979 33.9697 33.4437 34.9897 33.4671C35.103 32.734 34.9958 32.814 35.7402 32.9288C35.8263 32.9424 35.8935 33.0194 35.8769 33.1236C35.8361 33.3871 35.9644 33.6468 36.1977 33.7751C37.1234 34.2848 37.2208 35.2572 36.8848 35.2051C36.0399 35.0753 36.0732 35.0896 36.006 35.042C35.8595 34.9386 36.0007 34.8238 35.7349 34.5868C35.4737 34.3535 34.9603 34.3006 34.69 34.4154C34.4235 34.5286 34.3691 34.8593 34.4952 35.0496C34.8357 35.5637 36.4235 35.7027 36.8002 36.5452C37.1037 37.2247 36.7693 38.4758 35.06 38.4297C34.9475 39.1628 35.0532 39.0828 34.3163 38.9688L34.3178 38.9703Z" fill="black"/>
<path d="M39.9018 40.0009C39.6745 39.9661 39.7696 39.7298 39.83 39.3357C38.7829 39.045 38.391 38.3754 38.4552 37.7819C38.4658 37.7125 38.5413 37.6491 38.6266 37.6626C39.4005 37.7819 39.4276 37.7729 39.4835 37.8325C39.6126 37.9714 39.5952 38.4305 40.3812 38.5513C40.7995 38.6155 41.2819 38.5754 41.3461 38.1572C41.488 37.2376 38.6402 37.4331 38.915 35.6475C39.0131 35.0096 39.5537 34.4743 40.5737 34.4977C40.687 33.7646 40.5798 33.8446 41.3242 33.9594C41.4103 33.973 41.4775 34.05 41.4608 34.1542L41.3869 34.6366C42.6756 35.0511 42.8478 36.2946 42.4688 36.2364C41.6239 36.1066 41.6571 36.1209 41.59 36.0734C41.4435 35.9699 41.5847 35.8552 41.3189 35.6181C41.0577 35.3848 40.5443 35.332 40.274 35.4467C40.0075 35.56 39.9531 35.8907 40.0792 36.0809C40.4197 36.5951 42.0075 36.734 42.3842 37.5766C42.6877 38.2561 42.3533 39.5071 40.6439 39.4611C40.5314 40.1942 40.6371 40.1141 39.9003 40.0001L39.9018 40.0009Z" fill="black"/>
<path d="M71.0463 26.4403C72.5706 26.697 73.5974 28.139 73.3407 29.6634L70.9662 43.7184C64.0482 47.0019 55.9025 41.9721 55.9025 34.1752C55.9025 30.1322 58.1773 26.6192 61.5159 24.8495L71.0463 26.4403Z" fill="black"/>
<path d="M65.5453 43.4384C71.3747 43.4384 76.1002 38.7127 76.1002 32.8835C76.1002 27.0541 71.3747 22.3286 65.5453 22.3286C59.716 22.3286 54.9904 27.0541 54.9904 32.8835C54.9904 38.7127 59.716 43.4384 65.5453 43.4384Z" fill="#FFD997"/>
<path d="M65.5461 22.0198C59.5552 22.0198 54.6816 26.8933 54.6816 32.8835C54.6816 38.8736 59.5552 43.7479 65.5461 43.7479C71.537 43.7479 76.4105 38.8744 76.4105 32.8835C76.4105 26.8925 71.537 22.0198 65.5461 22.0198ZM75.7907 32.8835C75.7907 38.5324 71.195 43.1288 65.5461 43.1288C59.8972 43.1288 55.3007 38.5324 55.3007 32.8835C55.3007 27.2346 59.8972 22.6381 65.5461 22.6381C71.195 22.6381 75.7907 27.2338 75.7907 32.8835Z" fill="black"/>
<path d="M70.9685 32.6003L66.4702 31.6974L67.2811 27.5826C67.3604 27.19 67.0976 26.8103 66.702 26.7468L66.1599 26.66C65.7869 26.6004 65.4329 26.845 65.3581 27.2157L64.551 31.3123L59.8919 30.3769C59.5001 30.2961 59.1188 30.5573 59.0539 30.9529L58.9648 31.4943C58.9036 31.8672 59.1475 32.2213 59.5174 32.2983L64.1728 33.233L63.1746 38.3006C63.0946 38.6932 63.3581 39.073 63.7537 39.1364L64.2958 39.2232C64.6688 39.2829 65.0221 39.0382 65.0976 38.6675L66.092 33.6181L70.594 34.5218C70.9859 34.6026 71.3672 34.3414 71.4321 33.9458L71.5212 33.4044C71.5823 33.0315 71.3385 32.6774 70.9685 32.6003Z" fill="white"/>
<path d="M71.0614 32.2772L66.8674 31.4316L67.6125 27.6498C67.7296 27.0677 67.3415 26.5052 66.7549 26.4124L66.2128 26.3255C65.6631 26.2349 65.1369 26.5988 65.0252 27.15L64.2845 30.9129L59.9599 30.0447C59.383 29.9254 58.816 30.3074 58.7186 30.8971L58.6296 31.4391C58.539 31.9926 58.8983 32.5158 59.4502 32.6298L63.7749 33.498L62.8425 38.2326C62.7239 38.8215 63.1203 39.378 63.7001 39.4701L64.2415 39.5569C64.8039 39.6483 65.3204 39.2708 65.4298 38.7324L66.3585 34.0167L70.5253 34.8533C71.1052 34.9748 71.6707 34.5852 71.7673 34.0009L71.8556 33.4595C71.9432 32.9212 71.6065 32.4116 71.0614 32.2772ZM63.5076 38.3648L64.5057 33.2972C64.5412 33.1145 64.4219 32.9363 64.2392 32.9001L59.5854 31.9654C59.3936 31.9254 59.2675 31.7427 59.2992 31.5486C59.3785 31.0662 59.3687 30.8835 59.5416 30.7649C59.6216 30.7091 59.719 30.6872 59.8247 30.7083C64.8832 31.7223 64.5737 31.7057 64.7383 31.5932C64.9066 31.4807 64.8115 31.7109 65.6903 27.2821C65.7281 27.0903 65.9093 26.962 66.1063 26.9937L66.6477 27.0805C66.8538 27.1137 66.9897 27.3093 66.9474 27.5162C66.0565 31.9405 66.0761 31.717 66.1879 31.8853C66.2966 32.0484 66.0127 31.9359 70.8998 32.9325C71.0923 32.9718 71.2177 33.1553 71.1852 33.3493L71.0969 33.8906C71.0629 34.099 70.8621 34.2311 70.6605 34.1896C65.799 33.1756 66.0701 33.2247 65.9032 33.3365C65.7356 33.4474 65.8625 33.116 64.7647 38.5996C64.7262 38.7921 64.5518 38.9182 64.3479 38.888L63.8058 38.8011C63.6005 38.7687 63.4646 38.5709 63.5076 38.3648Z" fill="black"/>
<path d="M114.381 61.6731C112.642 61.6143 111.118 63.0918 111.054 65.0525C110.955 68.1805 114.394 69.7977 116.464 67.6905C118.534 65.581 117.256 61.766 114.381 61.6731Z" fill="black"/>
<path d="M129.023 130.197C125.91 126.803 120.311 128.976 120.159 133.61C120.009 138.266 125.471 140.763 128.783 137.592C130.848 135.613 130.956 132.306 129.023 130.197Z" fill="black"/>
<path d="M125.661 130.777C123.247 130.684 122.026 133.918 123.589 135.833C125.182 137.787 128.145 136.586 128.233 133.872C128.287 132.214 127.133 130.824 125.661 130.777Z" fill="white"/>
<path d="M127.536 127.733L121.847 128.844L121.895 129.065C121.96 129.373 122.164 129.635 122.447 129.774L123.166 130.128C123.579 130.331 123.856 130.735 123.897 131.194C123.897 131.194 124.133 134.146 124.195 134.53C124.256 134.913 124.636 134.969 124.942 134.901L126.497 134.555C126.773 134.494 126.979 134.266 127.012 133.986C127.566 129.353 127.686 128.95 127.536 127.733Z" fill="#FFD997"/>
<path d="M127.808 127.699C127.764 127.339 127.219 127.409 127.265 127.766C127.409 128.948 127.286 129.321 126.74 133.953C126.72 134.118 126.598 134.252 126.438 134.288C124.911 134.627 124.691 134.715 124.531 134.607C124.456 134.556 124.436 134.614 124.17 131.169C124.121 130.618 123.782 130.126 123.288 129.882C122.297 129.394 122.259 129.45 122.115 128.785C122.039 128.432 121.504 128.546 121.58 128.9L121.627 129.121C121.901 130.401 123.519 130.026 123.624 131.214C123.627 131.243 123.86 134.171 123.923 134.572C123.958 134.781 124.062 134.949 124.222 135.058C124.615 135.326 124.968 135.173 126.555 134.821C126.944 134.734 127.236 134.411 127.283 134.016C127.818 129.545 127.964 128.961 127.807 127.697L127.808 127.699Z" fill="black"/>
<path d="M103.849 135.179C100.736 131.785 95.1368 133.958 94.9851 138.593C94.8348 143.25 100.298 145.745 103.609 142.574C105.674 140.595 105.782 137.289 103.849 135.179Z" fill="black"/>
<path d="M100.487 135.76C98.0927 135.658 96.8431 138.89 98.4151 140.816C100.008 142.77 102.971 141.569 103.059 138.855C103.113 137.197 101.959 135.807 100.487 135.76Z" fill="white"/>
<path d="M102.362 132.716L96.6732 133.826L96.7208 134.047C96.7865 134.355 96.9903 134.617 97.2727 134.756L97.9922 135.11C98.4052 135.314 98.6823 135.717 98.723 136.176C98.723 136.176 98.9586 139.129 99.0205 139.512C99.0824 139.896 99.4622 139.951 99.768 139.883L101.323 139.537C101.598 139.476 101.805 139.248 101.838 138.968C102.392 134.335 102.512 133.932 102.362 132.716Z" fill="#FFD997"/>
<path d="M102.634 132.682C102.59 132.32 102.045 132.392 102.091 132.748C102.235 133.93 102.112 134.303 101.566 138.935C101.546 139.1 101.424 139.234 101.264 139.27C99.7461 139.607 99.5173 139.697 99.3573 139.589C99.281 139.537 99.2561 139.57 98.9964 136.151C98.9473 135.601 98.6091 135.107 98.1138 134.864C97.1232 134.376 97.084 134.433 96.9413 133.767C96.865 133.411 96.3297 133.529 96.406 133.881L96.4528 134.103C96.7284 135.391 98.3441 134.996 98.4505 136.195C98.4528 136.225 98.6861 139.153 98.7495 139.554C98.7842 139.762 98.8877 139.93 99.0485 140.04C99.4411 140.307 99.7952 140.155 101.381 139.802C101.77 139.716 102.062 139.393 102.109 138.998C102.644 134.526 102.79 133.942 102.633 132.679L102.634 132.682Z" fill="black"/>
<path d="M101.607 121.203C99.3233 121.132 97.3626 122.947 97.2833 125.34C97.2056 127.745 99.0976 129.751 101.465 129.751C103.711 129.751 105.577 127.922 105.653 125.612C105.73 123.255 103.914 121.277 101.607 121.203Z" fill="black"/>
<path d="M101.779 122.966C100.568 122.925 99.503 123.998 99.4569 125.41C99.4116 126.802 100.397 128.001 101.683 128.001C102.948 128.001 103.899 126.857 103.94 125.555C103.985 124.168 103.015 123.007 101.779 122.966Z" fill="white"/>
<path d="M103.303 120.562L98.6778 121.465L98.7163 121.646C98.9118 122.562 100.241 122.215 100.344 123.376C100.344 123.376 100.536 125.777 100.586 126.089C100.636 126.401 100.945 126.445 101.193 126.39L102.458 126.109C102.682 126.06 102.849 125.874 102.876 125.647C103.326 121.877 103.424 121.55 103.303 120.562Z" fill="#FFD997"/>
<path d="M103.574 120.529C103.531 120.17 102.985 120.237 103.031 120.596C103.149 121.553 103.048 121.878 102.605 125.614C102.591 125.726 102.509 125.818 102.399 125.842C101.203 126.109 101.001 126.183 100.888 126.109C100.822 126.066 100.807 125.678 100.621 123.397C100.57 122.769 100.183 122.418 99.8722 122.265L99.2871 121.977C98.8643 121.768 99.0613 121.388 98.828 121.237C98.7012 121.154 98.5321 121.191 98.4498 121.317C98.3743 121.434 98.4113 121.522 98.4498 121.704C98.6891 122.817 99.9907 122.404 100.076 123.454C100.297 126.175 100.261 126.346 100.58 126.563C100.933 126.802 101.27 126.654 102.517 126.377C102.854 126.303 103.108 126.023 103.149 125.68C103.6 121.914 103.702 121.555 103.574 120.531V120.529Z" fill="black"/>
<path d="M80.403 124.627C78.1131 124.551 76.1577 126.382 76.0791 128.765C76.0021 131.154 77.8753 133.176 80.2611 133.176C82.5004 133.176 84.3713 131.364 84.4483 129.036C84.5246 126.68 82.7095 124.702 80.403 124.627Z" fill="black"/>
<path d="M82.1538 127.2C81.3248 126.184 79.8828 126.093 78.9489 127.095C77.5295 128.624 78.4098 131.36 80.4128 131.425C82.3969 131.494 83.4804 128.826 82.1538 127.2Z" fill="white"/>
<path d="M82.098 123.988L77.4728 124.891L77.5113 125.071C77.7054 125.983 79.0364 125.643 79.1391 126.802C79.1391 126.802 79.3309 129.203 79.3807 129.514C79.4306 129.826 79.7401 129.871 79.9885 129.816L81.2531 129.535C81.4766 129.485 81.6442 129.299 81.6714 129.072C82.1206 125.305 82.2195 124.975 82.098 123.988Z" fill="#FFD997"/>
<path d="M82.3698 123.954C82.3267 123.595 81.7794 123.662 81.8269 124.021C81.9424 124.972 81.8435 125.297 81.3996 129.039C81.386 129.151 81.3037 129.243 81.1942 129.267C79.9976 129.533 79.7998 129.61 79.6842 129.534C79.6178 129.49 79.6087 129.049 79.4132 126.777C79.3732 126.312 79.0848 125.896 78.6673 125.69C77.8654 125.294 77.8526 125.352 77.7416 124.833C77.691 124.596 77.3755 124.538 77.2441 124.741C77.1678 124.86 77.2086 124.958 77.2441 125.127C77.4819 126.241 78.7858 125.825 78.8711 126.877C79.0908 129.588 79.0531 129.768 79.3762 129.986C79.7288 130.225 80.0655 130.078 81.312 129.801C81.6487 129.726 81.9024 129.445 81.9432 129.103C82.3849 125.394 82.4981 124.99 82.3698 123.954Z" fill="black"/>
<path d="M142.888 68.1209C142.358 68.0114 141.84 68.3519 141.729 68.8819L140.175 76.3813L113.453 74.3791L115.391 65.4927C115.501 64.9627 115.161 64.4433 114.631 64.333C114.101 64.2228 113.581 64.5633 113.471 65.0933L111.443 74.4093L72.8643 81.8105C72.5412 81.8724 72.2528 82.1027 72.1282 82.441C71.9961 82.7988 72.0361 82.4689 74.5155 109.028C74.5555 109.458 74.8719 109.81 75.2939 109.897L93.6034 113.664C93.7929 113.698 93.6057 113.693 105.623 112.889L107.038 115.742C107.531 116.736 107.166 117.902 105.595 118.371C104.796 118.603 93.5113 120.513 76.1456 123.357C74.6235 123.606 74.329 125.677 75.722 126.339C77.386 127.132 91.993 134.088 92.4951 134.304C93.2214 134.617 93.7756 134.577 94.5411 134.46C95.2372 134.354 125.304 128.263 128.809 127.553C130.238 127.306 131.439 126.368 132.025 125.041C132.65 123.625 132.392 122.479 131.775 121.091C131.319 120.066 128.777 113.971 127.711 111.41L132.756 111.071C134.087 110.982 135.206 110.008 135.477 108.701L143.649 69.2828C143.759 68.7528 143.418 68.2341 142.888 68.1239L142.888 68.1209ZM135.876 97.1197L127.717 98.0143L128.592 90.2394L137.568 88.9604L135.876 97.1197ZM116.061 110.223L116.588 101.208L125.495 100.231L124.435 109.661L116.061 110.223ZM104.811 110.977L105.088 102.47L114.611 101.425L114.089 110.355L104.811 110.977ZM81.457 109.163L81.0651 102.065L85.5445 102.716L85.7846 110.054L81.457 109.163ZM78.132 84.5029L78.4981 91.1423L74.7662 90.5995L74.1433 83.9223L78.132 84.5029ZM103.694 84.9634L103.471 91.8392L94.594 93.1038L94.5404 86.5761L103.694 84.9634ZM92.5796 86.604L92.634 93.1982L87.1678 92.4032L86.9511 85.7856L92.5796 86.604ZM92.6506 95.1823L92.705 101.777L87.4502 101.012L87.2335 94.3941L92.6506 95.1823ZM94.6106 95.0827L103.406 93.8294L103.183 100.707L94.6649 101.641L94.6106 95.0827ZM105.377 93.5485L115.153 92.1555L114.728 99.4405L105.152 100.491L105.377 93.5485ZM105.442 91.5591L105.667 84.6161L115.697 82.8487L115.27 90.1578L105.442 91.5591ZM117.682 82.4998L127.686 80.7369L126.812 88.5142L117.251 89.8762L117.682 82.4998ZM113.007 81.3326L113.167 76.3255L121.43 76.9446L121.194 79.8898L113.007 81.3326ZM111.034 81.6799L103.097 83.0782L103.029 78.0212L111.202 76.4531L111.034 81.6799ZM101.141 83.4232C93.3241 84.8003 93.6668 84.7815 93.3082 84.7286L93.1542 79.9155L101.073 78.3964L101.141 83.4232ZM91.3369 84.4425L83.7733 83.3424L83.6993 81.7297L91.204 80.29L91.3369 84.4425ZM84.9806 85.4995L85.1972 92.117L80.4785 91.4308L80.1123 84.7913L84.9806 85.4995ZM74.9534 92.6093L78.6084 93.1408L78.9753 99.7803L75.577 99.2858L74.9534 92.6093ZM80.588 93.4285L85.2622 94.108L85.4789 100.726L80.9549 100.068L80.588 93.4285ZM87.5151 103.003L92.7216 103.761L92.7858 111.496L87.7597 110.461L87.5151 103.003ZM94.6808 103.612L103.118 102.686L102.845 111.109L94.7465 111.652L94.6808 103.612ZM116.703 99.2239L117.133 91.8732L126.585 90.5263L125.718 98.2348L116.703 99.2239ZM137.99 86.9211L128.817 88.228L129.699 80.3821L139.711 78.6184L137.99 86.9211ZM123.19 79.538L123.386 77.0903L132.993 77.8105L123.19 79.538ZM75.7635 101.294L79.0848 101.777L79.4698 108.755L76.4007 108.123L75.7635 101.294ZM93.2712 132.503C92.8492 132.319 82.212 127.345 77.1512 124.935C84.6 123.714 96.6521 121.927 102.626 120.892C102.974 120.832 102.681 120.809 123.543 126.274C123.724 126.322 123.717 126.583 123.533 126.62C93.3195 132.738 93.7959 132.728 93.2712 132.503ZM129.983 121.886C130.921 123.995 129.913 125.058 128.98 125.476C128.136 125.853 127.862 125.662 126.966 125.431L106.481 120.142C108.986 119.233 109.776 116.846 108.796 114.87L107.742 112.746L125.646 111.546C126.487 113.567 129.469 120.732 129.983 121.886ZM133.558 108.3C133.465 108.748 133.082 109.082 132.626 109.113L126.423 109.529L127.492 100.013L135.457 99.1393L133.558 108.3Z" fill="#BCFF8F"/>
<path d="M87.4109 101.282C93.0326 102.097 92.7518 102.099 92.8854 101.981C93.0228 101.862 92.9934 102.381 92.9254 95.1785C92.9239 95.0426 92.825 94.9294 92.6898 94.9097L87.2735 94.1223C87.0983 94.0989 86.9549 94.2348 86.9594 94.4016L87.1761 101.019C87.1806 101.152 87.2788 101.262 87.4109 101.282ZM87.5181 94.7112L92.3788 95.4178L92.4286 101.458L87.7159 100.773L87.5181 94.7112Z" fill="black"/>
<path d="M75.537 99.5553C79.2199 100.088 79.0251 100.103 79.1603 99.9803C79.2962 99.8565 79.2894 100.387 78.8817 93.1234C78.8741 92.9943 78.776 92.8871 78.6476 92.8682L74.9919 92.3367C74.8122 92.3133 74.6649 92.4583 74.68 92.6334L75.3029 99.3114C75.3157 99.4375 75.4124 99.5371 75.537 99.5553ZM75.2576 92.9279L78.3479 93.3779L78.6831 99.4601L75.8292 99.0449L75.2576 92.9279Z" fill="black"/>
<path d="M85.5838 102.445C80.708 101.725 81.0183 101.737 80.8802 101.863C80.7443 101.986 80.739 101.424 81.1837 109.178C81.1905 109.302 81.2811 109.406 81.4019 109.431C86.0542 110.377 85.8141 110.387 85.9606 110.263C86.1199 110.129 86.0685 110.26 85.8179 102.706C85.8133 102.574 85.7144 102.464 85.5838 102.445ZM85.5 109.715L81.719 108.937L81.3573 102.383L85.2788 102.953L85.5 109.715Z" fill="black"/>
<path d="M112.827 81.5372C112.98 81.6716 112.842 81.627 121.242 80.1578C121.365 80.1359 121.458 80.034 121.468 79.9101C121.73 76.7021 121.742 76.8864 121.64 76.7641C121.524 76.6304 121.646 76.684 113.188 76.0506C113.058 76.0287 112.9 76.1472 112.894 76.3148C112.699 81.7591 112.687 81.4149 112.827 81.5372ZM113.292 81.0026L113.432 76.6176L121.137 77.1952L120.938 79.6557L113.292 81.0026Z" fill="black"/>
<path d="M103.088 102.413L94.6506 103.339C94.5102 103.354 94.4052 103.471 94.4068 103.613C94.4626 111.85 94.4256 111.726 94.5608 111.85C94.6929 111.975 94.5661 111.938 102.863 111.381C103.005 111.371 103.114 111.257 103.119 111.117L103.392 102.694C103.397 102.525 103.251 102.393 103.088 102.413ZM102.835 102.991L102.58 110.852L95.0175 111.358L94.9564 103.855L102.835 102.991Z" fill="black"/>
<path d="M92.7609 103.488C87.1391 102.673 87.4698 102.676 87.3339 102.798C87.1844 102.932 87.2267 102.8 87.4864 110.468C87.491 110.595 87.58 110.701 87.7046 110.728C93.1701 111.864 92.8175 111.823 92.9594 111.705C93.1172 111.577 93.0719 111.7 92.9964 103.757C92.9949 103.621 92.896 103.508 92.7609 103.488ZM92.5094 111.157L88.0263 110.235L87.7998 103.32L92.449 103.996L92.5094 111.157Z" fill="black"/>
<path d="M78.6831 91.3431C78.819 91.2193 78.8114 91.7501 78.4045 84.4862C78.397 84.3564 78.298 84.2491 78.1705 84.231L74.1825 83.6504C74.0006 83.627 73.8549 83.7727 73.87 83.9471L74.4928 90.6251C74.5057 90.7512 74.6023 90.8516 74.7269 90.8697C78.785 91.4473 78.5457 91.4684 78.6831 91.3431ZM75.0183 90.3586L74.4468 84.2423L77.87 84.7406L78.2052 90.8229L75.0183 90.3586Z" fill="black"/>
<path d="M117.289 90.1457L126.851 88.7829C126.974 88.7655 127.07 88.6666 127.085 88.5428C127.986 80.5474 128.03 80.6795 127.874 80.536C127.812 80.4771 127.727 80.45 127.639 80.4658L117.634 82.228C117.508 82.2506 117.415 82.3548 117.409 82.4817L116.978 89.8588C116.968 90.0181 117.09 90.1593 117.289 90.1457ZM117.543 89.5568L117.942 82.7301L127.373 81.0683L126.564 88.271L117.543 89.5568Z" fill="black"/>
<path d="M142.943 67.8528C142.265 67.7116 141.602 68.1503 141.461 68.8268L139.955 76.0906L113.788 74.1299L115.659 65.5485C115.801 64.8712 115.364 64.2062 114.688 64.065C114.016 63.9268 113.345 64.3601 113.205 65.0351L111.215 74.1744L72.6122 81.5991C72.2188 81.7139 71.7968 82.1857 71.7968 82.7973C71.8111 83.0079 71.7968 82.8403 74.2437 109.052C74.295 109.605 74.696 110.052 75.2396 110.165C93.7786 113.98 93.5996 113.957 93.7869 113.952L105.459 113.172L106.793 115.862C107.22 116.72 106.904 117.693 105.519 118.106C104.731 118.335 93.4585 120.242 76.101 123.085C74.3147 123.377 73.9696 125.807 75.6042 126.584C93.4373 135.077 92.6536 134.818 93.6457 134.818C94.4007 134.818 93.8594 134.91 128.854 127.82C130.373 127.557 131.652 126.559 132.274 125.148C132.94 123.639 132.671 122.433 132.023 120.976C131.712 120.276 130.396 117.14 128.109 111.653L132.774 111.341C134.228 111.243 135.449 110.179 135.745 108.753L143.916 69.3348C144.057 68.6583 143.62 67.9932 142.943 67.8528ZM74.7888 109.001C72.3071 82.4522 72.2973 82.6697 72.4347 82.4266C72.5223 82.2748 72.6484 82.1714 72.8024 82.111L111.496 74.6773C111.605 74.6561 111.689 74.5731 111.711 74.4666L113.74 65.1484C113.817 64.7769 114.181 64.521 114.576 64.6003C114.957 64.6795 115.203 65.0547 115.125 65.4337L113.187 74.3194C113.15 74.481 113.267 74.6394 113.433 74.6508C113.433 74.6508 140.169 76.6546 140.178 76.6546C140.305 76.6546 140.416 76.564 140.443 76.4356L141.998 68.9369C142.077 68.5556 142.453 68.3081 142.834 68.3881C143.215 68.4666 143.461 68.8419 143.383 69.2231L135.211 108.641C134.965 109.827 133.948 110.713 132.74 110.794L127.695 111.132C127.508 111.145 127.388 111.339 127.46 111.511C128.052 112.932 131.029 120.079 131.526 121.199C132.113 122.519 132.36 123.604 131.775 124.927C131.227 126.17 130.099 127.049 128.755 127.281C116.299 129.805 95.0666 134.1 94.5011 134.186C93.7793 134.298 93.2712 134.337 92.6053 134.05C92.1259 133.844 78.557 127.382 75.8413 126.088C74.6937 125.545 74.9292 123.83 76.1916 123.624C93.5679 120.778 104.865 118.866 105.675 118.63C107.405 118.113 107.856 116.768 107.286 115.617L105.871 112.764C105.824 112.672 105.729 112.612 105.625 112.612C93.6563 113.413 93.7869 113.416 93.654 113.392L75.352 109.627C75.0455 109.564 74.8198 109.313 74.7911 109L74.7888 109.001Z" fill="black"/>
<path d="M116.315 101.191C115.791 110.408 115.732 110.28 115.868 110.417C116.003 110.55 115.879 110.508 124.453 109.934C124.585 109.925 124.691 109.823 124.707 109.691L125.766 100.262C125.788 100.078 125.623 99.935 125.465 99.9585L116.558 100.935C116.425 100.95 116.323 101.058 116.315 101.191ZM116.352 109.928L116.848 101.454L125.185 100.54L124.189 109.403L116.352 109.928Z" fill="black"/>
<path d="M137.529 88.6893L128.552 89.9683C128.429 89.9864 128.333 90.0853 128.318 90.2091C127.417 98.1963 127.378 98.0626 127.523 98.2076C127.666 98.3503 127.533 98.3103 135.905 97.3914C136.022 97.3786 136.118 97.2918 136.143 97.1747L137.835 89.0155C137.871 88.8365 137.724 88.6651 137.529 88.6893ZM128.028 97.7048L128.839 90.4802L137.221 89.2857L135.649 96.8682L128.028 97.7048Z" fill="black"/>
<path d="M79.3581 101.761C79.352 101.632 79.2531 101.524 79.124 101.505L75.8035 101.022C75.6314 100.997 75.4759 101.139 75.4917 101.319L76.1289 108.148C76.141 108.269 76.2278 108.366 76.3464 108.39C79.3075 108.994 79.3951 109.027 79.4713 109.027C79.6299 109.027 79.7537 108.893 79.7439 108.739L79.3581 101.761ZM79.1784 108.414L76.6544 107.894L76.0693 101.613L78.825 102.014L79.1784 108.414Z" fill="black"/>
<path d="M85.3792 92.3193C85.5158 92.197 85.4917 92.6878 85.2539 85.4889C85.2493 85.356 85.1512 85.2457 85.019 85.2261L80.1493 84.5179C79.9787 84.4953 79.8269 84.6304 79.8382 84.8033L80.2044 91.442C80.2105 91.5719 80.3094 91.6798 80.4385 91.698C85.5868 92.4326 85.241 92.4386 85.3792 92.3178V92.3193ZM80.7382 91.1899L80.4037 85.1076L84.7148 85.735L84.9126 91.7969L80.7382 91.1899Z" fill="black"/>
<path d="M85.6608 100.929C85.7975 100.806 85.7733 101.297 85.5355 94.0981C85.5309 93.9653 85.4328 93.855 85.3007 93.8354L80.6265 93.1559C80.4634 93.131 80.3048 93.2639 80.3146 93.442L80.6808 100.082C80.6884 100.212 80.7873 100.319 80.9149 100.337C85.9009 101.053 85.5294 101.049 85.6608 100.929ZM81.2146 99.8278L80.8794 93.7456L84.9956 94.3443L85.1942 100.406L81.2146 99.8278Z" fill="black"/>
<path d="M129.427 80.3503C128.55 88.4115 128.476 88.2748 128.626 88.4235C128.773 88.5647 128.64 88.5247 138.028 87.1906C138.142 87.174 138.234 87.0872 138.257 86.9754L139.979 78.6727C140.019 78.4885 139.859 78.3133 139.663 78.3465L129.651 80.111C129.532 80.1321 129.44 80.2318 129.427 80.3503ZM129.128 87.9056L129.948 80.6146L139.362 78.9558L137.761 86.6757L129.128 87.9056Z" fill="black"/>
<path d="M116.861 91.8558L116.432 99.2057C116.426 99.2857 116.457 99.3642 116.516 99.4209C116.658 99.5537 116.526 99.4971 125.749 98.505C125.878 98.4915 125.979 98.3918 125.992 98.2642L126.858 90.5564C126.878 90.3827 126.729 90.2287 126.547 90.2544L117.096 91.6013C116.967 91.6194 116.869 91.7266 116.861 91.8558ZM116.996 98.915L117.394 92.1109L126.275 90.8456L125.473 97.9848L116.996 98.915Z" fill="black"/>
<path d="M105.393 84.6063C105.122 92.1117 105.121 91.6391 105.258 91.7607C105.4 91.8913 105.273 91.8769 115.308 90.4281C115.437 90.4092 115.535 90.302 115.543 90.1729L115.97 82.8637C115.98 82.6878 115.825 82.5481 115.649 82.5783L105.619 84.3458C105.493 84.3677 105.397 84.4772 105.393 84.6063ZM105.725 91.2405L105.933 84.8456L115.403 83.1778L115.009 89.9177L105.725 91.2405Z" fill="black"/>
<path d="M86.7691 85.5802C86.6325 85.7025 86.6566 85.2118 86.8945 92.4107C86.899 92.5436 86.9972 92.6538 87.1293 92.6727L92.6347 93.4707C92.788 93.4707 92.9096 93.3454 92.908 93.1951L92.8545 86.601C92.8529 86.4651 92.754 86.3518 92.6189 86.333C86.4875 85.4436 86.905 85.4594 86.7691 85.5802ZM92.3577 92.8796L87.4343 92.1638L87.2357 86.1019L92.3078 86.8396L92.3577 92.8796Z" fill="black"/>
<path d="M105.182 100.762L114.758 99.7115C114.891 99.6972 114.993 99.5892 115 99.4556C115.442 91.6889 115.48 92.0807 115.338 91.9531C115.191 91.815 115.322 91.8497 105.338 93.2759C105.207 93.2948 105.108 93.4043 105.103 93.5379L104.879 100.479C104.87 100.624 104.987 100.773 105.182 100.762ZM105.436 100.183L105.643 93.7863L114.86 92.4726L114.467 99.1928L105.436 100.183Z" fill="black"/>
<path d="M123.612 126.008C102.604 120.527 103.012 120.544 102.58 120.622C99.2327 121.201 80.3969 124.124 77.1074 124.664C76.8409 124.707 76.7956 125.068 77.0342 125.181C82.2648 127.671 92.7691 132.581 93.1632 132.753C93.5287 132.911 93.8208 132.864 94.2701 132.793L123.587 126.888C124.054 126.793 124.074 126.129 123.612 126.008ZM93.3807 132.251C93.0311 132.098 83.4804 127.635 78.0602 125.062C81.1112 124.568 99.2855 121.747 102.672 121.161C102.932 121.117 102.696 121.095 123.073 126.432C93.4282 132.435 93.7876 132.424 93.3807 132.251Z" fill="black"/>
<path d="M93.2682 84.9981C93.6722 85.057 93.2841 85.0917 101.187 83.6912C101.32 83.6678 101.415 83.553 101.414 83.4179L101.346 78.3911C101.343 78.2197 101.185 78.0929 101.021 78.1261L93.1014 79.6452C92.9685 79.6716 92.8749 79.7878 92.8787 79.923L93.0334 84.7361C93.038 84.869 93.1361 84.9792 93.2682 84.9981ZM93.4343 80.1389L100.804 78.7256L100.864 83.1929L93.574 84.4772L93.4343 80.1389Z" fill="black"/>
<path d="M125.627 111.271L107.723 112.472C107.633 112.478 107.551 112.528 107.504 112.608C107.4 112.79 107.428 112.728 108.55 114.99C109.459 116.823 108.736 119.03 106.388 119.883C106.133 119.975 106.155 120.339 106.413 120.405C128.147 125.946 127.741 125.962 128.148 125.962C128.433 125.962 128.724 125.889 129.092 125.724C131.335 124.721 130.533 122.447 130.234 121.773C129.741 120.666 127.038 114.177 125.899 111.439C125.852 111.33 125.739 111.263 125.627 111.271ZM109.041 114.747L108.17 112.99L125.467 111.831C126.159 113.492 129.211 120.823 129.733 121.995C130.685 124.136 129.445 124.966 128.868 125.224C128.118 125.561 127.93 125.393 127.034 125.164L107.305 120.07C109.382 118.945 109.985 116.651 109.041 114.747Z" fill="black"/>
<path d="M135.427 98.8659L127.462 99.7395C127.336 99.7531 127.234 99.8542 127.221 99.9803C126.134 109.706 126.088 109.573 126.225 109.716C126.354 109.85 125.952 109.835 132.644 109.385C133.223 109.345 133.709 108.923 133.825 108.355L135.725 99.1928C135.763 99.0071 135.606 98.844 135.427 98.8659ZM135.113 99.4503L133.29 108.244C133.221 108.571 132.941 108.816 132.607 108.838L126.731 109.231L127.74 100.259L135.113 99.4503Z" fill="black"/>
<path d="M133.042 78.0793C133.356 78.0242 133.335 77.5613 133.014 77.5364L123.406 76.8162C123.266 76.8018 123.125 76.9166 123.113 77.0668C122.912 79.6784 122.866 79.6127 123.005 79.7388C123.153 79.8739 123.023 79.849 133.042 78.0793ZM123.491 79.2065L123.637 77.3832L130.794 77.9192L123.491 79.2065Z" fill="black"/>
<path d="M103.873 84.7557C103.718 84.6221 103.85 84.6576 94.4921 86.3057C94.3599 86.3291 94.2655 86.4431 94.2663 86.5775L94.3199 93.1045C94.3199 93.2502 94.44 93.3763 94.5932 93.3763L103.509 92.1087C103.641 92.0898 103.739 91.9796 103.744 91.8467C103.991 84.339 104.014 84.8765 103.873 84.7557ZM103.409 85.2903L103.205 91.599L94.865 92.7874L94.8159 86.804L103.409 85.2903Z" fill="black"/>
<path d="M78.9088 82.9105C81.987 83.3582 81.8458 83.3764 81.9809 83.2563C82.1025 83.1461 82.0746 83.1242 82.0262 82.0883C82.0187 81.92 81.8601 81.7984 81.7016 81.8324L78.8968 82.3707C78.594 82.4273 78.6038 82.866 78.9088 82.9105Z" fill="black"/>
<path d="M103.589 93.6248C103.443 93.4919 103.575 93.5176 94.5721 94.8101C94.437 94.8297 94.3365 94.9475 94.3365 95.0834L94.3902 101.643C94.3932 101.794 94.514 101.913 94.6642 101.913L103.212 100.977C103.347 100.962 103.451 100.849 103.455 100.713C103.699 93.2699 103.726 93.7463 103.589 93.6248ZM103.122 94.145L102.917 100.46L94.936 101.335L94.8869 95.3182L103.122 94.145Z" fill="black"/>
<path d="M102.922 83.2873C103.075 83.4141 102.941 83.3794 111.082 81.9479C111.208 81.926 111.304 81.8165 111.309 81.6874C111.513 76.0257 111.524 76.3655 111.38 76.2439C111.221 76.1118 111.357 76.1261 102.977 77.7516C102.848 77.7765 102.754 77.8913 102.756 78.0242C102.808 83.5274 102.783 83.1725 102.922 83.2873ZM103.366 82.752L103.306 78.2454L110.917 76.7852L110.768 81.4481L103.366 82.752Z" fill="black"/>
<path d="M83.5 83.3537C83.506 83.4844 83.605 83.5931 83.7341 83.612L91.3369 84.7143C91.4924 84.7143 91.6148 84.5851 91.6102 84.4319C91.4773 79.9351 91.5151 80.1858 91.3747 80.0748C91.2214 79.9502 91.355 79.9698 83.6472 81.4587C83.5144 81.4844 83.4185 81.6052 83.4253 81.7403L83.5 83.3537ZM83.984 81.9525L90.9405 80.6176L91.053 84.1231L84.0368 83.1031L83.984 81.9525Z" fill="black"/>
<path d="M114.362 110.371C114.923 101.232 114.943 101.362 114.799 101.226C114.654 101.091 114.792 101.151 105.058 102.198C104.922 102.212 104.819 102.322 104.814 102.46L104.538 110.968C104.534 111.125 104.659 111.25 104.811 111.25L114.108 110.628C114.244 110.619 114.354 110.508 114.362 110.371ZM114.318 101.732L113.83 110.098L105.095 110.683L105.353 102.716L114.318 101.732Z" fill="black"/>
<path d="M143.992 65.8808C143.992 65.8808 116.424 64.1586 114.582 63.9842C113.156 63.8491 112.725 66.5067 114.657 66.6947C116.331 66.8578 143.797 69.2926 143.797 69.2926L143.992 65.8808Z" fill="#FFD997"/>
<path d="M144.01 65.6081C144.01 65.6081 116.28 63.8701 114.609 63.7116C112.8 63.5447 112.364 66.7459 114.632 66.9671C116.198 67.1196 143.799 69.5658 143.799 69.5658C143.944 69.5658 144.065 69.4511 144.071 69.3076L144.265 65.8958C144.275 65.7463 144.16 65.6164 144.01 65.6066V65.6081ZM114.685 66.4228C113.124 66.2718 113.479 64.1578 114.557 64.2574C116.313 64.4235 141.782 66.0181 143.704 66.1381L143.541 68.9966L114.685 66.4228Z" fill="black"/>
<path d="M143.698 63.6489C141.549 63.587 139.866 65.4217 139.795 67.6149C139.72 69.9245 141.399 71.7599 143.433 71.8256C145.575 71.8875 147.264 70.0521 147.336 67.8603C147.408 65.6059 145.777 63.7161 143.698 63.6489Z" fill="black"/>
<path d="M145.874 67.6926C145.915 66.4411 145.147 65.4006 144.16 65.3685C143.171 65.3365 142.338 66.325 142.297 67.5766C142.257 68.828 143.024 69.8686 144.013 69.9007C145 69.9327 145.834 68.9442 145.874 67.6926Z" fill="white"/>
<path d="M94.039 20.6442H92.5758V17.3758C92.5758 16.9665 91.9567 16.9665 91.9567 17.3758V20.6442H90.4935C90.0835 20.6442 90.0835 21.2625 90.4935 21.2625H91.9567V24.5309C91.9567 24.9401 92.5758 24.9401 92.5758 24.5309V21.2625H94.039C94.449 21.2625 94.449 20.6442 94.039 20.6442Z" fill="black"/>
<path d="M129.557 39.2874C128.034 40.5172 128.112 40.4878 128.01 40.4584L126.259 39.954C126.145 39.9216 126.043 40.0325 126.086 40.142C126.777 41.951 126.781 41.8876 126.721 41.9759L125.701 43.4859C125.635 43.5833 125.708 43.7147 125.826 43.7086C127.76 43.6097 127.701 43.5863 127.766 43.6709L128.887 45.1084C128.959 45.2013 129.106 45.1718 129.137 45.0578C129.647 43.1673 129.601 43.2368 129.701 43.2005L131.415 42.5792C131.526 42.5391 131.543 42.3896 131.444 42.3247C129.803 41.2564 129.855 41.3213 129.852 41.2149L130.06 39.2572C130.056 39.1394 129.649 39.2134 129.557 39.2874Z" fill="#81F8F8"/>
<path d="M131.613 42.0657L130.173 41.1273L130.368 39.2873C130.439 38.8615 129.72 38.7604 129.364 39.0465L128.013 40.1375L126.345 39.6565C125.995 39.5516 125.662 39.8989 125.797 40.253L126.417 41.874L125.445 43.3123C125.242 43.6082 125.452 44.0182 125.821 44.0182L127.575 43.9291C128.724 45.4013 128.708 45.4723 128.998 45.4723C129.205 45.4723 129.383 45.3364 129.436 45.1378L129.888 43.4617L131.519 42.8698C131.874 42.7422 131.923 42.2681 131.613 42.0657ZM127.631 43.307L126.144 43.3832C127.015 42.0952 127.137 42.0288 127.026 41.7351L126.494 40.3443L127.926 40.7566C128.065 40.7974 128.219 40.7664 128.334 40.6735L129.718 39.5554L129.543 41.2262C129.548 41.3734 129.624 41.5093 129.748 41.5901L130.995 42.4025C129.534 42.9325 129.395 42.9144 129.313 43.2179L128.925 44.6554L128.01 43.4806C127.92 43.3666 127.789 43.3017 127.631 43.307Z" fill="black"/>
<path d="M80.9564 56.1843L79.8835 56.1639L79.2848 55.273C79.2161 55.1718 79.0953 55.119 78.979 55.1341C78.7178 55.1688 78.7261 55.3258 78.3667 56.3602L77.3354 56.6546C77.0817 56.7256 77.0205 57.0571 77.2297 57.2164L78.0859 57.8634L78.0466 58.9355C78.0353 59.1967 78.3312 59.3606 78.5479 59.2096L79.4275 58.5957L80.4354 58.9649C80.6868 59.0548 80.9269 58.8215 80.8514 58.5716L80.5396 57.5448L81.2017 56.7007C81.3633 56.4946 81.2206 56.1888 80.9564 56.1843Z" fill="black"/>
<path d="M94.1047 43.9254H91.9658C91.5558 43.9254 91.5558 44.5437 91.9658 44.5437H94.1047C94.5147 44.5437 94.5147 43.9254 94.1047 43.9254Z" fill="black"/>
<path d="M89.8269 43.9254H87.688C87.278 43.9254 87.278 44.5437 87.688 44.5437H89.8269C90.2368 44.5437 90.2368 43.9254 89.8269 43.9254Z" fill="black"/>
<path d="M98.3833 43.9254H96.2437C95.8352 43.9254 95.8352 44.5437 96.2437 44.5437H98.3833C98.7933 44.5437 98.7933 43.9254 98.3833 43.9254Z" fill="black"/>
<path d="M85.549 43.9254H83.4101C83.0002 43.9254 83.0002 44.5437 83.4101 44.5437H85.549C85.959 44.5437 85.959 43.9254 85.549 43.9254Z" fill="black"/>
<path d="M81.2713 43.9254H79.1316C78.7231 43.9254 78.7231 44.5437 79.1316 44.5437H81.2713C81.6812 44.5437 81.6812 43.9254 81.2713 43.9254Z" fill="black"/>
<path d="M76.9927 43.9254H74.8537C74.4438 43.9254 74.4438 44.5437 74.8537 44.5437H76.9927C77.4026 44.5437 77.4026 43.9254 76.9927 43.9254Z" fill="black"/>
<path d="M100.452 46.7807C100.623 46.7799 100.764 46.638 100.762 46.4674L100.734 44.3292C100.731 43.9147 100.112 43.9291 100.116 44.3368L100.142 46.4757C100.145 46.644 100.284 46.7814 100.452 46.7807Z" fill="black"/>
<path d="M101.032 67.8558C101.006 65.4927 101.036 65.6225 100.91 65.4987C100.778 65.3726 100.585 65.39 100.474 65.5047C100.352 65.6286 100.376 65.4957 100.413 67.8634C100.419 68.2809 101.036 68.2462 101.032 67.8558Z" fill="black"/>
<path d="M100.668 63.8913C100.838 63.8905 100.978 63.7486 100.977 63.578L100.95 61.4391C100.945 61.0351 100.326 61.0321 100.331 61.4466L100.358 63.5855C100.361 63.7539 100.5 63.8928 100.668 63.8913Z" fill="black"/>
<path d="M100.816 50.7453C100.791 48.4025 100.824 48.5067 100.688 48.3806C100.556 48.2598 100.365 48.2855 100.259 48.3942C100.136 48.518 100.161 48.3851 100.197 50.7536C100.203 51.1643 100.82 51.1522 100.816 50.7453Z" fill="black"/>
<path d="M101.058 69.9948C101.052 69.575 100.437 69.5991 100.439 70.0023L100.466 72.1412C100.471 72.4168 100.806 72.5489 100.997 72.3534C101.119 72.2296 101.094 72.3624 101.058 69.9948Z" fill="black"/>
<path d="M100.87 55.0224L100.843 52.8835C100.84 52.7158 100.701 52.5784 100.529 52.5784C100.358 52.5807 100.222 52.7211 100.224 52.8918L100.251 55.0299C100.255 55.4399 100.873 55.4323 100.87 55.0224Z" fill="black"/>
<path d="M100.923 59.3009C100.898 56.9521 100.929 57.0638 100.799 56.94C100.599 56.752 100.275 56.9 100.278 57.1695L100.305 59.3077C100.309 59.7169 100.928 59.7101 100.923 59.3009Z" fill="black"/>
<g clip-path="url(#clip0_145_1431)">
<path d="M105.975 9.5573C102.627 10.9679 101.36 15.7708 103.15 20.377C104.951 25.0133 109.171 27.7061 112.605 26.4273C112.624 26.4203 116.434 24.9404 117.611 24.4831C117.84 24.3941 118.065 24.2992 118.271 24.1657C119.356 23.4639 122.702 20.645 120.048 13.8121C117.331 6.81819 112.237 7.39573 110.931 7.67251C110.721 7.71721 110.52 7.78927 110.319 7.86734C109.295 8.26527 106.012 9.54177 105.975 9.5573Z" fill="#BCFF8F"/>
<line x1="105.259" y1="17.1765" x2="102.812" y2="18.1273" stroke="black" stroke-linecap="round" stroke-linejoin="round"/>
<line x1="105.728" y1="20.8844" x2="104.125" y2="21.507" stroke="black" stroke-linecap="round" stroke-linejoin="round"/>
<line x1="108.73" y1="23.6075" x2="106.283" y2="24.5584" stroke="black" stroke-linecap="round" stroke-linejoin="round"/>
<line x1="104.791" y1="13.4686" x2="103.189" y2="14.0912" stroke="black" stroke-linecap="round" stroke-linejoin="round"/>
<ellipse cx="112.866" cy="16.6022" rx="9.06431" ry="7.70467" transform="rotate(68.7688 112.866 16.6022)" fill="#BCFF8F" stroke="black" stroke-linejoin="round"/>
<path d="M116.269 25.0046C116.245 25.0137 112.964 26.2884 112.94 26.2971C109.321 27.6479 104.951 25.0134 103.15 20.3771C101.36 15.7709 102.775 10.9105 106.306 9.42847C106.352 9.40914 111.3 7.48626 109.68 8.11549" stroke="black" stroke-linecap="round" stroke-linejoin="round"/>
<path fill-rule="evenodd" clip-rule="evenodd" d="M112.113 12.0325C112.013 11.7751 111.724 11.6475 111.466 11.7475C111.209 11.8475 111.081 12.1372 111.181 12.3946L111.69 13.7038C111.553 13.7541 111.418 13.8093 111.289 13.8695C110.864 14.0667 110.448 14.338 110.167 14.7128C109.871 15.1081 109.742 15.5994 109.885 16.1535C109.998 16.5918 110.188 16.945 110.461 17.208C110.736 17.472 111.061 17.6143 111.394 17.6822C111.977 17.8013 112.641 17.6992 113.203 17.6L113.921 19.4478C113.139 19.7405 112.291 19.8531 111.881 19.806C111.607 19.7745 111.359 19.9713 111.327 20.2456C111.296 20.52 111.493 20.7679 111.767 20.7995C112.375 20.8694 113.388 20.7164 114.284 20.38L114.529 21.0127C114.629 21.2701 114.919 21.3977 115.176 21.2977C115.434 21.1977 115.561 20.9079 115.461 20.6505L115.187 19.9447C115.424 19.7984 115.643 19.6298 115.826 19.4364C116.18 19.0625 116.42 18.5706 116.343 17.9835C116.287 17.5615 116.151 17.2052 115.909 16.9348C115.663 16.6606 115.352 16.5218 115.036 16.4607C114.73 16.4012 114.404 16.4119 114.098 16.4447C114.013 16.4538 113.927 16.465 113.84 16.4774L113.023 14.3753C113.356 14.3123 113.673 14.2761 113.932 14.2642C114.208 14.2514 114.421 14.0175 114.408 13.7417C114.395 13.4658 114.162 13.2525 113.886 13.2652C113.543 13.2811 113.109 13.3328 112.656 13.4292L112.113 12.0325ZM112.052 14.6361C111.934 14.6789 111.819 14.7256 111.71 14.7763C111.36 14.9389 111.109 15.1231 110.967 15.3125C110.841 15.4814 110.791 15.663 110.853 15.9038C110.931 16.2046 111.043 16.38 111.155 16.4876C111.266 16.5942 111.407 16.6642 111.594 16.7025C111.93 16.7709 112.343 16.7286 112.834 16.6483L112.052 14.6361ZM114.213 17.4381L114.817 18.9912C114.926 18.9132 115.021 18.8322 115.1 18.7488C115.307 18.5303 115.379 18.3252 115.351 18.1135C115.314 17.8261 115.233 17.6796 115.163 17.6017C115.097 17.5277 115.002 17.4727 114.846 17.4424C114.683 17.4108 114.475 17.4106 114.213 17.4381Z" fill="black"/>
</g>
<g clip-path="url(#clip1_145_1431)">
<path d="M105.975 9.55724C102.627 10.9679 101.36 15.7707 103.15 20.377C104.951 25.0133 109.171 27.706 112.605 26.4273C112.624 26.4203 116.434 24.9404 117.611 24.483C117.84 24.394 118.065 24.2991 118.271 24.1657C119.356 23.4639 122.702 20.6449 120.048 13.812C117.331 6.81813 112.237 7.39567 110.931 7.67245C110.721 7.71715 110.52 7.78921 110.319 7.86728C109.295 8.26521 106.012 9.54171 105.975 9.55724Z" fill="#BCFF8F"/>
<line x1="105.259" y1="17.1764" x2="102.812" y2="18.1273" stroke="black" stroke-linecap="round" stroke-linejoin="round"/>
<line x1="105.728" y1="20.8843" x2="104.125" y2="21.5069" stroke="black" stroke-linecap="round" stroke-linejoin="round"/>
<line x1="108.73" y1="23.6075" x2="106.283" y2="24.5583" stroke="black" stroke-linecap="round" stroke-linejoin="round"/>
<line x1="104.791" y1="13.4685" x2="103.189" y2="14.0912" stroke="black" stroke-linecap="round" stroke-linejoin="round"/>
<ellipse cx="112.866" cy="16.6021" rx="9.06431" ry="7.70467" transform="rotate(68.7688 112.866 16.6021)" fill="#BCFF8F" stroke="black" stroke-linejoin="round"/>
<path d="M116.269 25.0045C116.245 25.0136 112.964 26.2883 112.94 26.2971C109.321 27.6478 104.951 25.0133 103.15 20.377C101.36 15.7708 102.775 10.9105 106.306 9.42841C106.352 9.40908 111.3 7.4862 109.68 8.11543" stroke="black" stroke-linecap="round" stroke-linejoin="round"/>
<path fill-rule="evenodd" clip-rule="evenodd" d="M112.113 12.0324C112.013 11.775 111.724 11.6474 111.466 11.7474C111.209 11.8474 111.081 12.1371 111.181 12.3945L111.69 13.7037C111.553 13.7541 111.418 13.8092 111.289 13.8694C110.864 14.0667 110.448 14.3379 110.167 14.7127C109.871 15.108 109.742 15.5993 109.885 16.1534C109.998 16.5917 110.188 16.945 110.461 17.2079C110.736 17.4719 111.061 17.6142 111.394 17.6822C111.977 17.8013 112.641 17.6991 113.203 17.5999L113.921 19.4478C113.139 19.7405 112.291 19.853 111.881 19.8059C111.607 19.7744 111.359 19.9712 111.327 20.2456C111.296 20.5199 111.493 20.7679 111.767 20.7994C112.375 20.8693 113.388 20.7163 114.284 20.3799L114.529 21.0126C114.629 21.27 114.919 21.3976 115.176 21.2976C115.434 21.1976 115.561 20.9079 115.461 20.6505L115.187 19.9446C115.424 19.7984 115.643 19.6297 115.826 19.4364C116.18 19.0625 116.42 18.5705 116.343 17.9834C116.287 17.5615 116.151 17.2051 115.909 16.9347C115.663 16.6605 115.352 16.5217 115.036 16.4606C114.73 16.4011 114.404 16.4119 114.098 16.4447C114.013 16.4538 113.927 16.4649 113.84 16.4774L113.023 14.3752C113.356 14.3122 113.673 14.2761 113.932 14.2641C114.208 14.2514 114.421 14.0174 114.408 13.7416C114.395 13.4657 114.162 13.2524 113.886 13.2652C113.543 13.281 113.109 13.3327 112.656 13.4292L112.113 12.0324ZM112.052 14.636C111.934 14.6788 111.819 14.7255 111.71 14.7763C111.36 14.9388 111.109 15.123 110.967 15.3124C110.841 15.4813 110.791 15.663 110.853 15.9038C110.931 16.2045 111.043 16.38 111.155 16.4875C111.266 16.5941 111.407 16.6641 111.594 16.7024C111.93 16.7709 112.343 16.7286 112.834 16.6482L112.052 14.636ZM114.213 17.438L114.817 18.9911C114.926 18.9132 115.021 18.8321 115.1 18.7488C115.307 18.5303 115.379 18.3251 115.351 18.1135C115.314 17.826 115.233 17.6796 115.163 17.6017C115.097 17.5276 115.002 17.4726 114.846 17.4423C114.683 17.4108 114.475 17.4106 114.213 17.438Z" fill="black"/>
</g>
<g clip-path="url(#clip2_145_1431)">
<path d="M31.5364 114.417C28.7753 112.056 23.9138 113.075 20.5976 116.739C17.2598 120.427 16.7433 125.406 19.4252 127.903C19.4399 127.917 22.4699 130.66 23.4063 131.507C23.5884 131.672 23.774 131.831 23.9857 131.955C25.0991 132.611 29.1187 134.34 34.038 128.905C39.0732 123.342 36.2745 119.047 35.4422 118.004C35.3078 117.835 35.1535 117.688 34.9938 117.544C34.1793 116.807 31.5668 114.443 31.5364 114.417Z" fill="#BCFF8F"/>
<line x1="24.4043" y1="117.191" x2="22.4576" y2="115.429" stroke="black" stroke-linecap="round" stroke-linejoin="round"/>
<line x1="21.2991" y1="119.271" x2="20.0245" y2="118.117" stroke="black" stroke-linecap="round" stroke-linejoin="round"/>
<line x1="20.2101" y1="123.176" x2="18.2634" y2="121.414" stroke="black" stroke-linecap="round" stroke-linejoin="round"/>
<line x1="27.5095" y1="115.112" x2="26.2348" y2="113.958" stroke="black" stroke-linecap="round" stroke-linejoin="round"/>
<ellipse cx="28.3259" cy="123.734" rx="9.06431" ry="7.70467" transform="rotate(132.15 28.3259 123.734)" fill="#BCFF8F" stroke="black" stroke-linejoin="round"/>
<path d="M22.3387 130.541C22.3201 130.524 19.7102 128.162 19.6919 128.145C16.8624 125.514 17.2598 120.427 20.5976 116.739C23.9138 113.075 28.8929 112.163 31.8002 114.656C31.8381 114.688 35.774 118.25 34.4858 117.084" stroke="black" stroke-linecap="round" stroke-linejoin="round"/>
<path fill-rule="evenodd" clip-rule="evenodd" d="M32.074 121.014C32.2593 120.809 32.2435 120.493 32.0388 120.308C31.8341 120.122 31.5179 120.138 31.3326 120.343L30.39 121.384C30.2836 121.284 30.1741 121.189 30.0622 121.1C29.6957 120.809 29.2666 120.558 28.8058 120.475C28.3195 120.387 27.8227 120.492 27.3913 120.868C27.0501 121.166 26.8195 121.494 26.7068 121.856C26.5937 122.219 26.6125 122.574 26.7008 122.902C26.8556 123.477 27.2444 124.025 27.585 124.483L26.2547 125.953C25.6423 125.384 25.1619 124.677 25.0204 124.289C24.9257 124.03 24.6386 123.896 24.3792 123.991C24.1198 124.086 23.9863 124.373 24.081 124.632C24.2911 125.208 24.8817 126.045 25.5836 126.694L25.1281 127.197C24.9428 127.402 24.9585 127.718 25.1632 127.904C25.368 128.089 25.6842 128.073 25.8695 127.868L26.3776 127.307C26.6145 127.453 26.8634 127.574 27.1183 127.651C27.6112 127.8 28.1584 127.793 28.6488 127.461C29.0012 127.223 29.2584 126.941 29.3917 126.603C29.5269 126.261 29.5114 125.921 29.4248 125.611C29.3405 125.31 29.1852 125.024 29.0186 124.765C28.9724 124.693 28.9238 124.621 28.8739 124.549L30.3873 122.877C30.5925 123.146 30.7668 123.413 30.8936 123.64C31.0285 123.88 31.3332 123.966 31.5742 123.831C31.8151 123.696 31.9009 123.392 31.766 123.151C31.5981 122.851 31.3577 122.487 31.0684 122.125L32.074 121.014ZM29.7188 122.126C29.6277 122.039 29.5346 121.958 29.4403 121.883C29.1383 121.643 28.8611 121.501 28.6281 121.459C28.4204 121.421 28.2359 121.459 28.0484 121.622C27.8143 121.826 27.7077 122.005 27.6616 122.153C27.6159 122.3 27.6167 122.458 27.6664 122.642C27.7554 122.973 27.9787 123.324 28.2702 123.726L29.7188 122.126ZM28.1822 125.313L27.0641 126.549C27.1827 126.611 27.2979 126.66 27.4077 126.693C27.6958 126.78 27.9114 126.753 28.0882 126.633C28.3283 126.471 28.4232 126.333 28.4616 126.236C28.4981 126.144 28.5048 126.034 28.4619 125.881C28.4172 125.721 28.324 125.535 28.1822 125.313Z" fill="black"/>
</g>
<defs>
<linearGradient id="paint0_linear_145_1431" x1="33.6113" y1="8.32385" x2="33.6113" y2="106.857" gradientUnits="userSpaceOnUse">
<stop stop-color="#9DFF9D"/>
<stop offset="1" stop-color="#E6FF82"/>
</linearGradient>
<clipPath id="clip0_145_1431">
<rect width="21.7544" height="21.7544" fill="white" transform="translate(97.5208 10.8947) rotate(-21.2312)"/>
</clipPath>
<clipPath id="clip1_145_1431">
<rect width="21.7544" height="21.7544" fill="white" transform="translate(97.5208 10.8946) rotate(-21.2312)"/>
</clipPath>
<clipPath id="clip2_145_1431">
<rect width="21.7544" height="21.7544" fill="white" transform="translate(26.553 107.458) rotate(42.1501)"/>
</clipPath>
</defs>
</svg>
