<svg width="25" height="24" viewBox="0 0 25 24" fill="none" xmlns="http://www.w3.org/2000/svg">
<path d="M18.8565 18.7248C17.4871 16.9175 15.3174 15.75 12.875 15.75C10.4326 15.75 8.26289 16.9175 6.89346 18.7248M18.8565 18.7248C20.7085 17.0763 21.875 14.6744 21.875 12C21.875 7.02944 17.8456 3 12.875 3C7.90444 3 3.875 7.02944 3.875 12C3.875 14.6744 5.0415 17.0763 6.89346 18.7248M18.8565 18.7248C17.2665 20.1401 15.1712 21 12.875 21C10.5788 21 8.48351 20.1401 6.89346 18.7248M15.875 9.75C15.875 11.4069 14.5319 12.75 12.875 12.75C11.2181 12.75 9.875 11.4069 9.875 9.75C9.875 8.09315 11.2181 6.75 12.875 6.75C14.5319 6.75 15.875 8.09315 15.875 9.75Z" stroke="#232323" stroke-width="1.5" stroke-linecap="round" stroke-linejoin="round"/>
</svg>
